<?xml version="1.0" encoding="UTF-8"?>
<!DOCTYPE svg PUBLIC "-//W3C//DTD SVG 1.1//EN" "http://www.w3.org/Graphics/SVG/1.1/DTD/svg11.dtd">
<!-- Creator: CorelDRAW 2020 (64-Bit) -->
<svg xmlns="http://www.w3.org/2000/svg" xml:space="preserve" width="177.678mm" height="196.384mm" version="1.1" style="shape-rendering:geometricPrecision; text-rendering:geometricPrecision; image-rendering:optimizeQuality; fill-rule:evenodd; clip-rule:evenodd"
viewBox="0 0 17767.82 19638.37"
 xmlns:xlink="http://www.w3.org/1999/xlink"
 xmlns:xodm="http://www.corel.com/coreldraw/odm/2003">
 <defs>
  <style type="text/css">
   <![CDATA[
    .str0 {stroke:#333333;stroke-width:7.62;stroke-linejoin:bevel;stroke-miterlimit:22.9256}
    .fil0 {fill:#4a5d41}
   ]]>
  </style>
 </defs>
 <g id="Layer_x0020_1">
  <metadata id="CorelCorpID_0Corel-Layer"/>
  <path class="fil0 str0" d="M10778.41 5736.37c101.82,-1143.46 154.71,-773.99 -346.41,-1880.16 0,0 0,0 0,0 -219.71,-484.83 -362.46,-749.98 -675.82,-1184.6 0,0 0,0 0,0 -279.5,-387.56 -505.84,-840.95 -862.25,-1159.67 0,0 0,0 0,0 -248.44,-222.22 -291.01,-231.01 -547.65,-499.89 0,0 0,0 0,0 -234.24,-245.22 -115.16,-182.5 -258.88,-249.46 0,0 0,0 0,0 118.52,-283 407.8,-370.76 652.12,-188.36 0,0 0,0 0,0 141.38,105.56 255.4,227.78 418.42,347.82 0,0 0,0 0,0 835.22,614.68 810.84,672.29 1338.04,1545.06 0,0 0,0 0,0 145.62,241.3 542.44,886.16 618.75,1121.82 0,0 0,0 0,0 115.95,358.21 173.81,562.56 553.87,742.21 0,0 0,0 0,0 725.45,343.13 1775.59,62.51 2808.78,442.75 0,0 0,0 0,0 -70.25,378.94 -164.08,740.48 -274.5,1019.27 0,0 0,0 0,0 -37.36,76.81 -5.38,169.4 71.43,206.63 0,0 0,0 0,0 76.76,37.37 169.34,5.46 206.7,-71.29 0,0 0,0 0,0 115.73,-291.22 213.59,-651.11 287.99,-1028.43 0,0 0,0 0,0 157.68,79.2 314.3,176.97 468.48,297.82 0,0 0,0 0,0 225.22,176.53 722.25,815.87 1066.26,400.13 0,0 0,0 0,0 301.53,-364.34 51.72,-960.53 -223.11,-1268.94 0,0 0,0 0,0 -136.12,-152.73 -224.82,-215.49 -365.66,-388.97 0,0 0,0 0,0 -284.76,-350.8 -497.48,-633.71 -791.72,-701.58 0,0 0,0 0,0 -43.99,-785.39 -827.81,-1077.79 -1530.88,-1094.58 0,0 0,0 0,0 -207.21,-650.75 -547.27,-1376.63 -923.67,-1038.74 0,0 0,0 0,0 -276.07,247.88 -350.47,1084.02 -82.25,1293.07 0,0 0,0 0,0 190.86,148.76 492.46,94.13 775.47,63.7 0,0 0,0 0,0 50.26,172.59 87.12,316.48 102.48,386.11 0,0 0,0 0,0 49.61,225.06 25.96,392.43 78.21,617.32 0,0 0,0 0,0 168.71,725.98 635.97,432.23 1065.33,193.52 0,0 0,0 0,0 75.99,-42.27 144.07,-72.49 206.07,-92.25 0,0 0,0 0,0 -9.25,276.63 -38.94,588.01 -85.22,899.26 0,0 0,0 0,0 -112.24,-37.67 -232.69,-71.38 -364.31,-102.21 0,0 0,0 0,0 -728.63,-170.94 -1416.51,-88.37 -2057.91,-218.47 0,0 0,0 0,0 -443.28,-90.01 -563.52,-210.18 -688.26,-615.08 0,0 0,0 0,0 -97.18,-315.42 -473.61,-918.19 -657.68,-1222.91 0,0 -0.01,0 -0.01,0 -547.57,-906.55 -547.75,-993.01 -1421.18,-1635.58 0,0 0,0 0,0 -168.17,-123.8 -377.64,-339.07 -537.51,-423.6 0,0 0,0 0,0 -410.92,-217.47 -912.17,44.2 -1016.71,440.94 0,0 0,0 0,0 -59.59,226.17 571.55,781.94 744.8,927.89 0,0 0,0 0,0 501.32,422.28 518.9,578.51 868.35,1086.92 0,0 0,0 0,0 359.56,523.21 483.06,686.46 751.61,1279.24 0,0 0,0 0,0 475.67,1049.99 412.86,664.09 319.18,1753.29 0,0 0,0 0,0 0,85.39 69.29,154.66 154.69,154.66 0,0 0,0 0,0 85.37,0 154.56,-69.27 154.56,-154.66zm3835.7 -2492.88c0,0 0,0 0,0 0,0 0,0 0,0 -106.65,24.63 -224.66,71.93 -358.01,146.07 0,0 0,0 0,0 -632.21,351.28 -566.68,342.93 -656.47,-413.71 0,0 0,0 0,0 -9.06,-77.02 -50.39,-278.72 -116.99,-524.77 0,0 0,0 0,0 485.09,37.04 1095.17,232.84 1131.47,792.41zm211.1 1339.59c0,0 0,0 0,0 0,0 0,0 0,0 55.45,-349.48 89.92,-701.75 98.93,-1017.85 0,0 0,0 0,0 188.04,74.37 327.56,294.94 549.15,567.82 0,0 0,0 0,0 140.92,173.45 243,252.09 376.4,401.7 0,0 0,0 0,0 338.66,379.88 440.31,1220.82 -83.31,727 0,0 0,0 0,0 -329.28,-310.6 -604.14,-522.86 -941.17,-678.67zm-1757.86 -2427.25c0,0 0,0 0,0 0,0 0,0 0,0 -3.3,0.33 -6.58,0.69 -9.83,0.99 0,0 0,0 0,0 -342.36,35.28 -492.76,126.8 -516.94,-155.19 0,0 0,0 0,0 -0.71,-197.05 -27.66,-498.91 127.33,-658.55 0,0 0,0 0,0 126.85,68.28 279.38,446.94 399.44,812.75zm-3158.72 12902.89c57.18,657.76 1235.54,682.06 1373.48,1353.49 0,0 0,0 0,0 122.1,593.77 -111.33,1051.43 441.05,1466.47 0,0 0,0 0,0 0,0 300.02,172.57 300.02,172.57 0,0 0,0 0,0 0,-0.01 -205.05,-269.55 -205.05,-269.55 0,0 0,0 0,0 -444.2,-595.27 -132.59,-652.63 -218.39,-1408.51 0,0 0,0 0,0 -85.52,-753.59 -1075.18,-1050.31 -1235.13,-1311.07 0,0 0,0 0,0 -1.8,-121.1 -98.6,-220.44 -220.93,-224.25 0,0 0,0 0,0 -125.88,-3.89 -231.08,94.94 -235.05,220.85zm453.6 -0.74c0,0 0,0 0,0 0,0 0,0 0,0 -1.17,-1.98 -2.39,-3.88 -3.38,-5.87 0,0 0,0 0,0 0,0 0.58,-0.99 0.58,-0.99 0,0 0,0 0,0 1.4,3.53 2.31,5.44 2.8,6.86zm-860.86 -10181.63c105.31,-344.65 -488.16,-437.97 33.48,-1089.66 0,0 0,0 0,0 0,0 65.05,51 65.05,51 0,0 0,0 0,0 -355.5,181.21 427.33,497.84 -98.53,1038.66zm1119.58 -1171.37c105.21,-344.63 -488.26,-438.02 33.48,-1089.64 0,0 0,0 0,0 0,0 65.02,50.98 65.02,50.98 0,0 0,0 0,0 -355.55,181.16 427.26,497.82 -98.5,1038.66zm824.05 1497.84c105.31,-344.55 -488.13,-437.95 33.48,-1089.61 0,0 0,0 0,0 0,0 65.05,50.98 65.05,50.98 0,0 0,0 0,0 -355.5,181.17 427.33,497.84 -98.53,1038.63zm534.37 -8c77.72,-254.26 -360.28,-323.19 24.64,-804.07 0,0 0,0 0,0 0,0 48.03,37.62 48.03,37.62 0,0 0,0 0,0 -262.36,133.73 315.31,367.41 -72.67,766.45zm-653.57 -2153.24c105.33,-344.65 -488.24,-438.1 33.48,-1089.63 0,0 0,0 0,0 0,0 65.05,51 65.05,51 0,0 0,0 0,0 -355.5,181.15 427.33,497.82 -98.53,1038.63zm2591.51 456.08c105.31,-344.67 -488.16,-437.97 33.48,-1089.66 0,0 0,0 0,0 0,0 65.05,51.01 65.05,51.01 0,0 0,0 0,0 -355.53,181.18 427.33,497.86 -98.53,1038.65zm-1057.35 -41.47c105.33,-344.61 -488.21,-438 33.48,-1089.66 0,0 0,0 0,0 0,0 65.07,50.97 65.07,50.97 0,0 0,0 0,0 -355.52,181.21 427.33,497.87 -98.55,1038.69zm197.46 1781.27c74.9,-245.21 -347.29,-311.65 23.83,-775.28 0,0 0,0 0,0 0,0 46.27,36.35 46.27,36.35 0,0 0,0 0,0 -252.9,128.88 304.02,354.1 -70.1,738.93zm-3162.12 -2693.49c105.31,-344.65 -488.24,-437.95 33.48,-1089.63 0,0 0,0 0,0 0,0 65.04,51 65.04,51 0,0 0,0 0,0 -355.49,181.2 427.33,497.81 -98.52,1038.63zm2550.51 598.45c77.68,-254.36 -360.24,-323.29 24.69,-804.16 0,0 0,0 0,0 0,0 48.01,37.69 48.01,37.69 0,0 0,0 0,0 -262.33,133.65 315.36,367.33 -72.7,766.47zm-787.8 155.47c77.7,-254.33 -360.28,-323.26 24.71,-804.16 0,0 0,0 0,0 0,0 47.93,37.72 47.93,37.72 0,0 0,0 0,0 -262.33,133.63 315.42,367.31 -72.64,766.44zm2643.55 940.69c63.17,-206.78 -292.94,-262.86 20.09,-653.79 0,0 0,0 0,0 0,0 39.02,30.58 39.02,30.58 0,0 0,0 0,0 -213.23,108.79 256.41,298.73 -59.11,623.21zm-901.85 10.34c63.25,-206.73 -292.91,-262.79 20.09,-653.72 0,0 0,0 0,0 0,0 39.02,30.58 39.02,30.58 0,0 0,0 0,0 -213.26,108.69 256.38,298.63 -59.11,623.14zm-1511.02 2263.5c-74.88,-245.14 347.34,-311.59 -23.8,-775.24 0,0 0,0 0,0 0,0 -46.28,36.32 -46.28,36.32 0,0 0,0 0,0 252.93,128.94 -303.99,354.18 70.08,738.92zm1029.79 -2639.42c-225.7,-121.59 27.71,-465.73 -562.2,-534.26 0,0 0,0 0,0 0,0 -7.34,58.34 -7.34,58.34 0,0 0,0 0,0 270.46,-86.31 32.97,465.58 569.54,475.92zm-735.94 -1648.15c-225.73,-121.57 27.69,-465.84 -562.23,-534.34 0,0 0,0 0,0 0,0 -7.34,58.34 -7.34,58.34 0,0 0,0 0,0 270.44,-86.31 33,465.61 569.57,476zm1447.88 -759.08c-255.68,-19.51 -163.83,-436.91 -730.76,-260.05 0,0 0,0 0,0 0,0 16.94,56.29 16.94,56.29 0,0 0,0 0,0 212.19,-188.65 219.18,412.14 713.82,203.76zm196.87 466.39c-255.57,-19.43 -163.72,-436.9 -730.65,-260.02 0,0 0,0 0,0 0,0 16.94,56.36 16.94,56.36 0,0 0,0 0,0 212.09,-188.69 219.18,412.07 713.71,203.66zm-3491.18 -1007.36c-248.38,63.47 -295.17,-361.39 -775.46,-12.17 0,0 0,0 0,0 0,0 34.06,47.93 34.06,47.93 0,0 0,0 0,0 140.49,-246.74 339.68,320.12 741.4,-35.76zm192.11 735.3c69.67,-228.17 -323.14,-289.96 22.12,-721.26 0,0 0,0 0,0 0,0 43.1,33.79 43.1,33.79 0,0 0,0 0,0 -235.25,119.93 282.83,329.48 -65.22,687.47zm4890.46 2963.57c171.96,316.66 654.53,-41.25 753.82,787.53 0,0 0,0 0,0 0,0 -81.99,10.67 -81.99,10.67 0,0 0,0 0,0 119.91,-380.6 -654.66,-44.05 -671.83,-798.2zm-119.89 -304.75c-55.55,-282.27 -508.45,-124.71 -386.41,-779.75 0,0 0,0 0,0 0,0 64.98,11.4 64.98,11.4 0,0 0,0 0,0 -182.1,261.34 488.18,189.66 321.43,768.35zm243.28 -1220.62c-255.98,13.51 -218.64,-412.22 -758.03,-163.85 0,0 0,0 0,0 0,0 24.05,53.64 24.05,53.64 0,0 0,0 0,0 186.05,-214.33 270.36,380.49 733.98,110.21zm-372.21 -573.4c-251.05,52.14 -278.53,-374.32 -774.14,-47.2 0,0 0,0 0,0 0,0 31.9,49.41 31.9,49.41 0,0 0,0 0,0 151.51,-240.09 324.82,335.1 742.24,-2.21zm-604.95 -451.13c-226.54,120.01 -371.81,-281.94 -756.62,170.33 0,0 0,0 0,0 0,0 44.38,38.53 44.38,38.53 0,0 0,0 0,0 78.61,-272.77 405.33,231.34 712.24,-208.86zm-1020.27 3225.87c74.96,-245.16 -347.37,-311.63 23.85,-775.21 0,0 0,0 0,0 0,0 46.28,36.25 46.28,36.25 0,0 0,0 0,0 -253.01,128.88 304.01,354.18 -70.13,738.96zm-577.54 -115.34c-137.44,216.38 251.84,392.86 -229.36,740.94 0,0 0,0 0,0 0,0 -34.95,-47.37 -34.95,-47.37 0,0 0,0 0,0 278.1,-56.84 -198.71,-422.27 264.31,-693.57zm2658.84 1751c172.01,316.64 654.54,-41.25 753.83,787.53 0,0 0,0 0,0 0,0 -82,10.69 -82,10.69 0,0 0,0 0,0 119.94,-380.67 -654.55,-44.07 -671.83,-798.22zm491.06 -579.4c113.49,208.87 431.8,-27.23 497.28,519.46 0,0 0,0 0,0 0,0 -54.07,7.03 -54.07,7.03 0,0 0,0 0,0 79.12,-251.03 -431.78,-29.08 -443.21,-526.49zm-5024.42 -2546.55c-225.22,281.28 291.62,587.53 -434.04,1000.05 0,0 0,0 0,0 0,0 -41.58,-71.43 -41.58,-71.43 0,0 0,0 0,0 397.33,-36.85 -212.93,-620.55 475.62,-928.62zm-1410.36 -2298.98c-179.78,156.74 120.75,417.02 -400.38,600.25 0,0 0,0 0,0 0,0 -18.67,-51.41 -18.67,-51.41 0,0 0,0 0,0 263.09,22.73 -65.64,-429.21 419.05,-548.84zm-3414.4 12197.75c-314.02,-38.6 -422.55,282.05 -683.23,391.85 0,0 0,0 0,0 -87.12,36.73 -294.9,-30.71 -383.75,-5.77 0,0 0,0 0,0 -121.69,34.22 -213.25,104.4 -336.67,126.88 0,0 0,0 0,0 -187.63,34.24 -372.52,1.5 -565.05,31.32 0,0 0,0 0,0 -233.45,36.24 -392.91,224.18 -633.6,261.51 0,0 0,0 0,0 -287.81,44.56 -658.52,-65.96 -956.57,-89.91 0,0 0,0 0,0 42.47,155.98 -118.87,268.25 -26.95,377.09 0,0 0,0 0,0 336.43,398.62 1238.99,495.93 2306.48,198.19 0,0 -0.01,0 -0.01,0.01 -860.57,887.32 -1939.26,1058.16 -3380.43,38.09 0,0 0,0 0,0 0,0 35.38,297.79 35.38,297.79 0,0 0,0 0.01,0.01 1044.67,981.7 2433.21,995.62 4224.27,-123.55 0,0 0,0 0,0 0,0 -572.65,1474.9 -572.65,1474.9 0,0 0,0 0,0 0,0 205.9,180.16 205.9,180.16 0,0 0,0 0,0 0,0 1482.09,-2329.28 1482.09,-2329.28 0,0 0,0 0,0 210.1,-323.44 467.25,-505.77 787.85,-497.51 0,0 0,0 0,0 -190.01,9.35 -252.5,503.12 -385.62,958.24 0,0 0,0 0,0 -47.65,162.92 -198.07,324.08 -240.64,497.08 0,0 0,0 0,0 -34.8,141.27 41.3,304.67 20.9,444.65 0,0 0,0 0,0 -35.96,247.17 -144.29,232.79 -159.84,436.12 0,0 0,0 0,0 -10.01,130.83 72.57,313.74 104.4,481.71 0,0 0,0 0,0 25.93,137.13 -2.59,267.74 28.5,323.09 0,0 0,0 0,0 -0.01,0 -196.4,443.86 -196.4,443.86 0,0 0,0 0,0 0,0 -369.19,713.08 -369.19,713.08 0,0 0,0 0,0 0,0 -142.69,348.95 -142.69,348.95 0,0 0,0 0,0 104.8,-39.42 171.75,72.97 272.84,13.43 0,0 0,0 0,0 62.31,-36.73 -8.63,-159.13 57.31,-206.68 0,0 0,0 0,0 367.31,-264.67 991.43,-1246.25 924.66,-1996.77 0,0 0,0 0,0.01 136.37,484.49 -229.29,-1902.72 1248.18,-1871.96 0,0 0,0 0,0 866.14,18.01 859.69,717.52 841.4,1154.33 0,0 0,0 0,0 -27.76,667.28 -407.32,1145.69 -290.2,972.64 0,0 0,0 0,0 116.49,-172.01 29.52,441.2 136.88,269.49 0,0 0,0 0,0 73.89,-118.08 341.86,-450.87 410.8,-580.62 0,0 0,0.01 0,0.01 -29.41,1031.01 632.18,1788.21 999.49,2052.87 0,0 0,0 0,0 65.94,47.55 -5.06,169.96 57.25,206.68 0,0 0,0 0,0 101.09,59.54 168.05,-52.85 272.85,-13.43 0,0 0,0 0,0 0,0 -142.73,-348.95 -142.73,-348.95 0,0 0,0 0,0 0,0 -369.13,-713.08 -369.13,-713.08 0,0 0,0 0,0 0,0 -196.42,-443.86 -196.42,-443.86 0,0 0,0 0,0 31.09,-55.35 2.56,-185.96 28.52,-323.09 0,0 0,0 0,0 31.83,-167.97 114.4,-350.88 104.4,-481.71 0,0 0,0 0,0 -15.52,-203.33 -123.91,-188.95 -159.85,-436.12 0,0 0,0 0,0 -20.44,-139.98 55.63,-303.38 20.88,-444.65 0,0 0,0 0,0 -42.52,-173 -192.96,-334.16 -240.66,-497.08 0,0 0,0 0,0 -133.07,-455.12 -195.58,-948.89 -385.6,-958.24 0,0 0,0 0,0 320.62,-8.26 577.77,174.07 787.78,497.51 0,0 0,0 0,0 0,0 1482.19,2329.28 1482.19,2329.28 0,0 0,0 0,0 0,0 205.87,-180.16 205.87,-180.16 0,0 0,0 0,0 0,0 -572.69,-1474.9 -572.69,-1474.9 0,0 0,0 0,0 1791.05,1119.17 3179.67,1105.25 4224.35,123.54 0,0 0,0 0,0 0,0 35.3,-297.79 35.3,-297.79 0,0 0,0 0,0.01 -1441.12,1020.06 -2519.83,849.22 -3380.46,-38.11 0,0 0,0 0.01,0 1067.56,297.74 1970.17,200.43 2306.57,-198.19 0,0 0,0 0,0 91.92,-108.84 -69.5,-221.11 -26.93,-377.09 0,0 0,0 0,0 -298.07,23.95 -668.78,134.47 -956.59,89.91 0,0 0,0 0,0 -240.76,-37.33 -400.12,-225.27 -633.63,-261.51 0,0 0,0 0,0 -192.5,-29.82 -377.47,2.92 -565.04,-31.32 0,0 0,0 0,0 -123.4,-22.48 -214.96,-92.66 -336.71,-126.88 0,0 0,0 0,0 -88.77,-24.94 -296.59,42.5 -383.77,5.77 0,0 0,0 0,0 -260.63,-109.8 -369.24,-430.45 -683.15,-391.85 0,0 0,0 0,0 -93.63,-63.88 -257.56,-108.86 -346.33,-186.13 0,0 0,0 0,0 -100.99,-87.93 155.95,-190.19 65.86,-295.4 0,0 0,0 0,0 -74.52,-87.02 -47.85,-168.55 -108,-265 0,0 0,0 0,0 -52.48,-84.07 -144.58,-135.81 -193.27,-227.23 0,0 0,0 0,0 -40.01,-75.38 -4.95,-149.09 -40.08,-231.01 0,0 0,0 0,0 -27.36,-63.65 -81.41,-93.01 -109.83,-160.2 0,0 0,0 0,0 -35.38,-83.87 85.95,-151.99 53.29,-243.81 0,0 0,0 0,0 -37.19,-104.65 -184.91,-221.72 -247.45,-335.41 0,0 0,0 0,0 -96.14,-174.5 -111.45,-348.33 -152.27,-512.54 0,0 0,0 0,-0.01 -7.82,-222.35 -70.99,-517.62 -44.63,-730.09 0,0 0,0 0,0 24.03,-193.27 110.69,-313.29 165.63,-495.35 0,0 0,0 0,0 38.03,-125.81 15.14,-291.72 65.97,-414.53 0,0 0,0 0,0 44.96,-108.61 189.02,-133.25 255.65,-220.24 0,0 0,0 0,0 25.07,-32.77 -25.3,-116.67 -2.31,-155.68 0,0 0,0 0,0 74.8,-126.65 257.88,-214.25 347.06,-339.78 0,0 0,0 0,0 62.56,-88.13 27.61,-214.75 97.18,-301.8 0,0 0,0 0,0 30.1,-37.59 19.38,-108.84 50.78,-146.2 0,0 0,0 0,0 37.95,-45.21 103.3,-56.14 144.07,-100.1 0,0 0,0 0,0 43.56,-47.04 64.89,-138.13 110.51,-184.89 0,0 0,0 0,0 66.04,-67.87 161.42,-94.31 233.66,-157.78 0,0 0,0 0,-0.01 144.98,-127.53 -191.42,-280.84 -79.35,-449.8 0,0 0,0 0,0 311.05,-468.99 1059.91,-403.46 1733.27,-398 0,0 0,0 0,0 427.58,3.56 744.5,-174.87 1157.63,-23.57 0,0 0,0 0,0 613.59,224.84 672.13,804.98 951.81,1207.19 0,0 0,0 0,0 224.01,322.1 261.62,495.38 576.53,764.92 0,0 0,0 0,0 0,0 125.88,-212.93 125.88,-212.93 0,0 0,0 0,0 0,0 -757.27,-1158.16 -757.27,-1158.16 0,0 0,0 0,0 0,0 483.72,279.68 483.72,279.68 0,0 0,0 0,0 0,0 139.92,-262.11 139.92,-262.11 0,0 0,0 0,0 -252.19,-157.27 -520.09,-324.33 -763.19,-527.15 0,0 0,0 0,0 -102.06,-85.24 -174.12,-232.25 -279.98,-298.29 0,0 0,0 0,-0.01 -280.9,-175.08 -592.92,-194.76 -873.76,-369.87 0,0 0,0 0,0 186.87,-243.94 520.8,-266.5 943.33,-304.11 0,0 0,0 0,0 119.38,-10.67 246.22,-80.6 378.33,-97.21 0,0 0,0 0,0 207.87,-26.11 428.9,3.4 654.53,19.76 0,0 0,0 0,0 0,0 -52.98,-272.69 -52.98,-272.69 0,0 0,0 0,0 -192.43,-28.83 -389.59,-100.92 -580.16,-112.22 0,0 0,0 0,0 -130.28,-7.77 -257.56,43.23 -377.98,35.71 0,0 0,0 0,0 -302.44,-18.87 -562.58,-45.56 -765.12,39.55 0,0 0,0 0,0 0,0 191.41,-780.41 191.41,-780.41 0,0 0,0 0,0 0,0 -209.88,-31.25 -209.88,-31.25 0,0 0,0.01 0,0.01 -233.43,922.17 -772.82,1284.88 -1490.02,1322.47 0,0 0.01,0 0.01,0 295.25,-465.25 684.63,-801.8 1242.54,-907.72 0,0 0,0 0,0 0,0 36.62,-275.64 36.62,-275.64 0,0 0,0 0,0 -845.92,90.93 -1533.01,570.15 -2130.09,1269.26 0,0 0,0 0,0 0,0 -304.01,108.59 -304.01,108.59 0,0 0,0 0,0 -85.14,45.31 -172.09,161.01 -260.12,211.1 0,0 -0.01,0 -0.01,0 -355.82,202.69 -729.76,368.17 -1073.78,551 0,0 0,0 0,0 -495.25,-156.97 818.77,-1159.92 865.73,-1212.42 0,0 0,0 0,0 185.91,-207.69 922.79,-320.01 1150.24,-519.63 0,0 0,0 0,0 277.73,-243.82 278.64,-572.06 267.24,-825.73 0,0 0,0 0,0 0,0 -269.8,-11.66 -269.8,-11.66 0,0 0,0 0,0 30.43,143.59 64.64,269.06 -70.92,340.06 0,0 0,0 0,0 -118.54,62.15 -329.46,222.83 -490.47,270.46 0,0 0,0 0,0 -150.57,44.47 -302.52,21.97 -448.64,43.78 0,0 0,0 0,0 -99.62,14.86 -196.57,99.7 -288.67,128.05 0,0 0,0 -0.01,0 -366.11,112.57 -393.75,26.84 -683.51,-172.09 0,0 0,0 0,0.01 -389.66,1540.02 -1715.79,1378.5 -2063.42,1902.88 0,0 0,0 0,0 -33.22,-841.3 -1000.61,-1185.85 -1182.04,-1902.89 0,0 0,0 0,0 -289.81,198.93 -317.4,284.66 -683.66,172.09 0,0 0,0 0,0 -91.98,-28.35 -188.95,-113.19 -288.55,-128.05 0,0 0,0 0,0 -146.1,-21.81 -298.12,0.69 -448.64,-43.78 0,0 0,-0.01 0,-0.01 -161.11,-47.62 -371.96,-208.3 -490.57,-270.45 0,0 0,0 0,0 -135.49,-71 -101.25,-196.47 -70.9,-340.06 0,0 0,0 0,0 0,0 -269.72,11.66 -269.72,11.66 0,0 0,0 0,0 -11.38,253.67 -10.49,581.91 267.24,825.73 0,0 0,0 0,0 323.82,284.15 981.86,321.28 1668.39,971.22 0,0 0,0 0.01,0 323.92,306.55 629.97,671.29 347.47,760.83 0,0 0,0 0,0 -343.95,-182.83 -717.86,-348.31 -1073.71,-551 0,0 0,0 0,0 -88.01,-50.09 -174.98,-165.79 -260.07,-211.1 0,0 0,0 0,0 0,0 -304.02,-108.59 -304.02,-108.59 0,0 0,0 0,0 -597.13,-699.11 -1284.22,-1178.33 -2130.22,-1269.26 0,0 0,0 0,0 0,0 36.73,275.64 36.73,275.64 0,0 0,0 0,0 557.91,105.92 947.29,442.47 1242.54,907.72 0,0 0,0 0,0 -717.19,-37.59 -1256.61,-400.3 -1490.01,-1322.48 0,0 0,0 0,0 0,0 -209.86,31.25 -209.86,31.25 0,0 0,0 0,0 0,0 191.32,780.41 191.32,780.41 0,0 0,0 0,0 -202.49,-85.11 -462.59,-58.42 -765.13,-39.55 0,0 0,0 0,0 -120.42,7.52 -247.62,-43.48 -377.97,-35.71 0,0 -0.01,0 -0.01,0 -190.52,11.3 -387.73,83.39 -580.08,112.22 0,0 0,0 0,0 0,0 -53.06,272.69 -53.06,272.69 0,0 0,0 0,0 225.73,-16.36 446.66,-45.87 654.63,-19.76 0,0 0,0 0,0 132.11,16.61 258.88,86.54 378.31,97.21 0,0 0,0 0,0 422.56,37.61 756.46,60.17 943.28,304.11 0,0 0,0 0,0 -280.87,175.11 -592.81,194.79 -873.68,369.88 0,0 0,0 0,0 -105.87,66.04 -177.96,213.05 -280.04,298.29 0,0 0,0 0,0 -243.1,202.82 -510.97,369.88 -763.14,527.15 0,0 0,0 0,0 0,0.01 139.83,262.11 139.83,262.11 0,0 0,0 0,0 0,0 483.79,-279.68 483.79,-279.68 0,0 0,0 0,0 0,0 -757.3,1158.16 -757.3,1158.16 0,0 0,0 0,0 0,0 125.83,212.93 125.83,212.93 0,0 0,0 0,0 314.99,-269.55 352.58,-442.82 576.5,-764.92 0,0 0,0 0.01,0 279.78,-402.21 338.25,-982.35 951.94,-1207.19 0,0 0,0 0,0 413.1,-151.3 729.94,27.13 1157.58,23.57 0,0 0,0 0,0 673.4,-5.46 1422.17,-70.99 1733.29,398 0,0 0,0 0,0 112.07,168.96 -224.36,322.27 -79.35,449.81 0,0 0,0 0,0 72.16,63.47 167.54,89.91 233.66,157.78 0,0 0,0 0,0 45.64,46.76 66.95,137.85 110.51,184.89 0,0 0,0 0,0 40.74,43.96 106.12,54.89 144.07,100.1 0,0 0,0 0,0 31.42,37.36 20.65,108.61 50.75,146.2 0,0 0,0 0,0 69.52,87.05 34.65,213.67 97.21,301.8 0,0 0,0 0,0 89.17,125.53 272.26,213.13 347.04,339.78 0,0 0,0 0,0 23.01,39.01 -27.44,122.91 -2.29,155.68 0,0 0,0 0,0 66.62,86.99 210.62,111.63 255.57,220.24 0,0 0,0 0,0 50.93,122.81 28.05,288.72 66.02,414.53 0,0 0,0 0,0 54.96,182.06 141.6,302.08 165.56,495.35 0,0 0,0 0,0 26.44,212.47 -36.68,507.74 -44.56,730.1 0,0 0,0 0,0 -40.89,164.21 -56.08,338.04 -152.24,512.54 0,0 0,0 0,0 -62.56,113.69 -210.26,230.76 -247.45,335.41 0,0 0,0 0,0 -32.66,91.82 88.7,159.94 53.21,243.81 0,0 0,0 0,0 -28.34,67.19 -82.42,96.55 -109.78,160.2 0,0 0,0 0,0 -35.17,81.92 -0.07,155.63 -40.15,231.01 0,0 0,0 0,0 -48.59,91.42 -140.74,143.16 -193.17,227.23 0,0 0,0 0,0 -60.17,96.45 -33.55,177.98 -108.03,265 0,0 0,0 0,0 -90.09,105.21 166.88,207.47 65.89,295.4 0,0 0,0 0,0 -88.77,77.27 -252.78,122.25 -346.33,186.13zm745.8 -7971.76c-101.73,-1143.46 -154.66,-773.99 346.48,-1880.16 0,0 0,0 0,0 219.63,-484.83 362.38,-749.98 675.79,-1184.6 0,0 0,0 0,0 279.45,-387.56 505.87,-840.95 862.25,-1159.67 0,0 0,0 0,0 248.49,-222.22 291.06,-231.01 547.68,-499.89 0,0 0,0 0,0 234.26,-245.22 115.14,-182.5 258.88,-249.46 0,0 0,0 0,0 -118.49,-283 -407.83,-370.76 -652.25,-188.36 0,0 0,0 0,0 -141.22,105.56 -255.37,227.78 -418.39,347.82 0,0 0,0 0,0 -835.13,614.68 -810.77,672.29 -1337.92,1545.06 0,0 0,0 0,0 -145.74,241.3 -542.47,886.16 -618.74,1121.82 0,0 0,0 0,0 -115.98,358.21 -173.87,562.56 -553.88,742.21 0,0 0,0 0,0 -725.47,343.13 -1775.68,62.51 -2808.8,442.65 0,0 0,0 0,0 70.25,379.04 164.08,740.58 274.42,1019.37 0,0 0,0 0,0 37.34,76.81 5.43,169.4 -71.32,206.63 0,0 0,0 0,0 -76.89,37.37 -169.4,5.46 -206.74,-71.29 0,0 0,0 0,0 -115.69,-291.22 -213.66,-651.11 -287.96,-1028.43 0,0 0,0 0,0 -157.7,79.25 -314.35,176.97 -468.52,297.82 0,0 0,0 0,0 -242.57,190.2 -724.36,828.85 -1081.1,382.42 0,0 0,0 0,0 -490.15,-613.48 607.51,-1773.93 1080.21,-2138.04 0,0 0,0 0,0 119.2,-91.8 222.02,-151.16 314.32,-185.55 0,0 0,0 0,0 32.84,-798.86 823.01,-1095.83 1531.47,-1112.77 0,0 0,0 0,0 197.79,-616.13 539.14,-1384.23 923.9,-1038.74 0,0 0,0 0,0 276.07,247.88 350.44,1084.02 82.24,1293.07 0,0 0,0 0,0 -191.51,149.25 -494.51,93.8 -778.45,63.37 0,0 0,0 0,0 -9.73,33.32 -17.61,61.29 -23.12,81.91 0,0 0,0 0,0 -114.58,426.22 -74.73,304.78 -120.29,707.45 0,0 0,0 0,0 -135.64,1198.27 -864.64,468.6 -1305.94,307.01 0,0 0,0 0,0 8.86,278.94 38.68,593.69 85.57,908.43 0,0 0,0 0,0 113.31,-38.26 233.88,-72.14 364.23,-102.72 0,0 0,0 0.01,0 728.59,-170.94 1416.45,-88.37 2057.85,-218.47 0,0 0,0 0,0 443.18,-90.01 563.55,-210.18 688.29,-615.08 0,0 0,0 0,0 97.11,-315.42 473.63,-918.19 657.68,-1222.91 0,0 0,0 0,0 547.5,-906.55 547.78,-993.01 1421.16,-1635.58 0,0 0,0 0,0 168.22,-123.8 377.67,-339.07 537.51,-423.6 0,0 0,0 0,0 410.9,-217.47 912.19,44.2 1016.74,440.94 0,0 0,0 0,0 59.51,226.17 -571.58,781.94 -744.88,927.89 0,0 0,0 0,0 -501.22,422.28 -518.9,578.51 -868.3,1086.92 0,0 0,0 0,0 -359.54,523.21 -483.01,686.46 -751.56,1279.24 0,0 0,0 0,0 -475.72,1049.99 -412.95,664.09 -319.23,1753.29 0,0 0,0 0,0 0,85.39 -69.26,154.66 -154.63,154.66 0,0 0,0 0,0 -85.37,0 -154.66,-69.27 -154.66,-154.66zm-3834.69 -2505.53c0,0 0,0 0,0 0,0 0,0 0,0 224.33,49.93 421.44,238.22 747.29,367.26 0,0 0,0 0,0 305.54,121.03 242.72,-547.53 299.59,-816.97 0,0 0,0 0,0 11.87,-56.39 40.11,-177.06 82.17,-329.97 0,0 0,0 0,0 -481.15,37.11 -1084.45,230.38 -1129.05,779.68zm-211.94 1353.11c0,0 0,0 0,0 0,0 0,0 0,0 -53.64,-338.08 -87.71,-678.79 -98.02,-986.92 0,0 0,0 0,0 -409.75,232.74 -1002.61,1025.07 -1122.73,1264.92 0,0 0,0 0,0 -124.05,247.83 -163.4,826.9 279.4,399.8 0,0 0,0 0,0 318.52,-307.12 602.03,-521.29 941.35,-677.8zm1756.56 -2428.22c0,0 0,0 0,0 0,0 0,0 0,0 3.66,0.36 7.39,0.69 11,1.09 0,0 0,0 0,0 342.39,35.28 492.81,126.8 516.87,-155.19 0,0 0,0 0,0 0.83,-197.05 27.76,-498.86 -127.21,-658.55 0,0 0,0 0,0 -127.63,70.11 -289.53,482.15 -400.66,812.65zm350.47 3119.6c-293.06,-614.8 472.24,-2228.62 767.46,-2817.31 0,0 0,0 0,0 82.1,-163.55 228.04,-390.96 405.59,-637.9 0,0 0,0 0,0 -185.06,-196.82 -315.82,-369.82 -340.84,-492.81 0,0 0,0 0,0 -102.08,-501.8 1187.09,-893.6 1591.26,-1089.89 0,0 0,0 0,0 158.21,-76.86 394.1,-285.16 539.09,-221.79 0,0 0,0 0,0 294.31,128.8 -203.1,492.05 -291.54,551.48 0,0 0,0 0,0 -359.14,241.28 -781.77,759.54 -1126.16,1230.58 0,0 0,0 0,0 492.27,475.11 1254.5,1109.3 1517.11,1437.29 0,0 0,0 0,0 22,27.53 45.19,56.87 69.34,87.86 0,0 0,0 0,0 154.59,-196.8 334.27,-357.89 528.02,-457.41 0,0 0,0 0,0 59.59,-30.65 73.23,-29 137.59,-25.7 0,0 0,0 0,0 76.96,7.19 133.5,75.46 126.34,152.32 0,0 0,0 0,0 -6.96,73.81 -69.93,128.78 -142.92,126.9 0,0 0,0 -0.01,0 -171.27,102.24 -332.2,257.23 -469.64,441.71 0,0 0,0 0,0 304.8,417.24 661.31,975 746.05,1364.54 0,0 0,0 0,0 254.63,1170.83 -1165.96,1496.74 -1438.38,156.89 0,0 0,0 0,0 -92.23,-453.95 59.44,-1044.78 346,-1517.37 0,0 0,0 0,0 -43.56,-57.05 -84.07,-108.89 -120.12,-153.85 0,0 0,0 0,0 -260.27,-324.81 -962.58,-894.15 -1465.04,-1382.29 0,0 0,0 0,0 -85.78,121.89 -164.09,236.12 -231.75,336.22 0,0 0,0 0,0 -277.57,410.21 -1112.47,2329.38 -908.41,2764.99 0,0 0,0 0,0 40.18,66.02 19.28,152.07 -46.76,192.33 0,0 0,0 0,0 -65.96,40.16 -152.09,19.15 -192.28,-46.79zm1341.02 -3682.36c0,0 0,0 0,0 0,0 0,0 0,0 250.44,-329.67 537.34,-669.85 790.8,-925.17 0,0 0,0 0,0 -366.14,150.75 -1083.18,455.52 -1018.43,625.37 0,0 0,0 0,0 26.95,70.64 109.83,174.91 227.63,299.8zm1806.25 2220.11c0,0 0,0 0,0 0,0 0,0 0,0 -216.21,386.56 -329.87,842.27 -254.64,1212.98 0,0 0,0 0,0 121.95,601.19 509.73,753.21 739.32,583.28 0,0 0,0 0,0 107.47,-72.49 164.26,-199.13 180.8,-331.11 0,0 0,0 0,0 16.51,-131.95 -1.27,-405.36 -153.27,-629.11 0,0 0,0 0,0 -128.7,-269.69 -327.4,-576.53 -512.21,-836.04zm-5126.11 2392.12c-456.92,-52.98 -1899.33,-275.33 -1893.95,456.92 0,0 0,0 0,0 3.46,477.4 327.71,1021.87 581.56,1400.18 0,0 0,0 0,0 343.59,512.29 473.13,943.84 238.89,1538.53 0,0 0,0 0,0 -501.58,1273.3 -2048.46,981.1 -2017.88,-34.72 0,0 0,0 0,0 32.82,-1087.66 1585.14,-882.17 1318.11,-33.96 0,0 0,0 0,0 -101.45,322.19 -374.3,447.67 -681.89,311.3 0,0 0,0 0,0 -100.71,-44.66 -265.1,-543.46 137.03,-549.28 0,0 0,0 0,0 0,0 -60.93,25.48 -60.93,25.48 0,0 0,0 0,0 -213.97,99.34 -135.31,379.32 -45.21,448.56 0,0 0,0 0,0 0,0 118.95,31.09 118.95,31.09 0,0 0,0 0,0 400.45,60.58 591.56,-493.37 276.65,-727.38 0,0 0,0 0,0 -535.63,-397.74 -1177.11,346.69 -731.59,906.15 0,0 0,0 0,0 596.77,749.25 1752.95,-208.28 1522.85,-1175.77 0,0 0,0 0,0 -99.29,-417.4 -516.79,-818.79 -726.64,-1294.86 0,0 0,0 0,-0.01 -776.43,-1761.94 595.86,-1780.74 2003.96,-1638.55 0,0 0,0 0,0 92.83,10.97 159.23,95.2 148.23,188.14 0,0 0,0 0,0 -11,92.81 -95.25,159.16 -188.14,148.18zm116.36 43.79c-568.91,199.72 -2288.69,892.86 -2129.03,1669.39 0,0 0,0 0,0 66.04,321.11 577.22,1059.74 759.54,1417.65 0,0 0,0 0,0 230.84,453.16 600.74,1172.62 164.8,1613.74 0,0 0,0 0,0 -344.51,348.54 -1417.35,961.26 -976.46,1628.04 0,0 0,0 0,0 397.31,600.91 1509.86,576.63 1504.22,-305.54 0,0 0,0 0,0 -5.03,-790.04 -1077.57,-763.5 -1107.65,-20.52 0,0 0,0 0,0 -26.11,645.72 955.32,396.16 656.69,-88.19 0,0 0,0 0,0 -39.77,-64.46 -66.8,-77.67 -129.51,-103.89 0,0 0,0 0,0 65.86,-14.07 121.89,32.8 160.43,82.48 0,0 0,0 0,0 416.91,538.5 -805.64,936.65 -801.25,107.14 0,0 0,0 0,0 4.86,-914.51 1360.81,-970.64 1390.76,19.91 0,0 0,0 0,0 38.43,1275.54 -1826.87,1118.56 -1986.54,99.52 0,0 0,0 0,0 -116.05,-740.92 708.76,-1181.23 1105.76,-1594.95 0,0 0,0 0,0 316.82,-330.27 -58.03,-988.21 -227.63,-1309.57 0,0 0,0 0,0 -214.25,-406.25 -721.26,-1089.38 -806.22,-1480.51 0,0 0,0 0,0 -222.02,-1022.1 1557.07,-1779.88 2312.19,-2054.99 0,0 0,0 0,0 88.41,-30.3 184.81,16.81 215.16,105.23 0,0 0,0 0,0 30.33,88.44 -16.79,184.74 -105.26,215.06zm-628.24 8522.34c-455.17,-581.41 -1232.16,-1329.08 -2041.15,-1003.86 0,0 0,0 0,0 -119.45,48.03 -372.23,201.95 -474.62,261.8 0,0 0,0 0,0 159.54,-242.12 146.38,-279.96 387.32,-430.48 0,0 0,0 0,0 879.53,-549.61 1913.31,257.38 2487.25,890.85 0,0 0,0 0,0 77.8,99.11 60.5,242.44 -38.58,320.19 0,0 0,0 0,0 -99.04,77.8 -242.45,60.51 -320.22,-38.5zm-22.3 1110.89c-568.68,-185.72 -636.55,-307.21 -1086.84,-692.91 0,0 0,0 0,0 -355.73,-304.57 -495.13,-252.65 -929.8,-164.97 0,0 0,0 0,0 228.07,-164.24 419.49,-251.92 708.11,-165.71 0,0 0,0 0,0 439.72,131.34 635.3,560.14 1373.47,751.38 0,0 0,0 0,0 75.14,17.98 121.62,93.5 103.61,168.63 0,0 0,0 0,0 -17.98,75.16 -93.45,121.59 -168.55,103.58zm3451.91 73.79c-585.45,553.49 -356.49,1375 -908.79,2059.81 0,0 0,0 0,0 -385.6,478.23 -934.44,477.95 -1388.72,89 0,0 0,0 0,0 -895.7,-766.87 571.83,-2168.8 1123.49,-931.77 0,0 0,0 0,0 273.99,614.3 -560.68,955.57 -780.77,300.51 0,0 0,0 0,0 0,0 71.4,86.56 71.4,86.56 0,0 0,0 0,0 339.14,384.43 783.42,71.65 580.57,-324.36 0,0 0,0 0,0 -507.75,-991.59 -1582.52,266.58 -736.04,755.32 0,0 0,0 0,0 828.93,478.72 1118.59,-424.03 1265.45,-1079.9 0,0 0,0 0,0 125.07,-557.99 144.58,-805.64 565.13,-1222.12 0,0 0,0 0,0 73.71,-57.56 180.08,-44.38 237.61,29.36 0,0 0,0 0,0 57.54,73.71 44.4,180.06 -29.33,237.59zm166.14 -1176.76c-303.33,1065.13 -1162.05,1250.34 -2134.34,1445.14 0,0 0,0 0,0 -543.86,108.96 -1383.46,210.89 -1617.06,785.74 0,0 0,0 0,0 0,0 -89.92,263.68 -89.92,263.68 0,0 0,0 0,0 0,0 -30.43,-151.76 -30.43,-151.76 0,0 0,0 0,0 -39.32,-769.45 1091.49,-1045.59 1665.61,-1202.79 0,0 0,0 0,0 753.56,-206.41 1561.49,-377.75 1758.97,-1230.25 0,0 0,0 0,0 24.87,-123.47 145.24,-203.33 268.63,-178.46 0,0 0,0 0,0 123.5,24.89 203.43,145.21 178.54,268.7zm-428.98 -294.97c-567.74,33.4 -731.14,52 -1279.58,-138.71 0,0 0,0 0,0 -316.58,-110.11 -709.11,-206.88 -1020.57,-45.13 0,0 0,0 0,0 -384.07,199.62 -951.33,647.44 -1415.64,613.05 0,0 0,0 0,0 0,0 -157.43,-34.21 -157.43,-34.21 0,0 0,0 0,0 0,0 146.63,-53.24 146.63,-53.24 0,0 0,0 0,0 651.16,-220.52 748.59,-440.87 1280.75,-779.6 0,0 0,0 0,0 380.87,-242.45 868.52,-178.51 1285.21,-64.32 0,0 0,0 0,0 495.5,135.77 606.83,107.24 1115.26,48.21 0,0 0,0 0,0 125.3,-12.47 237.11,78.95 249.61,204.24 0,0 0,0 0,0 12.57,125.38 -78.84,237.14 -204.24,249.71zm1627.07 3233.07c-377.57,461.87 -1048.99,1292.2 -124.76,1586.56 0,0 0,0 0,0 655.57,208.76 745.92,-870.05 226.26,-762.51 0,0 0,0 0,0 -182.27,37.69 -213.77,256.23 -254.51,403.76 0,0 0,0 0,0 0,0 -40.08,-145.8 -40.08,-145.8 0,0 0,0 0,0 -55.14,-602.79 919.3,-582.98 875.64,144.4 0,0 0,0 0,0 -36.75,612.32 -579.73,827.2 -1094.51,606.17 0,0 0,0 0,0 -1048.92,-450.37 -404.83,-1494.89 56.46,-2118.41 0,0 0,0 0,0 78.95,-98.2 222.51,-113.77 320.63,-34.9 0,0 0,0 0,0 98.17,78.92 113.82,222.5 34.87,320.73zm506.25 -2658.62c-57.1,657.76 -1235.43,682.06 -1373.48,1353.49 0,0 0,0 0,0 -122.07,593.77 111.43,1051.43 -441.05,1466.47 0,0 0,0 0,0 0,0 -300.05,172.57 -300.05,172.57 0,0 0,0 0,0 0,-0.01 205.16,-269.55 205.16,-269.55 0,0 0,0 0,0 444.09,-595.27 132.51,-652.63 218.29,-1408.51 0,0 0,0 0,0 85.57,-753.59 1075.26,-1050.31 1235.12,-1311.07 0,0 0,0 0,0 1.93,-121.1 98.71,-220.44 221.01,-224.25 0,0 0,0 0,0 125.91,-3.89 231.14,94.94 235,220.85zm-453.54 -0.74c0,0 0,0 0,0 0,0 0,0 0,0 1.17,-1.98 2.33,-3.88 3.43,-5.87 0,0 0,0 0,0 0,0 -0.59,-0.99 -0.59,-0.99 0,0 0,0 0,0 -1.5,3.53 -2.31,5.44 -2.84,6.86zm860.85 -10181.63c-105.28,-344.65 488.19,-437.97 -33.45,-1089.66 0,0 0,0 0,0 0,0 -65.05,51 -65.05,51 0,0 0,0 0,0 355.5,181.21 -427.33,497.84 98.5,1038.66zm-1119.55 -1171.37c-105.29,-344.63 488.16,-438.02 -33.45,-1089.64 0,0 0,0 0,0 0,0 -65.05,50.98 -65.05,50.98 0,0 0,0 0,0 355.5,181.16 -427.33,497.82 98.5,1038.66zm-824.05 1497.84c-105.31,-344.55 488.16,-437.95 -33.51,-1089.61 0,0 0,0 0,0 0,0 -65,50.98 -65,50.98 0,0 0,0 0,0 355.45,181.17 -427.38,497.84 98.51,1038.63zm-534.37 -8c-77.7,-254.26 360.3,-323.19 -24.71,-804.07 0,0 0,0 0,0 0,0 -48.04,37.62 -48.04,37.62 0,0 0,0 0,0 262.44,133.73 -315.31,367.41 72.75,766.45zm653.54 -2153.24c-105.28,-344.65 488.14,-438.1 -33.47,-1089.63 0,0 0,0 0,0 0,0 -65.05,51 -65.05,51 0,0 0,0 0,0 355.49,181.15 -427.33,497.82 98.52,1038.63zm-2591.48 456.08c-105.31,-344.67 488.16,-437.97 -33.48,-1089.66 0,0 0,0 0,0 0,0 -65.02,51.01 -65.02,51.01 0,0 0,0 0,0 355.47,181.18 -427.36,497.86 98.5,1038.65zm1057.32 -41.47c-105.31,-344.61 488.17,-438 -33.47,-1089.66 0,0 0,0 0,0 0,0 -65.05,50.97 -65.05,50.97 0,0 0,0 0,0 355.49,181.21 -427.33,497.87 98.52,1038.69zm-197.46 1781.27c-74.98,-245.21 347.3,-311.65 -23.8,-775.28 0,0 0,0 0,0 0,0 -46.3,36.35 -46.3,36.35 0,0 0,0 0,0 252.93,128.88 -303.99,354.1 70.1,738.93zm3162.13 -2693.49c-105.29,-344.65 488.18,-437.95 -33.48,-1089.63 0,0 0,0 0,0 0,0 -65.05,51 -65.05,51 0,0 0,0 0,0 355.5,181.2 -427.31,497.81 98.53,1038.63zm-2550.47 598.45c-77.7,-254.36 360.2,-323.29 -24.71,-804.16 0,0 0,0 0,0 0,0 -48.06,37.69 -48.06,37.69 0,0 0,0 0,0 262.36,133.65 -315.32,367.33 72.77,766.47zm787.78 155.47c-77.7,-254.33 360.3,-323.26 -24.71,-804.16 0,0 0,0 0,0 0,0 -48.03,37.72 -48.03,37.72 0,0 0,0 0,0 262.35,133.63 -315.32,367.31 72.74,766.44zm-2643.58 940.69c-63.22,-206.78 292.84,-262.86 -20.09,-653.79 0,0 0,0 0,0 0,0 -39.07,30.58 -39.07,30.58 0,0 0,0 0,0 213.34,108.79 -256.41,298.73 59.16,623.21zm901.8 10.34c-63.17,-206.73 292.91,-262.79 -20.12,-653.72 0,0 0,0 0,0 0,0 -39.01,30.58 -39.01,30.58 0,0 0,0 0,0 213.36,108.69 -256.39,298.63 59.13,623.14zm1511.07 2263.5c74.88,-245.14 -347.32,-311.59 23.85,-775.24 0,0 0,0 0,0 0,0 46.26,36.32 46.26,36.32 0,0 0,0 0,0 -252.94,128.94 304.01,354.18 -70.11,738.92zm-1029.79 -2639.42c225.65,-121.59 -27.69,-465.73 562.15,-534.26 0,0 0,0 0,0 0,0 7.45,58.34 7.45,58.34 0,0 0,0 0,0 -270.46,-86.31 -33.07,465.58 -569.6,475.92zm735.97 -1648.15c225.73,-121.57 -27.69,-465.84 562.2,-534.34 0,0 0,0 0,0 0,0 7.39,58.34 7.39,58.34 0,0 0,0 0,0 -270.46,-86.31 -32.99,465.61 -569.59,476zm-1447.88 -759.08c255.65,-19.51 163.83,-436.91 730.78,-260.05 0,0 0,0 0,0 0,0 -17.01,56.29 -17.01,56.29 0,0 0,0 0,0 -212.15,-188.65 -219.16,412.14 -713.77,203.76zm-196.95 466.39c255.65,-19.43 163.8,-436.9 730.76,-260.02 0,0 0,0 0,0 0,0 -16.95,56.36 -16.95,56.36 0,0 0,0 0,0 -212.19,-188.69 -219.22,412.07 -713.81,203.66zm3491.25 -1007.36c248.39,63.47 295.18,-361.39 775.49,-12.17 0,0 0,0 0,0 0,0 -34.14,47.93 -34.14,47.93 0,0 0,0 0,0 -140.43,-246.74 -339.65,320.12 -741.35,-35.76zm1399.62 348.87c-69.67,-228.05 323.11,-289.87 -22.17,-721.16 0,0 0,0 0,0 0,0 -43.03,33.78 -43.03,33.78 0,0 0,0 0,0 235.3,119.84 -282.88,329.49 65.2,687.38zm-1591.77 386.43c-69.7,-228.17 323.07,-289.96 -22.15,-721.26 0,0 0,0 0,0 0,0 -43.07,33.79 -43.07,33.79 0,0 0,0 0,0 235.3,119.93 -282.76,329.48 65.22,687.47zm-4890.39 2963.57c-172.01,316.66 -654.55,-41.25 -753.82,787.53 0,0 0,0 0,0 0,0 81.99,10.67 81.99,10.67 0,0 0,0 0,0 -119.91,-380.6 654.54,-44.05 671.83,-798.2zm119.76 -304.75c55.55,-282.27 508.59,-124.71 386.49,-779.75 0,0 0,0 0,0 0,0 -65.05,11.4 -65.05,11.4 0,0 0,0 0,0 182.2,261.34 -488.16,189.66 -321.44,768.35zm-243.25 -1220.62c256.06,13.51 218.69,-412.22 758.11,-163.85 0,0 0,0 0,0 0,0 -24.08,53.64 -24.08,53.64 0,0 0,0 0,0 -186.03,-214.33 -270.35,380.49 -734.03,110.21zm372.29 -573.4c251.02,52.14 278.53,-374.32 774.14,-47.2 0,0 0,0 0,0 0,0 -31.9,49.41 -31.9,49.41 0,0 0,0 0,0 -151.52,-240.09 -324.85,335.1 -742.24,-2.21zm604.87 -451.13c226.54,120.01 371.86,-281.94 756.69,170.33 0,0 0,0 0,0 0,0 -44.4,38.53 -44.4,38.53 0,0 0,0 0,0 -78.61,-272.77 -405.41,231.34 -712.29,-208.86zm1020.29 3225.87c-74.87,-245.16 347.32,-311.63 -23.8,-775.21 0,0 0,0 0,0 0,0 -46.3,36.25 -46.3,36.25 0,0 0,0 0,0 252.93,128.88 -304.01,354.18 70.1,738.96zm577.52 -115.34c137.55,216.38 -251.79,392.86 229.44,740.94 0,0 0,0 0,0 0,0 34.98,-47.37 34.98,-47.37 0,0 0,0 0,0 -278.16,-56.84 198.68,-422.27 -264.42,-693.57zm-2658.77 1751c-172.08,316.64 -654.63,-41.25 -753.82,787.53 0,0 0,0 0,0 0,0 81.99,10.69 81.99,10.69 0,0 0,0 0,0 -119.91,-380.67 654.54,-44.07 671.83,-798.22zm-491.16 -579.4c-113.48,208.87 -431.77,-27.23 -497.23,519.46 0,0 0,0 0,0 0,0 54.13,7.03 54.13,7.03 0,0 0,0 0,0 -79.09,-251.03 431.8,-29.08 443.1,-526.49zm5024.53 -2546.55c225.25,281.28 -291.59,587.53 434.04,1000.05 0,0 0,0 0,0 0,0 41.58,-71.43 41.58,-71.43 0,0 0,0 0,0 -397.34,-36.85 212.92,-620.55 -475.62,-928.62zm1410.28 -2298.98c179.84,156.74 -120.75,417.02 400.44,600.25 0,0 0,0 0,0 0,0 18.72,-51.41 18.72,-51.41 0,0 0,0 0,0 -263.2,22.73 65.6,-429.21 -419.16,-548.84zm4584.04 3764.96c293.1,-614.8 -472.28,-2228.62 -767.53,-2817.31 0,0 0,0 0,0 -81.99,-163.55 -228.04,-390.96 -405.51,-637.9 0,0 0,0 0,0 185.06,-196.82 315.74,-369.82 340.81,-492.81 0,0 0,0 0,0 102.06,-501.8 -1187.12,-893.6 -1591.2,-1089.89 0,0 0,0 -0.01,0 -158.21,-76.86 -394.2,-285.16 -539.08,-221.79 0,0 0,0 0,0 -294.34,128.8 202.99,492.05 291.44,551.48 0,0 0,0 0,0 359.15,241.28 781.73,759.54 1126.26,1230.58 0,0 0,0 0,0 -492.28,475.11 -1254.53,1109.3 -1517.22,1437.29 0,0 0,0 0,0 -22,27.53 -45.21,56.87 -69.27,87.86 0,0 0,0 0,0 -154.66,-196.8 -334.31,-357.89 -528.01,-457.41 0,0 0,0 0,0 -59.64,-30.65 -73.21,-29 -137.67,-25.7 0,0 0,0 0,0 -76.96,7.19 -133.5,75.46 -126.24,152.32 0,0 0,0 0,0 6.86,73.81 69.85,128.78 142.83,126.9 0,0 0,0 0,0 171.34,102.24 332.2,257.23 469.74,441.71 0,0 0,0 0,0 -237.23,324.66 -505.61,734.31 -653.06,1083.61 0,0 0,0 0,0 82.07,119.84 142.17,243.13 177.63,353.93 0,0 0,0 0,0 0.91,-4.07 1.57,-8.11 2.49,-12.25 0,0 0,0 0,0 69.34,-317.88 367.56,-795.4 636.27,-1172.87 0,0 0,0 0,0 216.2,386.56 329.94,842.27 254.73,1212.98 0,0 0,0 0,0 -159.59,786.54 -774.06,804.21 -894.18,337.87 0,0 0,0 0,0 -45.62,96.72 -126.03,195.48 -202.79,246.58 0,0 0,0 0,0 293.9,545.85 1164.1,489.99 1371.16,-528.42 0,0 0,0 0,0 92.28,-453.95 -59.36,-1044.78 -345.92,-1517.37 0,0 0,0 0,0 43.49,-57.05 83.97,-108.89 120.02,-153.85 0,0 0,0 0,0 260.35,-324.81 962.58,-894.15 1465.07,-1382.29 0,0 0,0 0,0 85.88,121.89 164.06,236.12 231.82,336.22 0,0 0,0 0.01,0 277.57,410.21 1112.46,2329.38 908.3,2764.99 0,0 0,0 0,0 -40.18,66.02 -19.2,152.07 46.76,192.33 0,0 0,0 0,0 66.07,40.16 152.1,19.15 192.35,-46.79zm-1341.09 -3682.36c0,0 0,0 0,0 0,0 0,0 0,0 -250.34,-329.67 -537.34,-669.85 -790.83,-925.17 0,0 0,0 0,0 366.17,150.75 1083.21,455.52 1018.57,625.37 0,0 0,0 0,0 -26.93,70.64 -109.93,174.91 -227.74,299.8zm3319.86 4612.23c456.92,-52.98 1899.41,-275.33 1894.05,456.92 0,0 0,0 0,0 -3.56,477.4 -327.81,1021.87 -581.59,1400.18 0,0 0,0 0,0 -343.56,512.29 -473.17,943.84 -238.93,1538.53 0,0 0,0 0,0 501.62,1273.3 2048.51,981.1 2017.87,-34.72 0,0 0,0 0,0 -32.76,-1087.66 -1585.18,-882.17 -1318.1,-33.96 0,0 0,0 0,0 101.42,322.19 374.34,447.67 681.89,311.3 0,0 0,0 0,0 100.66,-44.66 265.07,-543.46 -136.96,-549.28 0,0 0,0 0,0 0,0 60.86,25.48 60.86,25.48 0,0 0,0 0,0 213.97,99.34 135.28,379.32 45.18,448.56 0,0 0,0 0,0 0,0 -118.94,31.09 -118.94,31.09 0,0 0,0 0,0 -400.49,60.58 -591.55,-493.37 -276.56,-727.38 0,0 0,0 0,0 535.53,-397.74 1177.01,346.69 731.49,906.15 0,0 0,0 0,0 -596.74,749.25 -1752.95,-208.28 -1522.8,-1175.77 0,0 0,0 0,0 99.34,-417.4 516.84,-818.79 726.59,-1294.86 0,0 0,0 0,-0.01 776.48,-1761.94 -595.86,-1780.74 -2003.88,-1638.55 0,0 0,0 0,0 -92.91,10.97 -159.28,95.2 -148.21,188.14 0,0 0,0 0,0 10.97,92.81 95.12,159.16 188.04,148.18zm-116.39 43.79c568.94,199.72 2288.72,892.86 2129.03,1669.39 0,0 0,0 0,0 -66.04,321.11 -577.16,1059.74 -759.41,1417.65 0,0 0,0 0,0 -230.86,453.16 -600.73,1172.62 -164.82,1613.74 0,0 0,0 0,0 344.5,348.54 1417.27,961.26 976.48,1628.04 0,0 0,0 0,0 -397.33,600.91 -1509.85,576.63 -1504.24,-305.54 0,0 0,0 0,0 4.98,-790.04 1077.49,-763.5 1107.59,-20.52 0,0 0,0 0,0 26.11,645.72 -955.34,396.16 -656.71,-88.19 0,0 0,0 0,0 39.85,-64.46 66.9,-77.67 129.51,-103.89 0,0 0,0 0,0 -65.86,-14.07 -121.92,32.8 -160.35,82.48 0,0 0,0 0,0 -416.92,538.5 805.59,936.65 801.17,107.14 0,0 0,0 0,0 -4.78,-914.51 -1360.81,-970.64 -1390.65,19.91 0,0 0,0 0,0 -38.53,1275.54 1826.87,1118.56 1986.45,99.52 0,0 0,0 0,0 116.13,-740.92 -708.78,-1181.23 -1105.68,-1594.95 0,0 0,0 0,0 -316.92,-330.27 58.01,-988.21 227.53,-1309.57 0,0 0,0 0,0 214.33,-406.25 721.26,-1089.38 806.25,-1480.51 0,0 0,0 0,0 221.99,-1022.1 -1557.07,-1779.88 -2312.19,-2054.99 0,0 0,0 0,0 -88.44,-30.3 -184.79,16.81 -215.09,105.23 0,0 0,0 0,0 -30.4,88.44 16.72,184.74 105.13,215.06zm628.27 8522.34c455.25,-581.41 1232.13,-1329.08 2041.17,-1003.86 0,0 0,0 0,0 119.46,48.03 372.29,201.95 474.6,261.8 0,0 0,0 0,0 -159.51,-242.12 -146.35,-279.96 -387.3,-430.48 0,0 0,0 0,0 -879.55,-549.61 -1913.25,257.38 -2487.27,890.85 0,0 0,0 0,0 -77.8,99.11 -60.5,242.44 38.61,320.19 0,0 0,0 0,0 99.09,77.8 242.44,60.51 320.19,-38.5zm22.41 1110.89c568.68,-185.72 636.44,-307.21 1086.84,-692.91 0,0 0,0 0,0 355.65,-304.57 495.02,-252.65 929.69,-164.97 0,0 0,0 0,0 -228.04,-164.24 -419.48,-251.92 -708.03,-165.71 0,0 0,0 0,0 -439.82,131.34 -635.35,560.14 -1373.58,751.38 0,0 0,0 0,0 -75.11,17.98 -121.49,93.5 -103.53,168.63 0,0 0,0 0,0 17.93,75.16 93.4,121.59 168.61,103.58zm-3452.02 73.79c585.45,553.49 356.49,1375 908.81,2059.81 0,0 0,0 0,0 385.65,478.23 934.39,477.95 1388.67,89 0,0 0,0 0,0 895.73,-766.87 -571.8,-2168.8 -1123.46,-931.77 0,0 0,0 0,0 -273.92,614.3 560.78,955.57 780.77,300.51 0,0 0,0 0,0 0,0 -71.33,86.56 -71.33,86.56 0,0 0,0 0,0 -339.21,384.43 -783.41,71.65 -580.64,-324.36 0,0 0,0 0,0 507.85,-991.59 1582.52,266.58 736.12,755.32 0,0 0,0 0,0 -829.03,478.72 -1118.57,-424.03 -1265.53,-1079.9 0,0 0,0 0,0 -124.97,-557.99 -144.58,-805.64 -565.13,-1222.12 0,0 0,0 0,0 -73.71,-57.56 -180.06,-44.38 -237.61,29.36 0,0 0,0 0,0 -57.54,73.71 -44.38,180.06 29.33,237.59zm-166.06 -1176.76c303.3,1065.13 1162,1250.34 2134.31,1445.14 0,0 0,0 0,0 543.81,108.96 1383.51,210.89 1617.06,785.74 0,0 0,0 0,0 0,0 89.97,263.68 89.97,263.68 0,0 0,0 0,0 0,0 30.33,-151.76 30.33,-151.76 0,0 0,0 0,0 39.32,-769.45 -1091.49,-1045.59 -1665.5,-1202.79 0,0 0,0 0,0 -753.6,-206.41 -1561.62,-377.75 -1759.08,-1230.25 0,0 0,0 0,0 -24.87,-123.47 -145.14,-203.33 -268.63,-178.46 0,0 0,0 0,0 -123.5,24.89 -203.41,145.21 -178.46,268.7zm428.9 -294.97c567.74,33.4 731.24,52 1279.58,-138.71 0,0 0,0 0,0 316.58,-110.11 709.22,-206.88 1020.57,-45.13 0,0 0,0 0,0 384.17,199.62 951.41,647.44 1415.62,613.05 0,0 0,0 0,0 0,0 157.48,-34.21 157.48,-34.21 0,0 0,0 0,0 0,0 -146.64,-53.24 -146.64,-53.24 0,0 0,0 0,0 -651.07,-220.52 -748.61,-440.87 -1280.77,-779.6 0,0 0,0 0,0 -380.87,-242.45 -868.45,-178.51 -1285.21,-64.32 0,0 0,0 0,0 -495.48,135.77 -606.86,107.24 -1115.26,48.21 0,0 0,0 0,0 -125.3,-12.47 -237.04,78.95 -249.61,204.24 0,0 0,0 0,0 -12.55,125.38 78.94,237.14 204.24,249.71zm-1627 3233.07c377.6,461.87 1048.92,1292.2 124.67,1586.56 0,0 0,0 0,0 -655.55,208.76 -745.87,-870.05 -226.24,-762.51 0,0 0,0 0,0 182.27,37.69 213.77,256.23 254.51,403.76 0,0 0,0 0,0 0,0 40.18,-145.8 40.18,-145.8 0,0 0,0 0,0 55.04,-602.79 -919.3,-582.98 -875.74,144.4 0,0 0,0 0,0 36.78,612.32 579.83,827.2 1094.51,606.17 0,0 0,0 0,0 1049,-450.37 404.85,-1494.89 -56.36,-2118.41 0,0 0,0 0,0 -78.94,-98.2 -222.51,-113.77 -320.73,-34.9 0,0 0,0 0,0 -98.17,78.92 -113.71,222.5 -34.8,320.73zm-506.32 -2658.62c57.13,657.76 1235.43,682.06 1373.48,1353.49 0,0 0,0 0,0 122.07,593.77 -111.35,1051.43 441.05,1466.47 0,0 0,0 0,0 0,0 300.05,172.57 300.05,172.57 0,0 0,0 0,0 0,-0.01 -205.08,-269.55 -205.08,-269.55 0,0 0,0 0,0 -444.17,-595.27 -132.59,-652.63 -218.37,-1408.51 0,0 0,0 0,0 -85.54,-753.59 -1075.28,-1050.31 -1235.12,-1311.07 0,0 0,0 0,0 -1.88,-121.1 -98.68,-220.44 -220.93,-224.25 0,0 0,0 0,0 -125.96,-3.89 -231.19,94.94 -235.08,220.85zm453.52 -0.74c0,0 0,0 0,0 0,0 0,0 0,0 -1.07,-1.98 -2.31,-3.88 -3.41,-5.87 0,0 0,0 0,0 0,0 0.69,-0.99 0.69,-0.99 0,0 0,0 0,0 1.4,3.53 2.24,5.44 2.72,6.86zm-860.76 -10181.63c105.21,-344.65 -488.26,-437.97 33.48,-1089.66 0,0 0,0 0,0 0,0 65.05,51 65.05,51 0,0 0,0 0,0 -355.6,181.21 427.33,497.84 -98.53,1038.66zm-618.61 9631.72c-785.45,299.21 -785.45,710.67 -486.26,1458.77 0,0 0,0 0,0 299.21,748.11 561.08,785.55 579.75,1309.2 0,0 0,0 0,0 18.8,523.69 -168.27,710.74 -168.27,710.74 0,0 0,0 0,0 0,0 0,-860.35 -355.32,-1122.2 0,0 0,0 0,0 -355.35,-261.87 -879.07,-635.86 -766.9,-1215.69 0,0 0,0 0,0 112.24,-579.76 785.57,-1421.44 1197,-1140.82zm617.22 280.55c355.32,486.23 93.54,1028.62 -130.94,1664.48 0,0 0,0 0,0 -224.44,635.97 -56.11,804.24 -37.36,1290.5 0,0 0,0 0,0 18.69,486.26 -505.03,766.78 -505.03,766.78 0,0 0,0 0,0 0,0 822.91,-130.81 916.48,-916.39 0,0 0,0 0,0 93.47,-785.54 -18.69,-1253.05 168.28,-1571.04 0,0 0,0 0,0 187.04,-317.95 280.51,-561.03 280.51,-766.77 0,0 0,0 0,0 0,-205.72 -691.94,-467.56 -691.94,-467.56zm-570.18 -8032.86c-101.1,-331.03 468.91,-420.72 -32.16,-1046.58 0,0 0,0 0,0 0,0 -62.41,49.02 -62.41,49.02 0,0 0,0 0,0 341.45,173.97 -410.46,478.06 94.57,997.56zm-614.89 -226.06c-52.37,-250.95 374.15,-278.96 46.46,-774.21 0,0 0,0 0,0 0,0 -49.43,31.95 -49.43,31.95 0,0 0,0 0,0 240.29,151.18 -334.72,325.17 2.97,742.26zm1718.34 -262.91c-163.83,-197.26 200.02,-421.57 -321.36,-705.89 0,0 0,0 0,0 0,0 -28.68,51.3 -28.68,51.3 0,0 0,0 0,0 283.08,21.26 -143.66,444.12 350.04,654.59z"/>
 </g>
</svg>
