<?xml version="1.0" encoding="UTF-8"?>
<!DOCTYPE svg PUBLIC "-//W3C//DTD SVG 1.1//EN" "http://www.w3.org/Graphics/SVG/1.1/DTD/svg11.dtd">
<!-- Creator: CorelDRAW 2020 (64-Bit) -->
<svg xmlns="http://www.w3.org/2000/svg" xml:space="preserve" width="176.069mm" height="176.07mm" version="1.1" style="shape-rendering:geometricPrecision; text-rendering:geometricPrecision; image-rendering:optimizeQuality; fill-rule:evenodd; clip-rule:evenodd"
viewBox="0 0 17600.96 17601.01"
 xmlns:xlink="http://www.w3.org/1999/xlink"
 xmlns:xodm="http://www.corel.com/coreldraw/odm/2003">
 <defs>
  <style type="text/css">
   <![CDATA[
    .str0 {stroke:#333333;stroke-width:7.62;stroke-linejoin:bevel;stroke-miterlimit:22.9256}
    .fil0 {fill:#373435}
   ]]>
  </style>
 </defs>
 <g id="Layer_x0020_1">
  <metadata id="CorelCorpID_0Corel-Layer"/>
  <path class="fil0 str0" d="M17095.49 9892.24c-14.98,117.43 -46.34,201.25 -93.37,268.33 0,0 0,0 0,0 -45.65,67.34 -100.88,118.94 -159.49,173.09 0,0 0,0 0,0 -32.04,29.05 -64.06,58.84 -96.1,91.41 0,0 0,0 0,0 -32.71,32.46 -66.79,67.42 -97.46,107.61 0,0 0,0 0,0 -10.9,-49.38 -25.21,-94.13 -42.94,-136.09 0,0 0,0 0,0 -18.41,-42.18 -38.85,-81.25 -58.6,-118.81 0,0 0,0 0,0 -36.14,-69.86 -70.9,-133.83 -91.34,-207.04 0,0 0,0 0,0 -18.4,-73.01 -29.3,-155.88 -16.37,-263.97 0,0 0,0 0,0 12.95,-108.09 47.02,-185.26 84.53,-250.94 0,0 0,0 0,0 38.16,-65.59 87.24,-118.68 140.41,-176.8 0,0 0,0 0,0 55.17,-62.51 119.95,-130.26 164.25,-220.38 0,0 0,0 0,0 40.88,93.8 86.53,169.51 134.93,242.04 0,0 0,0 0,0 42.94,67.54 83.84,131.55 110.42,208.28 0,0 0,0 0,0 27.93,76.81 34.76,165.75 21.1,283.27zm-562.96 2110.78c-43.62,110.14 -102.91,180.05 -162.2,234.18 0,0 0,0 0,0 -60.66,53.5 -125.41,89.84 -196.96,126.63 0,0 0,0 0,0 -77.72,38.73 -160.88,78.79 -240.61,140.9 0,0 0,0 0,0 4.09,-101.5 -12.95,-189.88 -29.3,-271.62 0,0 0,0 0,0 -16.35,-76.8 -34.79,-148.44 -36.13,-224.78 0,0 0,0 0,0 -2.72,-76.94 15,-157.03 54.51,-258.38 0,0 0,0 0,0 79.06,-202.55 198.35,-268.47 327.14,-354.8 0,0 0,0 0,0 70.21,-45.8 145.88,-95.98 216.06,-170.19 0,0 0,0 0,0 10.92,99.91 40.22,186.47 67.49,268.79 0,0 0,0 0,0 52.49,154.26 86.56,288.67 0,509.28zm-797.41 -330.42c-110.43,254.85 -62.03,437.21 -30.7,600.66 0,0 0,0 0,0 31.36,151.11 59.31,288.24 -55.18,481.12 0,0 0,0 0,0 -27.95,48.44 -56.57,88.01 -85.89,120.71 0,0 0,0 0,0 -29.97,32.78 -63.38,56.98 -95.43,77.82 0,0 0,0 0,0 -66.09,41.24 -134.92,64.96 -207.88,89.35 0,0 0,0 0,0 -39.51,13.16 -79.72,26.92 -121.98,42.59 0,0 0,0 0,0 -42.28,15.28 -85.19,33.29 -128.15,56.72 0,0 0,0 0,0 -42.92,23.51 -85.87,52.41 -128.13,89.69 0,0 0,0 0,0 -21.12,18.6 -42.26,39.36 -62.69,62.51 0,0 0,0 0,0 -21.81,22.22 -43.63,46.82 -65.44,74.27 0,0 0,0 0,0 -169.03,220.98 -176.52,403.36 -184.01,573.34 0,0 0,0 0,0 -2.75,78.78 -8.89,150.34 -33.42,223.21 0,0 0,0 0,0 -23.84,73.01 -66.12,147.42 -143.13,228.47 0,0 0,0 0,0 -81.1,77.13 -155.37,119.26 -228.32,143.31 0,0 0,0 0,0 -72.92,24.27 -144.47,30.47 -223.54,33.21 0,0 0,0 0,0 -169.71,7.49 -352.38,15.26 -573.21,184.22 0,0 0,0 0,0 -27.25,21.6 -51.77,43.37 -74.27,65.31 0,0 0,0 0,0 -23.18,20.64 -43.62,41.49 -62.72,62.56 0,0 0,0 0,0 -36.79,42.1 -66.12,84.99 -89.27,127.93 0,0 0,0 0,0 -23.87,43.01 -41.57,86.15 -56.57,128.76 0,0 0,0 0,0 -15.66,41.9 -29.99,82.04 -42.94,121.78 0,0 0,0 0,0 -24.56,73.13 -48.4,141.91 -89.28,207.55 0,0 0,0 0,0 -21.15,32.42 -44.99,65.84 -77.72,95.42 0,0 0,0 0,0 -32.71,29.58 -72.24,58.35 -120.64,86.23 0,0 0,0 0,0 -192.84,114.16 -330.54,86.13 -481.17,55.17 0,0 0,0 0,0 -163.56,-31.41 -346.23,-79.85 -600.45,30.75 0,0 0,0 -0.01,0 -130.18,50.5 -217.4,118.4 -284.88,189.15 0,0 0,0 0,0 -68.18,68.23 -115.86,143.33 -161.55,214.08 0,0 0,0 0,0 -83.13,133.17 -163.56,240.86 -378.94,302.08 0,0 0,0 0,0 -53.16,16.19 -101.54,22.62 -146.53,22.67 0,0 0,0 0,0 -44.3,0.69 -84.5,-3.89 -122.69,-12.14 0,0 0,0 0,0 -74.95,-16.42 -140.39,-47.71 -209.23,-81.38 0,0 0,0 0,0 -74.98,-38.77 -154.05,-82.31 -247.42,-108.85 0,0 0,0 0,0 -47.02,-13.33 -97.48,-22.67 -153.34,-25.54 0,0 0,0 0,0 -56.57,-3.53 -118.6,-4.9 -187.44,4.37 0,0 0,0 0,0 -69.53,8.79 -129.5,23.92 -182.64,43.68 0,0 0,0 0,0 -53.17,19.77 -99.54,39.26 -141.79,64.54 0,0 0,0 0,0 -83.81,49.29 -149.25,110.35 -211.28,167.69 0,0 0,0 0,0 -115.86,104.48 -220.83,187.21 -445.06,194.08 0,0 0,0 0,0 -223.54,-6.88 -328.52,-89.6 -444.38,-194.08 0,0 0,0 0,0 -62.03,-57.34 -127.46,-118.4 -211.28,-167.69 0,0 0,0 0,0 -42.26,-25.28 -88.62,-44.76 -141.76,-64.54 0,0 0,0 0,0 -53.17,-19.68 -113.14,-34.89 -182.67,-43.68 0,0 0,0 0,0 -68.83,-9.27 -130.84,-7.9 -186.75,-4.37 0,0 0,0 0,0 -56.57,2.92 -107,12.27 -154.03,25.64 0,0 0,0 0,0 -93.39,26.44 -172.43,70.04 -247.42,108.75 0,0 0,0 0,0 -68.84,33.75 -134.24,64.96 -209.22,81.46 0,0 0,0 0,0 -38.17,8.25 -78.38,12.75 -122.7,12.14 0,0 0,0 0,0 -44.3,-0.13 -93.36,-6.48 -146.53,-22.7 0,0 0,0 0,0 -215.37,-61.22 -295.78,-168.9 -378.94,-302.06 0,0 0,0 0,0 -45.67,-70.77 -93.39,-145.85 -161.54,-214.1 0,0 0,0 0,0 -67.47,-70.75 -154.72,-138.61 -284.89,-189.12 0,0 0,0 0,0 -254.22,-110.68 -436.88,-62.19 -600.46,-30.75 0,0 0,0 0,0 -151.31,30.88 -288.29,58.96 -481.2,-55.25 0,0 0,0 0,0 -48.39,-27.88 -87.9,-56.57 -120.63,-86.23 0,0 0,0 0,0 -32.71,-29.58 -56.55,-62.92 -77.69,-95.35 0,0 0,0 -0.01,0 -41.56,-65.71 -64.74,-134.41 -89.27,-207.55 0,0 0,0 0,0 -12.96,-39.81 -27.25,-79.95 -42.94,-121.8 0,0 0,0 0,0 -15,-42.66 -32.71,-85.75 -56.57,-128.76 0,0 0,0 0,0 -23.16,-42.92 -52.49,-85.8 -89.28,-127.9 0,0 0,0 0,0 -19.09,-21.07 -39.54,-41.93 -62.72,-62.59 0,0 0,0 0,0 -22.49,-21.94 -47.02,-43.68 -74.29,-65.24 0,0 0,0 0,0 -220.83,-168.92 -403.46,-176.69 -573.16,-184.21 0,0 0,0 0,0 -79.09,-2.75 -150.65,-8.94 -223.57,-33.19 0,0 0,0 0,0 -72.93,-24.07 -147.22,-66.2 -228.32,-143.33 0,0 0,0 0,0 -77,-80.97 -119.26,-155.48 -143.13,-228.45 0,0 0,0 0,0 -24.52,-72.88 -30.67,-144.42 -33.41,-223.21 0,0 0,0 0,0 -7.5,-169.92 -14.98,-352.3 -184.02,-573.42 0,0 0,0 0,0 -21.78,-27.37 -43.6,-52 -65.41,-74.21 0,0 0,0 0,0 -20.46,-23.16 -41.59,-43.91 -62.72,-62.57 0,0 0,0 0,0 -42.25,-37.22 -85.21,-66.17 -128.12,-89.68 0,0 0,0 0,0 -42.97,-23.46 -85.9,-41.44 -128.84,-56.72 0,0 0,0 0,0 -41.57,-15.67 -81.79,-29.51 -121.32,-42.59 0,0 0,0 0,0 -73.59,-24.4 -141.76,-48.14 -207.88,-89.35 0,0 0,0 0,0 -32.02,-20.85 -65.41,-45.12 -95.43,-77.85 0,0 0,0 0,0 -29.3,-32.75 -57.91,-72.32 -85.87,-120.76 0,0 0,0 0,0 -114.49,-192.82 -86.53,-329.96 -55.2,-481.04 0,0 0,0 0,0 31.36,-163.44 79.75,-345.83 -30.67,-600.62 0,0 0,0 0,0 -50.43,-129.83 -118.58,-216.79 -189.48,-284.48 0,0 0,0 0,0 -68.15,-68.48 -143.1,-115.86 -214,-161.59 0,0 0,0 0,0 -132.89,-83.41 -240.58,-163.29 -301.93,-378.74 0,0 0,0 0,0 -16.37,-53.57 -22.49,-102.1 -22.49,-146.74 0,0 0,0 0,0 -0.69,-44.5 3.4,-84.73 11.58,-122.41 0,0 0,0 0,0 16.35,-75.43 47.7,-140.66 81.81,-209.45 0,0 0,0 0,0 38.85,-74.95 82.44,-153.95 108.34,-247.6 0,0 0,0 0,0 13.64,-46.89 23.18,-97.56 25.92,-153.57 0,0 0,0 0,0 3.41,-56.09 4.75,-118.25 -4.11,-187.36 0,0 0,0 0,0 -8.87,-69.2 -24.53,-129.15 -44.28,-182.24 0,0 0,0 0,0 -19.78,-53.17 -38.85,-100.07 -64.06,-141.91 0,0 0,0 -0.01,0 -49.76,-83.89 -110.42,-149.13 -167.68,-211.72 0,0 0,0 0,0 -104.93,-115.3 -187.41,-220.47 -194.24,-444.42 0,0 0,0 0,0 6.84,-223.9 89.31,-329.05 194.24,-444.38 0,0 0,0 0,0 57.26,-62.49 117.92,-127.72 167.69,-211.64 0,0 0,0 0,0 25.21,-41.85 44.27,-88.66 64.06,-141.81 0,0 0,0 0,0 19.75,-53.16 35.42,-113.09 44.28,-182.26 0,0 0,0 0,0 8.86,-69.12 7.52,-131.22 4.11,-187.36 0,0 0,0 0,0 -2.74,-55.97 -12.29,-106.59 -25.92,-153.5 0,0 0,0 0,0 -25.9,-93.72 -69.5,-172.68 -108.34,-247.67 0,0 0,0 0,0 -34.11,-68.79 -65.46,-134.01 -81.81,-209.38 0,0 0,0 0,0 -8.18,-37.71 -12.27,-77.97 -12.27,-122.41 0,0 0,0 0,0 0.69,-44.63 6.81,-93.24 23.18,-146.76 0,0 0,0 0,0 61.35,-215.5 169.03,-295.3 301.93,-378.79 0,0 0,0 0,0 70.9,-45.67 145.85,-93.11 214,-161.59 0,0 0,0 0,-0.01 70.9,-67.69 138.38,-154.66 189.48,-284.48 0,0 0,0 0,0 110.42,-254.85 62.03,-437.23 30.67,-600.74 0,0 0,0 0,0 -31.33,-151.05 -59.29,-288.16 55.2,-481.04 0,0 0,0 0,0 27.96,-48.47 56.57,-88 85.87,-120.79 0,0 0,0 0,0 30.02,-32.73 63.41,-56.97 95.43,-77.82 0,0 0,0 0,0 66.12,-41.24 134.29,-64.9 207.88,-89.35 0,0 0,0 0,0 39.53,-13.08 79.75,-26.86 121.32,-42.61 0,0 0,0 0,0 42.94,-15.21 85.87,-33.19 128.84,-56.62 0,0 0,0 0,0 42.91,-23.54 85.87,-52.48 128.12,-89.71 0,0 0,0 0.01,0 21.12,-18.61 41.56,-39.34 62.71,-62.49 0,0 0,0 0,0 21.81,-22.22 43.63,-46.89 64.73,-74.29 0,0 0,0 0,0 169.03,-221.04 177.2,-403.42 184.7,-573.34 0,0 0,0 0,0 2.74,-78.87 8.89,-150.35 32.73,-223.19 0,0 0,0 0,0 24.55,-73.03 66.81,-147.52 143.81,-228.49 0,0 0,0 0,0 81.1,-77.19 155.4,-119.32 228.32,-143.31 0,0 0,0 0,0 72.93,-24.25 144.48,-30.55 222.86,-33.19 0,0 0,0 0,0 170.4,-7.52 352.38,-15.33 573.87,-184.24 0,0 0,0 0,0 27.27,-21.58 51.8,-43.35 74.29,-65.28 0,0 0,0 0,0 23.18,-20.67 43.63,-41.52 62.03,-62.57 0,0 0,0 0,0 37.48,-42.13 66.81,-84.98 89.97,-128 0,0 0,0 0,0 23.18,-42.97 41.57,-86.1 56.57,-128.69 0,0 0,0 0,0 15.68,-41.92 29.3,-82.06 42.94,-121.8 0,0 0,0 0,0 24.53,-73.21 47.71,-141.91 89.28,-207.6 0,0 0,0 0,0 20.46,-32.45 44.98,-65.77 77.69,-95.35 0,0 0,0 0,0 32.73,-29.63 72.24,-58.4 120.63,-86.23 0,0 0,0 0.01,0 192.89,-114.21 329.88,-86.15 481.19,-55.27 0,0 0,0 0,0 163.57,31.48 345.55,79.95 600.46,-30.65 0,0 0,0 0,0 130.19,-50.58 216.74,-118.45 284.89,-189.22 0,0 0,0 0,0 68.15,-68.21 115.86,-143.28 161.54,-214.08 0,0 0,0 0,0 83.16,-133.12 162.88,-240.86 378.26,-302.08 0,0 0,0 0,0 53.85,-16.15 102.25,-22.55 147.21,-22.63 0,0 0.01,0 0.01,0 44.3,-0.68 84.52,3.89 122,12.07 0,0 0,0 0,0 75.66,16.5 141.07,47.73 209.91,81.45 0,0 0,0 0,0 74.98,38.73 154.03,82.32 247.42,108.78 0,0 0,0 0,0 47.02,13.36 97.46,22.74 153.37,25.64 0,0 0,0 0,0 56.57,3.53 118.58,4.9 187.41,-4.37 0,0 0,0 0.01,0 69.52,-8.81 129.49,-23.99 182.66,-43.7 0,0 0,0 0,0 53.14,-19.75 99.51,-39.26 141.76,-64.55 0,0 0,0 0,0 83.82,-49.28 149.25,-110.35 211.28,-167.73 0,0 0,0 0,0 115.86,-104.48 220.84,-187.22 444.38,-194.04 0,0 0,0 0,0 224.23,6.84 329.2,89.56 444.4,194.04 0,0 0,0 0,0 62.69,57.38 128.13,118.45 211.94,167.66 0,0 0,0 0,0 41.6,25.36 88.62,44.86 141.79,64.62 0,0 0,0 0,0 53.14,19.7 113.11,34.81 181.95,43.63 0,0 0,0 0,0 69.53,9.27 131.56,7.97 187.45,4.36 0,0 0,0 0,0 55.88,-2.87 106.99,-12.21 154.02,-25.56 0,0 0,0 0,0 93.37,-26.46 172.43,-70.06 247.42,-108.85 0,0 0,0 0,0 68.84,-33.65 134.27,-64.96 209.23,-81.38 0,0 0,0 0,0 37.5,-8.26 78.38,-12.8 122.69,-12.14 0,0 0,0 0,0 44.3,0.15 93.37,6.48 146.53,22.62 0,0 0,0 0,0 215.38,61.3 295.13,168.98 378.94,302.11 0,0 0,0 0,0 45.68,70.79 92.71,145.82 161.55,214.13 0,0 0,0 0,0 67.49,70.69 154.71,138.56 284.2,189.12 0,0 0,0 0,0 254.9,110.62 437.57,62.18 601.14,30.75 0,0 0,0 0.01,0 150.62,-30.93 288.31,-58.94 481.16,55.27 0,0 0,0 0,0 48.4,27.83 87.93,56.6 120.64,86.15 0,0 0,0 0,0 32.73,29.59 56.57,62.98 77.72,95.43 0,0 0,0 0,0 40.88,65.64 64.72,134.39 89.28,207.55 0,0 0,0 0,0 12.95,39.71 26.58,79.85 42.94,121.78 0,0 0,0 0,0 15,42.61 32.7,85.74 56.57,128.76 0,0 0,0 0,0 23.15,42.94 52.48,85.8 89.27,127.85 0,0 0,0 0,0 19.1,21.07 39.54,42 62.72,62.64 0,0 0,0 0,0 22.5,21.88 47.02,43.63 74.27,65.23 0,0 0,0 0,0 220.83,168.95 403.49,176.73 573.21,184.22 0,0 0,0 0,0 79.07,2.67 150.63,8.94 223.54,33.21 0,0 0,0 0,0 72.96,23.97 147.22,66.1 228.32,143.26 0,0 0,0 0,0 77.01,81.02 119.29,155.52 143.13,228.52 0,0 0,0 0,0 24.53,72.88 30.67,144.35 33.42,223.21 0,0 0,0 0,0 7.49,169.92 14.97,352.28 184.01,573.34 0,0 0,0 0,0 21.81,27.45 43.63,52.05 65.44,74.27 0,0 0,0 0,0 20.43,23.18 41.57,43.9 62.69,62.51 0,0 0,0 0,0 42.26,37.28 84.53,66.25 128.13,89.68 0,0 0,0 0,0.01 42.96,23.53 85.87,41.51 128.15,56.72 0,0 0,0 0,0 42.26,15.74 82.47,29.5 121.98,42.66 0,0 0,0 0,0 72.96,24.4 141.79,48.11 207.88,89.35 0,0 0,0 0,0 32.05,20.85 65.46,45.04 95.43,77.82 0,0 0,0 0,0 29.32,32.79 57.94,72.32 85.89,120.79 0,0 0,0 0,0 114.49,192.79 85.88,329.94 55.18,481.04 0,0 0,0.01 0,0.01 -31.33,163.44 -79.73,345.75 30.7,600.58 0,0 0,0 0,0 50.42,129.78 118.58,216.82 189.47,284.48 0,0 0,0 0,0 68.16,68.44 143.11,115.86 214,161.6 0,0 0,0 0,0 132.92,83.43 240.59,163.23 301.93,378.76 0,0 0,0 0,0 16.35,53.5 22.5,102.08 22.5,146.74 0,0 0,0 0,0 0.68,44.43 -3.4,84.7 -11.58,122.41 0,0 0,0 0,0 -17.04,75.36 -47.71,140.59 -81.79,209.43 0,0 0,0 0,0 -38.85,74.9 -82.47,153.9 -109.05,247.62 0,0 0,0 0,0 -12.95,46.87 -22.49,97.53 -25.21,153.54 0,0 0,0 0,0 -3.43,56.12 -4.78,118.2 4.06,187.37 0,0 0,0 0,0 8.89,69.2 23.87,129.09 43.65,182.26 0,0 0,0 0,0 19.76,53.17 39.52,100 64.75,141.89 0,0 0,0 0,0 49.08,83.86 110.4,149.15 167.66,211.64 0,0 0,0 0,0 104.25,115.4 187.42,220.47 194.24,444.45 0,0 0,0 0,0 -6.83,223.95 -89.99,329.05 -194.24,444.37 0,0 0,0 0,0 -57.26,62.52 -118.58,127.8 -167.66,211.64 0,0 0,0 0,0 -25.23,41.9 -44.98,88.74 -64.75,141.89 0,0 0,0 0,0 -19.77,53.09 -34.76,113.06 -43.65,182.26 0,0 0,0 0,0 -8.84,69.12 -7.49,131.2 -4.06,187.29 0,0 0,0 0,0 2.72,56.01 12.27,106.66 25.21,153.54 0,0 0,0 0,0 26.58,93.72 70.21,172.74 109.05,247.65 0,0 0,0 0,0 34.08,68.84 64.75,133.96 81.79,209.43 0,0 0,0 0,0 8.18,37.68 12.26,77.9 11.58,122.39 0,0 0,0 0,0 0,44.65 -6.15,93.18 -22.5,146.76 0,0 0,0 0,0 -61.34,215.45 -169,295.3 -301.93,378.73 0,0 0,0 0,0 -70.89,45.73 -145.84,93.17 -214,161.6 0,0 0,0 0,0 -70.89,67.75 -139.04,154.74 -189.47,284.56zm-163.59 1730.62c3.42,79.6 5.46,154.64 -10.9,234.03 0,0 0,0 0,0 -16.35,79.02 -47.71,164.53 -122.67,256.48 0,0 0,0 0,0 -72.95,93.03 -143.81,148.87 -214.71,185.87 0,0 0,0 0,0 -72.93,35.57 -147.22,51.59 -226.29,68.63 0,0 0,0 0,0 -84.5,17.8 -172.4,37.36 -265.79,76.25 0,0 0,0 0,0 30.67,-96.49 34.76,-188.59 38.85,-272.28 0,0 0,0 0,0 4.09,-78.5 7.52,-150.21 26.58,-223.94 0,0 0,0 0,0 17.04,-75.26 50.43,-151.54 117.23,-237.13 0,0 0,0 0,0 68.84,-84.43 130.16,-139.37 197.65,-175.97 0,0 0,0 0,0 66.81,-36.94 136.3,-57.58 212.63,-80.76 0,0 0,0 0,0 81.12,-25.01 164.25,-55.84 250.16,-109.87 0,0 0,0 0,0 -14.3,100 -5.46,193.07 -2.74,278.7zm-1423.09 1593.97c-17.04,78.43 -33.39,153.06 -68.84,226.01 0,0 0,0 0,0 -36.82,71.15 -92.71,141.63 -186.07,214.66 0,0 0,0 0,0 -91.34,74.64 -177.21,106.33 -256.28,122.77 0,0 0,0 0,0 -79.04,16.01 -154.71,14.04 -233.75,11.17 0,0 0,0 0,0 -85.87,-3.32 -179.26,-11.86 -278.78,2.31 0,0 0,0 0,0 53.86,-86.07 84.51,-169 109.74,-250.18 0,0 0,0 0,0 23.16,-75.84 43.63,-145.93 80.42,-212.73 0,0 0,0 0,0 36.82,-67.27 92.02,-128.33 176.52,-197.24 0,0 0,0 0,0 85.18,-67.34 161.52,-100.66 237.18,-117.69 0,0 0,0 0,0 73.61,-18.89 145.16,-22.37 223.54,-26.05 0,0 0,0 0,0 83.84,-4.57 175.86,-8.53 272.63,-39.18 0,0 0,0 0,0 -38.83,93.57 -58.63,181.29 -76.32,266.15zm-1784.33 1176.31c-36.79,71.35 -73.61,136.14 -126.78,196.88 0,0 0,0 0,0 -53.83,59.36 -124.04,118.25 -234.44,161.8 0,0 0,0 0,0 -220.15,86.51 -354.44,52.91 -509.15,0.15 0,0 0,0 0,0 -82.44,-26.99 -169.03,-56.16 -268.51,-67.34 0,0 0,0 0,0 74.26,-70.21 124.04,-145.57 170.37,-215.93 0,0 0,0 0,0 85.87,-128.61 151.99,-248.16 354.41,-327.22 0,0 0,0 0,0 101.57,-39.92 181.32,-57.59 258.31,-54.8 0,0 0,0 0,0 76.35,1.38 147.9,19.7 224.94,36.55 0,0 0,0 0,0 81.75,16.42 169.68,33.39 271.23,29.3 0,0 0,0 0,0 -62.01,79.75 -102.21,162.5 -140.39,240.61zm-1939.03 572.91c-32.73,31.89 -62.04,64.47 -91.34,96.03 0,0 0,0 0,0 -53.83,58.88 -105.65,113.9 -173.11,159.41 0,0 0,0 0,0 -66.79,47.17 -150.63,78.79 -268.52,93.39 0,0 0,0 0,0 -117.23,14.05 -206.53,7.09 -282.86,-20.51 0,0 0,0 0,0 -77,-27.19 -141.07,-67.54 -208.56,-111.01 0,0 0,0 0,0 -72.24,-47.78 -147.91,-93.52 -241.96,-134.77 0,0 0,0 0,0 89.96,-43.96 158.12,-108.67 220.15,-164.31 0,0 0,0 0,0 58.6,-52.94 111.77,-102.23 177.21,-140.26 0,0 0,0 0,0 65.43,-37.63 142.44,-71.5 250.81,-84.37 0,0 0,0 0,0 108.36,-13.31 190.84,-2.46 263.76,16.27 0,0 0,0 0,0 73.62,20.46 137.67,54.82 207.2,91.54 0,0 0,0 0,0 37.48,19.7 77.01,39.97 118.6,58.47 0,0 0,0 0,0 42.26,17.67 87.24,31.77 136.3,42.49 0,0 0,0 0,0 -40.23,30.95 -74.98,64.8 -107.68,97.66zm-2224.62 217.35c-67.47,43.43 -131.56,83.77 -208.57,110.96 0,0 0,0 0,0 -76.32,27.6 -165.6,34.56 -282.83,20.51 0,0 0,0 0,0 -117.92,-14.6 -201.73,-46.13 -268.54,-93.31 0,0 0,0 0,0 -67.47,-45.52 -119.26,-100.61 -173.12,-159.41 0,0 0,0 0,0 -29.3,-31.64 -58.6,-64.14 -91.33,-96.04 0,0 0,0 0,0 -32.71,-32.85 -67.47,-66.73 -107.68,-97.73 0,0 0,0 0,0 49.08,-10.72 94.05,-24.81 136.29,-42.41 0,0 0,0 0,0 42.26,-18.53 81.13,-38.85 118.61,-58.48 0,0 0,0 0,0 69.52,-36.74 133.58,-71.15 207.19,-91.53 0,0 0,0 0,0 72.93,-18.81 155.4,-29.66 263.77,-16.27 0,0 0,0 0,0 108.36,12.8 185.38,46.66 250.81,84.29 0,0 0,0 0,0 65.41,38.04 118.58,87.32 177.2,140.26 0,0 0,0 0,0 62.01,55.64 130.19,120.36 220.15,164.31 0,0 0,0 0,0 -94.07,41.26 -169.69,86.99 -241.95,134.82zm-2093.07 -431.42c-154.05,52.81 -289,86.43 -509.12,-0.08 0,0 0,0 0,0 -110.43,-43.55 -180.64,-102.43 -234.47,-161.8 0,0 0,0 0,0 -53.16,-60.73 -89.98,-125.53 -126.78,-196.9 0,0 0,0 0,0 -38.85,-78.15 -78.38,-160.91 -140.41,-240.66 0,0 0,0 0,0 100.88,4.09 189.47,-12.83 271.28,-29.3 0,0 0,0 0,0 77.01,-16.76 148.57,-35.1 224.89,-36.47 0,0 0,0 0,0 77.03,-2.79 156.77,14.85 258.33,54.79 0,0 0,0 0,0 202.42,79.07 268.54,198.61 355.07,327.22 0,0 0,0 0,0 45.68,70.34 95.43,145.72 169.72,215.94 0,0 0,0 0,0 -99.51,11.17 -186.05,40.35 -268.52,67.26zm-1909.73 -960.45c-79.75,2.79 -154.71,4.83 -233.8,-11.2 0,0 0,0 0,0 -79.05,-16.4 -164.92,-48.04 -256.25,-122.67 0,0 0,0 0,0 -93.37,-73.06 -149.25,-143.61 -186.07,-214.69 0,0 0,0 0,0 -35.43,-72.93 -51.8,-147.57 -68.84,-226 0,0 0,0 0,0 -17.72,-84.86 -37.48,-172.64 -76.32,-266.15 0,0 0,0 0,0 96.76,30.59 188.78,34.63 272.63,39.18 0,0 0,0 0,0 78.37,3.71 149.93,7.19 223.54,25.97 0,0 0,0 0,0 75.63,17.11 151.99,50.45 237.18,117.77 0,0 0,0 0,0 84.5,68.91 139.72,129.9 175.86,197.18 0,0 0,0 0,0 37.48,66.81 57.92,136.86 81.1,212.71 0,0 0,0 0,0 25.21,81.12 55.86,164.12 109.71,250.21 0,0 0,0 0,0 -100.2,-14.17 -192.87,-5.66 -278.75,-2.31zm-1593.51 -1423.52c-79.05,-16.96 -153.35,-33.04 -226.26,-68.64 0,0 0,0 0,0 -70.9,-36.99 -141.76,-92.8 -214.69,-185.86 0,0 0,0 0,0 -74.98,-91.95 -106.34,-177.54 -122.69,-256.53 0,0 0,0 0,0 -16.35,-79.4 -14.3,-154.43 -11.59,-234.06 0,0 0,0 0,0 3.41,-85.59 12.27,-178.7 -2.05,-278.67 0,0 0,0 0,0 85.87,54.03 169.02,84.83 250.13,109.86 0,0 0,0 0,0 75.66,23.16 145.85,43.81 212.66,80.74 0,0 0,0 0,0 67.46,36.67 128.81,91.54 197.64,176.07 0,0 0,0 0,0 66.81,85.59 100.2,161.87 117.23,237.1 0,0 0,0 0,0 19.09,73.76 22.5,145.44 26.59,223.95 0,0 0,0 0,0 4.09,83.79 8.17,175.79 38.85,272.3 0,0 0,0 0,0 -93.37,-38.85 -181.3,-58.48 -265.82,-76.27zm-870.34 -2139.88c-1.37,76.27 -19.78,147.88 -36.11,224.68 0,0 0,0 0,0 -16.37,81.69 -33.42,170.07 -29.33,271.62 0,0 0,0 0,0 -79.75,-62.09 -162.88,-102.18 -240.58,-140.95 0,0 0,0 0,0 -71.56,-36.72 -136.32,-73.05 -196.96,-126.5 0,0 0,0 0,0 -59.31,-54.11 -118.6,-124.04 -162.22,-234.11 0,0 0,0 0,0 -86.56,-220.68 -52.48,-355.02 0,-509.25 0,0 0,0 0,0 27.27,-82.42 56.57,-168.95 67.49,-268.82 0,0 0,0 0,0 70.21,74.21 145.83,124.39 216.04,170.17 0,0 0,0 0,0 128.15,86.36 248.1,152.27 327.14,354.77 0,0 0,0 0,0 39.54,101.34 57.28,181.37 54.54,258.38zm-781.75 -1475.57c-30.67,-40.25 -64.75,-75.18 -97.48,-107.63 0,0 0,0 0,0 -32.02,-32.58 -64.72,-62.36 -96.08,-91.39 0,0 0,0 0,0 -58.63,-54.21 -113.8,-105.77 -159.36,-173.14 0,0 0,0 0,0 -47.1,-67.06 -78.71,-150.88 -93.29,-268.39 0,0 0,0 0,0 -14.05,-117.48 -7.16,-206.43 20.49,-283.26 0,0 0,0 0,0 27.19,-76.78 67.54,-140.79 110.83,-208.34 0,0 0,0 0,0 47.71,-72.52 93.39,-148.23 134.95,-242.03 0,0 0,0 0,0 43.6,90.04 108.37,157.86 164.25,220.35 0,0 0,0 0,0 53.14,58.15 102.23,111.32 140.39,176.88 0,0 0,0 0,0 37.48,65.69 71.58,142.85 84.5,250.99 0,0 0,0 0,0 12.95,108.11 2.06,191 -16.32,263.99 0,0 0,0 0,0 -20.46,73.18 -55.23,137.19 -92.02,207.04 0,0 0,0 0,0 -19.09,37.58 -39.54,76.6 -57.94,118.81 0,0 0,0 0,0 -17.72,42 -32.05,86.68 -42.95,136.12zm-425.76 -2540.89c-27.6,-76.73 -34.49,-165.68 -20.44,-283.19 0,0 0,0 0,0 14.5,-117.41 46.13,-201.25 93.29,-268.31 0,0 0,0 0,0 45.55,-67.34 100.73,-118.94 159.36,-173.12 0,0 0,0 0,0 31.36,-29.1 64.06,-58.83 96.08,-91.46 0,0 0,0 0,0 32.73,-32.37 66.81,-67.34 97.48,-107.55 0,0 0,0 0,0 10.9,49.35 25.22,94.05 42.95,136.12 0,0 0,0 0,0 18.4,42.1 38.85,81.22 57.94,118.7 0,0 0,0 0,0 36.79,69.96 71.56,133.94 92.02,207.14 0,0 0,0 0,0 18.38,72.93 29.27,155.86 16.32,263.97 0,0 0,0 0,0 -12.93,108.09 -47.02,185.26 -84.5,250.86 0,0 0,0 0,0 -38.17,65.59 -87.25,118.68 -140.39,176.88 0,0 0,0 0,0 -55.88,62.49 -120.66,130.24 -164.25,220.35 0,0 0,0 0,0 -41.57,-93.77 -87.24,-169.51 -134.95,-242.08 0,0 0,0 0,0 -43.3,-67.47 -83.64,-131.48 -110.88,-208.31zm542.31 -2394.03c43.63,-110.07 102.92,-180.08 162.22,-234.11 0,0 0,0 0,0 60.64,-53.52 125.41,-89.84 196.96,-126.66 0,0 0,0 0,0 77.69,-38.72 160.83,-78.78 240.58,-140.87 0,0 0,0 0,0 -4.09,101.5 12.3,189.89 29.33,271.54 0,0 0,0 0,0 16.32,76.88 34.74,148.52 36.11,224.84 0,0 0,0 0,0 2.74,76.96 -15,157.05 -54.54,258.38 0,0 0,0 0,0 -79.04,202.49 -198.99,268.46 -327.14,354.82 0,0 0,0 0,0 -70.87,45.72 -145.83,95.96 -216.04,170.17 0,0 0,0 0,0 -11.6,-99.92 -40.22,-186.48 -67.49,-268.87 0,0 0,0 0,0 -52.48,-154.18 -86.56,-288.57 0,-509.25zm960.32 -1400.22c-2.71,-79.52 -4.77,-154.58 11.59,-233.98 0,0 0,0 0,0 16.34,-78.99 47.7,-164.61 122.69,-256.47 0,0 0,0 0,0 72.93,-93.01 143.13,-148.85 214.69,-185.84 0,0 0,0 0,0 72.92,-35.61 147.21,-51.67 225.59,-68.72 0,0 0,0 0,0 85.19,-17.72 173.12,-37.35 266.49,-76.19 0,0 0,0 0,0 -30.68,96.51 -34.76,188.53 -39.54,272.27 0,0 0,0 0,0 -3.4,78.51 -6.81,150.22 -25.9,223.95 0,0 0,0 0,0 -17.03,75.26 -50.42,151.54 -117.89,237.13 0,0 0,0 0,0 -68.84,84.45 -129.53,139.37 -196.98,175.99 0,0 0,0 0,0 -66.81,36.92 -136.99,57.58 -212.66,80.69 0,0 0,0 0,0 -81.1,25.06 -164.25,55.81 -250.13,109.86 0,0 0,0 0,0 14.32,-99.99 5.46,-193.02 2.05,-278.7zm1423.78 -1593.89c17.03,-78.53 32.7,-153.16 68.84,-226.06 0,0 0,0 0,0 36.82,-71.1 92.7,-141.63 185.41,-214.71 0,0 0,0 0,0 91.99,-74.62 177.86,-106.26 256.91,-122.69 0,0 0,0 0,0 79.09,-15.99 154.05,-14.05 233.8,-11.23 0,0 0,0 0,0 85.87,3.33 178.55,11.91 278.75,-2.34 0,0 0,0 0,0 -53.85,86.11 -84.5,169.11 -109.71,250.22 0,0 0,0 0,0 -23.18,75.94 -43.63,146 -81.1,212.73 0,0 0,0 0,0 -36.14,67.26 -91.36,128.33 -175.86,197.23 0,0 0,0 0,0 -85.87,67.35 -161.55,100.66 -237.18,117.77 0,0 0,0 0,0 -73.62,18.81 -145.17,22.34 -223.54,25.95 0,0 0,0 0,0 -83.85,4.65 -175.87,8.61 -272.63,39.28 0,0 0,0 0,0 38.85,-93.57 58.6,-181.32 76.32,-266.15zm1784.32 -1176.38c36.8,-71.36 72.93,-136.1 126.78,-196.91 0,0 0,0 0,0 53.83,-59.29 124.04,-118.17 233.76,-161.8 0,0 0,0 0,0 220.83,-86.48 355.1,-52.81 509.83,-0.05 0,0 0,0 0,0 81.76,26.99 168.35,56.09 268.52,67.32 0,0 0,0 0,0 -74.29,70.13 -124.7,145.59 -170.38,215.88 0,0 0,0 0,0 -85.87,128.58 -151.99,248.23 -354.41,327.27 0,0 0,0 0,0 -101.57,39.89 -181.3,57.51 -258.33,54.74 0,0 0,0 0,0 -76.32,-1.29 -147.88,-19.7 -224.89,-36.49 0,0 0,0 0,0 -81.81,-16.47 -170.4,-33.39 -271.94,-29.3 0,0 0,0 0,0 62.69,-79.73 102.23,-162.48 141.07,-240.66zm1939.04 -572.86c32.04,-31.89 62.03,-64.47 91.33,-96.03 0,0 0,0 0,0 53.86,-58.89 105.65,-113.96 173.12,-159.49 0,0 0,0 0,0 66.81,-47.07 150.62,-78.71 267.85,-93.29 0,0 0,0 0,0 117.92,-14.05 206.51,-7.09 283.52,20.51 0,0 0,0 0,0 77.01,27.17 141.1,67.55 208.57,110.96 0,0 0,0 0,0 72.26,47.83 147.88,93.49 241.95,134.8 0,0 0,0 0,0 -89.96,43.96 -158.14,108.7 -220.15,164.3 0,0 0,0 0,0 -58.62,52.97 -111.79,102.26 -177.2,140.26 0,0 0,0 0,0 -65.44,37.66 -143.13,71.51 -250.81,84.32 0,0 0,0 0,0 -108.37,13.37 -190.85,2.52 -264.45,-16.22 0,0 0,0 0,0 -72.93,-20.43 -136.99,-54.84 -206.51,-91.53 0,0 0,0 0,0 -37.48,-19.7 -77.01,-40 -119.27,-58.56 0,0 0,0 0,0 -41.59,-17.56 -86.55,-31.68 -135.63,-42.38 0,0 0,0 0,0 40.22,-30.92 74.97,-64.87 107.68,-97.68zm2224.62 -217.33c67.49,-43.42 131.56,-83.79 208.56,-110.96 0,0 0,0 0,0 76.33,-27.7 165.63,-34.56 282.86,-20.51 0,0 0,0 0,0 117.21,14.5 201.73,46.13 268.52,93.29 0,0 0,0 0,0 67.46,45.52 118.57,100.55 173.11,159.43 0,0 0,0 0,0 29.3,31.54 58.61,64.12 91.34,96.01 0,0 0,0 0,0 32.7,32.81 67.46,66.76 107.68,97.69 0,0 0,0 0,0 -49.77,10.69 -94.05,24.8 -136.3,42.45 0,0 0,0 0,0 -42.28,18.56 -81.12,38.81 -118.6,58.48 0,0 0,0 0,0 -70.21,36.77 -134.27,71.1 -207.2,91.54 0,0 0,0 0,0 -72.93,18.81 -156.08,29.66 -263.76,16.29 0,0 0,0 0,0 -108.37,-12.82 -185.39,-46.66 -250.81,-84.32 0,0 0,0 0,0 -66.1,-38.01 -118.61,-87.29 -177.21,-140.26 0,0 0,0 0,0 -62.69,-55.6 -130.19,-120.35 -220.15,-164.3 0,0 0,0 0,0 93.39,-41.32 169.72,-86.97 241.96,-134.8zm2093.06 431.35c154.05,-52.74 288.32,-86.44 509.15,0.12 0,0 0,0 0,0 110.4,43.5 179.93,102.44 234.44,161.8 0,0 0,0 0,0 53.17,60.74 89.99,125.56 126.78,196.91 0,0 0,0 0,0 38.19,78.17 78.38,160.93 140.39,240.61 0,0 0,0 0,0 -101.55,-4.04 -189.48,12.88 -271.23,29.35 0,0 0,0 0,0 -77.04,16.78 -148.59,35.12 -224.94,36.49 0,0 0,0 0,0 -76.99,2.72 -156.75,-14.92 -258.31,-54.82 0,0 0,0 0,0 -202.42,-79.04 -268.54,-198.61 -355.1,-327.19 0,0 0,0 0,0 -45.64,-70.37 -96.08,-145.8 -169.68,-215.93 0,0 0,0 0,0 99.48,-11.18 186.07,-40.43 268.51,-67.34zm1909.76 960.52c79.04,-2.87 154,-4.85 233.75,11.1 0,0 0,0 0,0 79.07,16.43 164.26,48.11 256.28,122.77 0,0 0,0 0,0 93.36,73.06 149.25,143.51 186.07,214.69 0,0 0,0 0,0 35.45,72.85 51.79,147.47 68.84,225.93 0,0 0,0 0,0 17.69,84.9 37.5,172.63 76.32,266.2 0,0 0,0 0,0 -96.77,-30.65 -188.79,-34.61 -272.63,-39.18 0,0 0,0 0,0 -78.38,-3.68 -149.94,-7.22 -224.23,-26.03 0,0 0,0 0,0 -74.97,-17.11 -151.31,-50.37 -236.49,-117.71 0,0 0,0 0,0 -84.5,-68.92 -139.7,-129.91 -176.52,-197.16 0,0 0,0 0,0 -36.8,-66.81 -57.26,-136.86 -80.42,-212.73 0,0 0,0 0,0 -25.23,-81.1 -55.88,-164.1 -109.74,-250.22 0,0 0,0 0,0 99.52,14.2 192.9,5.67 278.78,2.34zm1593.46 1423.45c78.38,17.03 153.37,33.11 226.29,68.68 0,0 0,0 0,0 70.9,37.03 141.76,92.84 214.71,185.87 0,0 0,0 0,0 74.27,91.94 106.31,177.49 122.67,256.48 0,0 0,0 0,0 15.66,79.39 14.32,154.51 10.9,234.1 0,0 0,0 0,0 -2.72,85.62 -11.56,178.71 2.74,278.7 0,0 0,0 0,0 -85.9,-54.05 -169.03,-84.85 -250.16,-109.86 0,0 0,0 0,0 -76.32,-23.18 -145.82,-43.83 -212.63,-80.77 0,0 0,0 0,0 -67.5,-36.67 -128.82,-91.61 -197.65,-176.04 0,0 0,0 0,0 -67.46,-85.59 -100.19,-161.95 -117.91,-237.13 0,0 0,0 0,0 -18.38,-73.73 -21.81,-145.44 -25.9,-223.95 0,0 0,0 0,0 -4.09,-83.76 -8.18,-175.78 -38.85,-272.35 0,0 0,0 0,0 93.39,38.91 181.29,58.53 265.79,76.28zm870.37 2139.95c1.34,-76.27 19.77,-147.9 36.13,-224.71 0,0 0,0 0,0 16.35,-81.73 33.39,-170.12 29.3,-271.59 0,0 0,0 0,0 79.73,62.06 162.88,102.16 240.61,140.85 0,0 0,0 0,0 71.56,36.74 136.3,73.08 196.96,126.58 0,0 0,0 0,0 59.29,54.05 118.58,124.04 161.52,234.1 0,0 0,0 0,0 86.56,220.64 53.17,355.05 0.68,509.28 0,0 0,0 0,0 -27.27,82.34 -56.57,168.88 -67.49,268.82 0,0 0,0 0,0 -70.18,-74.24 -145.85,-124.42 -216.06,-170.19 0,0 0,0 0,0 -128.79,-86.36 -248.08,-152.25 -327.14,-354.82 0,0 0,0 0,0 -40.2,-101.29 -57.23,-181.38 -54.51,-258.31zm781.06 1475.57c31.36,40.23 65.44,75.16 98.15,107.63 0,0 0,0 0,0 32.04,32.58 64.06,62.29 96.1,91.39 0,0 0,0 0,0 58.61,54.18 113.83,105.77 159.49,173.11 0,0 0,0 0,0 47.02,67.07 78.38,150.88 93.37,268.34 0,0 0,0 0,0 13.66,117.51 6.83,206.51 -21.1,283.32 0,0 0,0 0,0 -26.58,76.72 -67.49,140.79 -110.42,208.36 0,0 0,0 0,0 -48.4,72.52 -94.06,148.23 -134.93,242.01 0,0 0,0 0,0 -44.3,-90.09 -109.08,-157.84 -164.25,-220.36 0,0 0,0 0,0 -53.17,-58.19 -102.26,-111.28 -140.41,-176.87 0,0 0,0 0,0 -37.51,-65.69 -71.59,-142.85 -84.53,-250.99 0,0 0,0 0,0 -12.93,-108.09 -2.03,-190.97 16.37,-263.97 0,0 0,0 0,0 20.44,-73.21 55.2,-137.21 91.34,-207.12 0,0 0,0 0,0 19.75,-37.5 40.19,-76.55 58.6,-118.75 0,0 0,0 0,0 17.72,-41.98 32.04,-86.77 42.25,-136.1zm653.63 2637.51c-4.77,-63.25 -21.12,-119.74 -37.5,-170.6 0,0 0,0 0,0 -35.43,-101.75 -85.17,-181.63 -132.22,-255.23 0,0 0,0 0,0 -88.62,-136.17 -173.12,-249.04 -166.29,-479.34 0,0 0,0 0,0 -6.83,-230.3 77.67,-343.24 166.29,-479.42 0,0 0,0 0,0 47.04,-73.61 96.79,-153.49 132.22,-255.23 0,0 0,0 0,0 16.37,-50.86 32.73,-107.35 37.5,-170.6 0,0 0,0 0,0 4.75,-63.25 3.4,-133.74 -6.81,-212.71 0,0 0,0 0,0 -10.23,-78.94 -25.23,-147.7 -47.73,-207.27 0,0 0,0 0,0 -23.84,-59.49 -51.11,-110.4 -80.41,-155.19 0,0 0,0 0,0 -59.97,-89.43 -127.44,-154.11 -192.87,-213.07 0,0 0,0 0,0 -62.03,-53.98 -119.29,-103.26 -167.65,-166.89 0,0 0,0 0,0 -24.53,-31.84 -46.34,-67.37 -66.13,-108.85 0,0 0,0 0,0 -18.4,-41.67 -35.44,-89.07 -51.79,-144.42 0,0 0,-0.01 0,-0.01 -62.72,-221.71 -11.58,-352.43 36.11,-506.2 0,0 0,0 0,0 27.27,-83.61 55.91,-174.06 64.06,-281.97 0,0 0,0 0,0 6.15,-106.79 -11.56,-229.81 -70.18,-378.25 0,0 0,0 0,0 -59.98,-147.55 -141.1,-244.34 -218.78,-316.25 0,0 0,0 0,0 -78.38,-72.32 -164.96,-114.76 -244.01,-154.43 0,0 -0.01,0 -0.01,0 -146.53,-72.88 -267.16,-133.17 -384.4,-331.59 0,0 0,0 0,0 -28.61,-50.07 -49.07,-96.23 -63.37,-140 0,0 0,0 0,0 -14.33,-43.73 -25.9,-83.34 -31.36,-123.08 0,0 0,0 0,0 -10.92,-78.91 -5.44,-154.1 -0.69,-235.81 0,0 0,0 0,0 2.74,-44.11 5.46,-90.52 4.78,-138.3 0,0 0,0 0,0 -2.04,-47.3 -6.81,-96.9 -17.72,-149.33 0,0 0,0 0,0 -10.9,-52.33 -27.93,-107.55 -53.86,-165.88 0,0 0,0 0,0 -12.92,-29.17 -27.93,-59.16 -45.65,-89.91 0,0 0,0 0,0 -19.06,-29.83 -40.88,-60.46 -65.43,-91.71 0,0 0,0 0,0 -194.24,-253.84 -397.36,-298.28 -567.73,-335.63 0,0 0,0 0,0 -78.38,-17.92 -153.37,-31.08 -227.63,-61.19 0,0 0,0 0,0 -74.98,-30.35 -148.59,-77.5 -228.34,-161.02 0,0 0,0 0,0 -83.13,-79.57 -130.85,-153.46 -160.86,-227.88 0,0 0,0 0,0 -29.99,-74.7 -42.92,-149.84 -61.32,-227.91 0,0 0,0 0,0 -37.51,-170.05 -81.79,-373.3 -335.33,-567.68 0,0 0,0 0,0 -31.35,-24.53 -62.05,-46.16 -92.01,-65.18 0,0 0,0 -0.01,0 -30.67,-17.69 -60.68,-32.83 -89.98,-45.78 0,0 0,0 0,0 -57.92,-25.82 -113.14,-42.86 -165.6,-53.82 0,0 0,0 0,0 -52.48,-10.93 -102.26,-15.9 -149.28,-17.75 0,0 0,0 0,0 -47.68,-1.07 -94.05,2.13 -138.33,4.72 0,0 0,0 0,0 -81.81,5.11 -156.77,10.5 -235.83,-0.88 0,0 0,0 0,0 -39.51,-5.31 -79.07,-16.5 -122.67,-30.88 0,0 0,0 0,0 -44.3,-14.38 -89.99,-34.89 -140.41,-63.66 0,0 0,0 0,0 -198.33,-117.43 -258.99,-238.02 -331.26,-384.55 0,0 0,0 0,0 -40.2,-78.79 -82.44,-165.6 -154.71,-243.58 0,0 0,0 0,0 -72.25,-78.18 -169.03,-158.96 -316.25,-219.34 0,0 0,0 0,0 -148.56,-58.2 -271.23,-76.19 -378.25,-69.98 0,0 0,0 0,0 -108.37,8.51 -198.33,36.95 -282.17,63.99 0,0 0,0 0,0 -154,47.55 -284.21,99.23 -506.39,36.31 0,0 0,0 0,0 -55.22,-16.68 -102.25,-33.52 -144.5,-52.2 0,0 0,0 0,0 -40.91,-19.15 -77.01,-41.17 -108.36,-65.49 0,0 0,0 0,0 -64.07,-48.52 -113.12,-106.18 -166.97,-168.27 0,0 0,0 0,0 -59.29,-64.95 -124.04,-132.49 -213.32,-192.2 0,0 0,0 0,0 -44.3,-29.74 -95.42,-57.26 -154.74,-80.7 0,0 0,0 0,0 -59.97,-22.9 -128.81,-37.5 -207.88,-48.11 0,0 0,0 0,0 -78.38,-10.03 -149.25,-11.45 -212.65,-6.48 0,0 0,0 0,0 -62.7,4.83 -119.27,20.85 -170.38,37.76 0,0 0,0 0,0 -101.54,35.1 -181.29,85.19 -254.9,132.17 0,0 0,0 0,0 -136.29,88.34 -249.47,172.61 -479.82,165.83 0,0 0,0 0,0 -230.35,6.78 -342.81,-77.49 -479.14,-165.83 0,0 0,0 0,0 -73.61,-46.97 -153.34,-97.07 -255.59,-132.17 0,0 0,0 0,0 -50.42,-16.9 -106.99,-32.93 -170.37,-37.76 0,0 0,0 0,0 -63.4,-4.9 -133.6,-3.55 -212.65,6.56 0,0 0,0 0,0 -79.07,10.54 -147.91,25.13 -207.2,48.03 0,0 0,0 0,0.01 -59.31,23.51 -110.4,50.95 -155.4,80.69 0,0 0,0 0,0 -89.27,59.72 -154.05,127.31 -212.65,192.25 0,0 0,0.01 0,0.01 -54.54,62.08 -103.59,119.77 -167,168.26 0,0 0,0 0,0 -32.02,24.27 -67.46,46.28 -109.02,65.51 0,0 0,0 0,0 -41.57,18.66 -89.28,35.58 -144.51,52.21 0,0 0,0 0,0 -221.48,62.92 -352.35,11.25 -506.38,-36.32 0,0 0,0 0,0 -83.15,-27.06 -173.8,-55.48 -281.48,-64.01 0,0 0,0 0,0 -107.02,-6.12 -229.69,11.79 -378.26,70.08 0,0 0,0 0,0 -147.9,60.31 -244.7,141.08 -316.24,219.24 0,0 0,0 0,0 -72.25,77.92 -115.2,164.81 -154.72,243.53 0,0 0,0 0,0 -72.95,146.61 -132.91,267.12 -331.25,384.55 0,0 0,0 0,0 -50.43,28.77 -96.09,49.28 -140.39,63.66 0,0 0,0 0,0 -43.63,14.38 -83.16,25.62 -122.69,30.88 0,0 0,0 0,0 -79.07,11.38 -154.03,5.99 -235.81,0.94 0,0 0,0 0,0 -44.31,-2.6 -90.65,-5.8 -138.36,-4.7 0,0 0,0 0,0 -47.7,1.83 -96.79,6.83 -149.27,17.79 0,0 0,0 0,0 -52.49,10.97 -107.69,27.93 -166.29,53.86 0,0 0,0 0,0 -29.3,12.92 -59.31,28.05 -89.96,45.77 0,0 0,0 0,0 -29.33,18.94 -60,40.56 -91.33,65.16 0,0 -0.01,0 -0.01,0 -254.24,194.37 -298.52,397.63 -336,567.6 0,0 0,0 0,0 -17.72,78.18 -30.7,153.29 -60.66,227.99 0,0 0,0 0,0 -30.68,74.49 -77.72,148.31 -161.55,227.98 0,0 0,0 0,0 -79.06,83.49 -153.34,130.6 -227.65,160.91 0,0 -0.01,0 -0.01,0 -74.95,30.12 -149.93,43.3 -227.6,61.3 0,0 0,0 0,0 -170.4,37.33 -373.53,81.76 -567.75,335.52 0,0 0,0 0,0 -24.56,31.36 -46.36,61.88 -65.44,91.74 0,0 0,0 0,0 -17.72,30.73 -32.73,60.72 -45.65,89.89 0,0 0,0 0,0 -25.92,58.35 -42.97,113.47 -53.85,165.9 0,0 0,0 0,0 -10.9,52.41 -15.66,101.98 -17.72,149.25 0,0 0,0.01 0,0.01 -1.37,47.83 2.06,94.17 4.77,138.3 0,0 0,0 0,0 4.78,81.63 10.24,156.9 -1.37,235.81 0,0 0,0 0,0 -4.77,39.66 -16.35,79.27 -30.65,123 0,0 0,0 0,0 -14.32,43.85 -34.76,89.98 -63.4,140 0,0 0,0 0,0 -117.92,198.46 -237.87,258.79 -384.4,331.67 0,0 0,0 0,0 -79.07,39.66 -165.6,82.19 -243.99,154.43 0,0 0,0 0,0 -78.38,71.99 -158.83,168.75 -219.49,316.4 0,0 0,0 0,0 -57.91,148.41 -75.66,271.38 -69.52,378.25 0,0 0,0 0,0 8.18,107.89 36.82,198.33 64.09,281.94 0,0 0,0 0,0 47.02,153.78 98.8,284.43 36.11,506.21 0,0 0,0 0,0 -17.04,55.33 -33.39,102.79 -52.49,144.42 0,0 0,0 0,0 -19.06,41.52 -40.88,77.01 -65.41,108.83 0,0 0,0 0,0 -48.39,63.66 -106.33,112.94 -168.13,166.92 0,0 0,0 0,0 -64.96,58.96 -132.5,123.63 -192.21,213.06 0,0 0,0 0,0 -29.79,44.76 -57.26,95.68 -80.77,155.19 0,0 0,0 0,0 -22.82,59.57 -37.48,128.28 -48.04,207.27 0,0 0,0 0,0 -10.03,78.99 -11.45,149.38 -6.55,212.66 0,0 0,0 0,0 4.9,63.25 20.92,119.72 37.84,170.5 0,0 0,0 0,0 35.09,101.77 85.11,181.7 132.14,255.31 0,0 0,0 0,0 88.33,136.12 172.38,248.99 165.85,479.29 0,0 0,0 0,0 6.53,230.37 -77.52,343.23 -165.85,479.41 0,0 0,0.01 0,0.01 -46.95,73.61 -97.05,153.54 -132.14,255.3 0,0 0,0 0,0 -16.91,50.83 -32.94,107.33 -37.76,170.58 0,0 0,0 0,0 -4.98,63.25 -3.56,133.65 6.52,212.73 0,0 0,0 0,0 10.57,78.91 25.17,147.63 48.07,207.19 0,0 0,0 0,0 23.51,59.5 50.98,110.48 80.69,155.25 0,0 0,0 0,0 59.72,89.45 127.26,154.1 192.26,213.06 0,0 0,0 0,0 61.75,53.98 119.69,103.2 168.08,166.92 0,0 0,0 0,0 24.53,31.84 46.34,67.27 65.41,108.77 0,0 0,0 0,0 19.1,41.73 36.14,89.15 52.49,144.51 0,0 0,0 0,0 62.69,221.71 11.6,352.35 -36.11,506.2 0,0 0,0 0,0 -27.27,83.56 -55.91,174.03 -64.09,281.87 0,0 0,0 0,0 -6.15,106.86 11.61,229.81 70.21,378.27 0,0 0,0.01 0,0.01 59.97,147.62 141.07,244.39 218.8,316.29 0,0 0,0 0,0 78.38,72.25 164.91,114.8 243.99,154.38 0,0 0,0 0,0.01 146.53,72.87 266.48,133.17 384.4,331.66 0,0 0,0 0,0 28.64,50.02 49.08,96.16 63.4,139.98 0,0 0,0 0,0 14.3,43.75 25.88,83.33 31.34,123.1 0,0 0,0 0,0 10.92,78.91 5.46,154.08 0.68,235.81 0,0 0,0 0,0 -2.71,44.08 -6.14,90.44 -4.77,138.28 0,0 0,0 0,0 2.06,47.3 6.83,96.87 17.72,149.27 0,0 0,0 0,0 10.89,52.38 27.93,107.61 53.85,165.96 0,0 0,0 0,0 12.93,29.17 27.93,59.16 45.65,89.88 0,0 0,0 0,0 19.07,29.86 40.88,60.41 65.44,91.74 0,0 0,0 0,0.01 194.21,253.8 397.35,298.17 567.75,335.55 0,0 0,0 0,0 77.67,17.97 153.34,31.13 227.61,61.27 0,0 0,0 0,0 74.31,30.24 148.59,77.49 228.31,160.91 0,0 0,0 0,0 83.16,79.67 130.21,153.49 160.89,227.98 0,0 0,0 0,0 29.96,74.62 42.94,149.74 61.32,227.91 0,0 0,0 0,0 36.82,170.05 81.78,373.28 335.35,567.6 0,0 0,0 0,0 31.33,24.61 62,46.21 91.99,65.16 0,0 0,0 0,0 30.7,17.72 60.66,32.91 89.3,45.8 0,0 0,0 0,0 58.6,25.9 113.8,42.87 166.29,53.86 0,0 0,0 0,0 52.48,10.97 101.57,15.91 149.27,17.77 0,0 0,0 0,0 47.71,1.09 94.05,-2.19 138.36,-4.7 0,0 0,0 0,0 81.78,-5.11 156.74,-10.49 235.81,0.89 0,0 0,0 0,0 39.53,5.25 79.06,16.47 122.69,30.87 0,0 0,0 0,0 44.3,14.38 89.96,34.89 140.39,63.66 0,0 0,0 0,0 198.33,117.41 258.3,237.94 331.25,384.53 0,0 0,0 0,0 40.2,78.78 82.47,165.62 154.72,243.53 0,0 0,0 0,0 71.55,78.23 168.34,159 316.24,219.33 0,0 0,0 0,0 148.57,58.25 271.24,76.2 378.26,70.06 0,0 0,0 0,0 107.68,-8.58 198.33,-36.94 282.14,-63.99 0,0 0,0 0,0 153.37,-47.65 284.23,-99.23 506.41,-36.33 0,0 0,0 0,0 55.23,16.6 102.26,33.51 143.82,52.12 0,0 0,0 0,0 41.57,19.22 77,41.24 109.02,65.52 0,0 0,0 0,0 64.09,48.59 113.17,106.18 167,168.26 0,0 0,0 0,0 58.6,64.98 123.38,132.57 213.31,192.29 0,0 0,0 0,0 44.33,29.7 95.43,57.15 154.74,80.66 0,0 0,0 0,0 59.98,22.85 128.82,37.51 207.2,48.06 0,0 0,0 0,0 79.04,10.09 149.93,11.46 212.65,6.53 0,0 0,0 0,0 63.38,-4.83 119.95,-20.84 171.06,-37.73 0,0 0,0 0,0 101.57,-35.2 181.3,-85.22 254.9,-132.25 0,0 0,0 0,0 136.32,-88.33 249.45,-172.63 479.14,-165.75 0,0 0,0 0,0 230.35,-6.88 343.52,77.42 479.82,165.75 0,0 0,0 0,0 73.62,47.02 153.37,97.05 254.9,132.25 0,0 0,0 0,0 51.11,16.88 107.69,32.9 171.09,37.73 0,0 0,0 0,0 62.69,4.93 133.55,3.48 212.63,-6.53 0,0 0,0 0,0 79.06,-10.56 147.22,-25.21 207.19,-48.06 0,0 0,0 0,0 59.32,-23.51 110.43,-51.03 155.4,-80.74 0,0 0,0 0,0 89.3,-59.7 154.05,-127.24 212.66,-192.21 0,0 0,0 0,0 53.85,-62.08 103.59,-119.75 166.97,-168.34 0,0 0,0 0,0 32.04,-24.27 67.46,-46.26 109.05,-65.49 0,0 0,0 0,0 41.57,-18.61 88.59,-35.52 144.5,-52.15 0,0 0,0 0,0 221.48,-62.89 352.36,-11.3 505.7,36.34 0,0 0,0 0,0 83.84,27.06 174.49,55.43 282.17,63.99 0,0 0,0 0,0 107.02,6.14 229.69,-11.79 378.25,-70.06 0,0 0,0 0,0 147.93,-60.33 244.7,-141.07 316.25,-219.26 0,0 0,0 0,0 72.27,-77.98 114.51,-164.81 154.71,-243.61 0,0 0,0 0,0 72.95,-146.51 132.92,-267.04 331.26,-384.45 0,0 0,0 0,0 50.42,-28.77 96.11,-49.28 140.41,-63.73 0,0 0,0 0,0 43.6,-14.41 83.16,-25.55 122.67,-30.88 0,0 0,0 0,0 79.06,-11.41 154.02,-6 235.83,-0.89 0,0 0,0 0,0 44.28,2.59 90.65,5.82 138.33,4.7 0,0 0,0 0,0 47.02,-1.83 96.8,-6.81 149.28,-17.77 0,0 0,0 0,0 52.46,-11 107.68,-27.96 166.31,-53.85 0,0 0,0 0,0 28.59,-12.96 58.6,-28.09 89.28,-45.78 0,0 0,0 0,0 29.96,-19.02 60.66,-40.63 92.01,-65.18 0,0 0.01,0 0.01,0 253.52,-194.37 298.5,-397.64 335.32,-567.68 0,0 0,0 0,0 18.4,-78.08 31.33,-153.29 61.32,-227.91 0,0 0,0 0,0 30.7,-74.47 77.72,-148.29 160.86,-227.96 0,0 0,0 0,0 79.75,-83.49 154.05,-130.67 228.34,-161.01 0,0 0,0 0,0 74.26,-30.04 149.94,-43.2 227.63,-61.2 0,0 0,0 0,0 170.37,-37.35 373.48,-81.78 567.73,-335.52 0,0 0,0 0,0 24.55,-31.36 46.36,-61.91 65.43,-91.74 0,0 0,0 0,0 17.72,-30.75 32.74,-60.74 45.65,-89.89 0,0 0,0 0,0 25.93,-58.35 42.97,-113.57 53.86,-165.9 0,0 0,0 0,0 10.92,-52.41 15.68,-102.03 17.72,-149.33 0,0 0,0 0,0 1.37,-47.78 -2.04,-94.13 -4.78,-138.23 0,0 0,0 0,0 -4.75,-81.7 -10.23,-156.89 0.69,-235.81 0,0 0,0 0,0 5.46,-39.74 17.03,-79.34 31.36,-123.1 0,0 0,0 0,0 14.3,-43.75 34.76,-89.88 63.37,-139.9 0,0 0,0 0.01,0 117.23,-198.48 237.86,-258.79 384.4,-331.74 0,0 0,0 0,0 79.04,-39.67 165.62,-82.12 244.01,-154.43 0,0 0,0 0,0 77.67,-71.92 158.8,-168.68 218.78,-316.3 0,0 0,0 0,0 58.62,-148.47 76.32,-271.49 70.18,-378.28 0,0 0,0 0,0 -8.15,-107.89 -36.79,-198.41 -64.06,-281.97 0,0 0,0 0,0 -47.68,-153.82 -98.83,-284.48 -36.11,-506.25 0,0 0,0 0,0 16.35,-55.28 33.39,-102.72 52.48,-144.43 0,0 0,0 0,0 19.09,-41.52 40.91,-76.96 65.44,-108.77 0,0 0,0 0,0 48.36,-63.74 105.62,-112.94 168.31,-166.97 0,0 0,0 0,0 64.78,-58.89 132.25,-123.58 192.21,-212.99 0,0 0,0 0,0 29.3,-44.78 57.26,-95.78 80.41,-155.27 0,0 0,0 0,0 23.18,-59.57 37.51,-128.28 47.73,-207.19 0,0 0,0 0,0 10.21,-78.99 11.56,-149.41 6.81,-212.66zm-8501.8 7712.4c-4751.16,0 -8617.31,-3865.81 -8617.31,-8617.58 0,0 0,0 0,0 0,-4751.72 3866.15,-8617.59 8617.31,-8617.59 0,0 0,0 0,0 4751.85,0 8617.66,3865.87 8617.66,8617.59 0,0 0,0 0,0 0,4751.77 -3865.81,8617.58 -8617.66,8617.58zm6220.61 -14837.79c-1661.64,-1661.43 -3870.59,-2576.49 -6220.61,-2576.49 0,0 0,0 0,0 -2349.34,0 -4558.26,915.06 -6219.93,2576.49 0,0 0,0 0,0 -1661.64,1661.52 -2576.49,3870.54 -2576.49,6220.21 0,0 0,0 0,0 0,2349.66 914.85,4558.74 2576.49,6220.25 0,0 0,0 0,0 1661.67,1661.47 3870.59,2576.45 6219.93,2576.45 0,0 0,0 0,0 2350.02,0 4558.97,-914.98 6220.61,-2576.45 0,0 0,0 0,0 1661.64,-1661.51 2576.32,-3870.51 2576.32,-6220.25 0,0 0,0 0,0 0,-2349.67 -914.68,-4558.69 -2576.32,-6220.21zm-10738.68 2498.54c0,0 -214.69,112.3 -214.69,112.3 0,0 0,0 0,0 0,0 143.13,195.54 143.13,195.54 0,0 0,0 0,0 89.96,122.77 271.95,165.14 406.21,94.68 0,0 0,0 0,0 42.26,-22.01 73.62,-52.83 95.4,-88.05 0,0 0,0 0,0 0,0 -520.01,-173.12 -520.01,-173.12 0,0 0,0 0,0 0,0 542.54,74.21 542.54,74.21 0,0 0,0 0,0 -3.43,-41.16 -17.75,-82.59 -45.68,-120.88 0,0 0,0 0,0 -89.96,-122.77 -271.94,-165.15 -406.89,-94.69zm1902.93 -575.9c0,0 23.84,241.12 23.84,241.12 0,0 0,0 0,0 0,0 235.12,-59.77 235.12,-59.77 0,0 0,0 0,0 147.22,-37.56 254.24,-190.57 239.24,-341.94 0,0 0,0 0,0 -4.77,-47.15 -21.81,-87.71 -46.33,-120.89 0,0 0,0 0,0 0,0 -354.42,417.59 -354.42,417.59 0,0 0,0 0,0 0,0 271.26,-475.87 271.26,-475.87 0,0 0,0 0,0 -39.54,-11.73 -83.15,-13.84 -129.5,-2.18 0,0 0,0 0,0 -147.22,37.56 -254.21,190.62 -239.21,341.94zm1943.81 1447.41c0,0 -226.97,-84.63 -226.97,-84.63 0,0 0,0 0,0 0,0 -49.74,237.16 -49.74,237.16 0,0 0,0 0,0 -31.36,148.87 59.29,312.49 201.73,365.59 0,0 0,0 0,0 44.28,16.58 87.91,19.22 128.82,11.81 0,0 0,0 0,0 0,0 -218.78,-502.24 -218.78,-502.24 0,0 0,0 0,0 0,0 308.05,453.24 308.05,453.24 0,0 0,0 0,0 27.96,-30.47 49.08,-68.89 58.63,-115.33 0,0 0,0 0,0 31.36,-148.84 -59.29,-312.49 -201.73,-365.59zm-869.69 690.7c0,0 -210.59,-119.9 -210.59,-119.9 0,0 0,0 0,0 0,0 -86.59,226.14 -86.59,226.14 0,0 0,0 0,0 -54.51,141.98 8.21,317.97 140.41,393.21 0,0 0,0 0,0 40.91,23.46 83.84,33.06 125.41,32.17 0,0 0,0 0,0 0,0 -135.63,-530.73 -135.63,-530.73 0,0 0,0 0,0 0,0 231.06,496.66 231.06,496.66 0,0 0,0 0,0 32.73,-25.55 59.31,-60.13 76.35,-104.41 0,0 0,0 0,0 55.17,-141.91 -8.21,-317.95 -140.42,-393.14zm-1922.69 -697.93c0,0 -65.43,233.38 -65.43,233.38 0,0 0,0 0,0 0,0 240.58,29.7 240.58,29.7 0,0 0,0 0,0 150.65,18.64 306.71,-84.98 347.61,-231.36 0,0 0,0 0,0 12.95,-45.75 11.61,-89.63 0.69,-129.58 0,0 0,0 0,0 0,0 -481.86,260.16 -481.86,260.16 0,0 0,0 0,0 0,0 425.94,-344.61 425.94,-344.61 0,0 0,0 0,0 -32.7,-25.34 -72.9,-43.27 -119.92,-49.08 0,0 0,0 0,0 -151.31,-18.66 -306.71,84.94 -347.61,231.39zm-582.73 -2174.92c0,0 -188.81,-152.4 -188.81,-152.4 0,0 0,0 0,0 0,0 -122.67,209.05 -122.67,209.05 0,0 0,0 0,0 -77.01,131.12 -42.94,315 74.98,410.7 0,0 0,0 0,0 36.79,29.79 77.69,46.21 118.58,52.16 0,0 0,0 0,0 0,0 -47.71,-545.74 -47.71,-545.74 0,0 0,0 0,0 0,0 147.22,527.53 147.22,527.53 0,0 0,0 0,0 36.82,-19.9 68.84,-49.61 92.7,-90.57 0,0 0,0 0,0 77.01,-131.15 43.61,-315.03 -74.29,-410.73zm2323.44 -765.8c0,0 112.46,214.76 112.46,214.76 0,0 0,0 0,0 0,0 195.61,-143.05 195.61,-143.05 0,0 0,0 0,0 122.67,-89.69 164.91,-271.74 94.71,-406.47 0,0 0,0 0,0 -21.78,-42.12 -53.14,-73.33 -87.9,-95.01 0,0 0,0 0,0 0,0 -173.12,519.68 -173.12,519.68 0,0 0,0 0,0 0,0 74.29,-542.8 74.29,-542.8 0,0 0,0 0,0 -41.6,3.97 -83.15,18.33 -121.32,46.26 0,0 0,0 0,0 -122.67,89.84 -164.91,271.82 -94.74,406.62zm598.4 1825.18c0,0 -51.11,236.98 -51.11,236.98 0,0 0,0 0,0 0,0 241.96,14.97 241.96,14.97 0,0 0,0 0,0 151.99,9.43 300.56,-103.54 332.63,-252.18 0,0 0,0 0,0 10.21,-46.33 6.12,-90.09 -6.83,-129.3 0,0 0,0 0,0 0,0 -465.5,289.01 -465.5,289.01 0,0 0,0 0,0 0,0 404.15,-369.9 404.15,-369.9 0,0 0,0 0,0 -34.08,-23.31 -75.64,-38.78 -122.67,-41.72 0,0 0,0 0,0 -151.99,-9.4 -300.58,103.46 -332.63,252.13zm-797.41 608.2c0,0 -193.56,-145.93 -193.56,-145.93 0,0 0,0 0,0 0,0 -115.86,213.14 -115.86,213.14 0,0 0,0 0,0 -72.24,133.71 -32.73,316.37 89.28,407.91 0,0 0,0 0,0 37.5,28.57 79.06,43.55 119.95,48.06 0,0 0,0 0,0 0,0 -66.12,-543.76 -66.12,-543.76 0,0 0,0 0,0 0,0 165.62,522.2 165.62,522.2 0,0 0,0 0,0 35.45,-21.17 66.81,-52 89.28,-93.72 0,0 0,0 0,0 72.27,-133.71 32.73,-316.38 -88.59,-407.91zm-543.21 -1976.93c0,0 -17.72,-241.7 -17.72,-241.7 0,0 0,0 0,0 0,0 -236.49,53.98 -236.49,53.98 0,0 0,0 0,0 -147.91,33.95 -258.99,184.29 -247.42,335.96 0,0 0,0 0,0 3.41,47.35 19.07,88.26 42.94,122.06 0,0 0,0 0,0 0,0 364.63,-408.8 364.63,-408.8 0,0 0,0 0,0 0,0 -282.83,469.05 -282.83,469.05 0,0 0,0 0,0 39.53,12.75 83.15,15.94 129.5,5.39 0,0 0,0 0,0 147.9,-33.95 259.01,-184.37 247.41,-335.94zm-3062.93 2896.91c0,0 241.27,-16.48 241.27,-16.48 0,0 0,0 0,0 0,0 -52.48,-236.64 -52.48,-236.64 0,0 0,0 0,0 -32.71,-148.44 -181.99,-260.42 -333.98,-250.09 0,0 0,0 0,0 -47.02,3.28 -88.59,18.97 -122.67,42.49 0,0 0,0 0,0 0,0 406.9,367.34 406.9,367.34 0,0 0,0 0,0 0,0 -467.56,-286.03 -467.56,-286.03 0,0 0,0 0,0 -12.95,39.26 -16.35,83 -6.14,129.37 0,0 0,0 0,0 32.73,148.41 182.69,260.41 334.66,250.06zm1031.19 65.77c0,0 -136.98,199.65 -136.98,199.65 0,0 0,0 0,0 0,0 217.43,106.03 217.43,106.03 0,0 0,0 0,0 136.98,66.52 317.59,18.86 404.15,-106.34 0,0 0,0 0,0 26.59,-39.13 40.22,-80.97 42.94,-122.26 0,0 0,0 0,0 0,0 -540.48,89.83 -540.48,89.83 0,0 0,0 0,0 0,0 514.58,-187.97 514.58,-187.97 0,0 0,0 0,0 -23.15,-34.56 -55.19,-64.55 -97.48,-85.26 0,0 0,0 0,0 -136.95,-66.58 -317.59,-18.94 -404.15,106.31zm-1820.43 2614.14c0,0 198.33,139.85 198.33,139.85 0,0 0,0 0,0 0,0 108.37,-216.54 108.37,-216.54 0,0 0,0 0,0 68.15,-135.84 23.15,-317.19 -100.89,-404.99 0,0 0,0 0,0 -38.85,-27.4 -80.41,-41.09 -122.01,-44.38 0,0 0,0 0,0 0,0 83.16,541.5 83.16,541.5 0,0 0,0 0,0 0,0 -181.3,-516.86 -181.3,-516.86 0,0 0,0 0,0 -34.76,22.26 -65.43,53.98 -86.55,96.36 0,0 0,0 0,0 -68.16,135.89 -23.19,317.19 100.88,405.07zm899.64 -2356.86c0,0 -233.78,-62.77 -233.78,-62.77 0,0 0,0 0,0 0,0 -27.25,240.82 -27.25,240.82 0,0 0,0 0,0 -17.03,151.15 87.93,305.54 235.13,344.91 0,0 0,0 0,0 45.67,12.3 89.99,10.72 129.52,-0.56 0,0 0,0 0,0 0,0 -265.13,-479.19 -265.13,-479.19 0,0 0,0 0,0 0,0 348.95,422.09 348.95,422.09 0,0 0,0 0,0 25.21,-32.99 42.26,-73.26 47.71,-120.41 0,0 0,0 0,0 17.03,-151.1 -87.93,-305.49 -235.15,-344.89zm1446.95 626.97c0,0 -202.39,-133.02 -202.39,-133.02 0,0 0,0 0,0 0,0 -101.57,220.15 -101.57,220.15 0,0 0,0 0,0 -63.41,138.12 -12.3,317.82 115.17,401.28 0,0 0,0 0,0 39.54,26.05 81.79,38.37 123.38,40.15 0,0 0,0 0,0 0,0 -101.57,-538.28 -101.57,-538.28 0,0 0,0 0,0 0,0 199.02,510.35 199.02,510.35 0,0 0,0 0,0 34.07,-23.46 63.37,-56.24 83.15,-99.31 0,0 0,0 0,0 63.38,-138.15 11.58,-317.8 -115.2,-401.31zm520.72 1127.74c0,0 161.52,180.33 161.52,180.33 0,0 0,0 0,0 0,0 154.72,-187.04 154.72,-187.04 0,0 0,0 0,0 96.1,-117.36 92.7,-304.24 -8.84,-417.38 0,0 0,0 0,0 -32.05,-35.33 -69.53,-57.95 -109.06,-70.22 0,0 0,0 0,0 0,0 -39.53,546.4 -39.53,546.4 0,0 0,0 0,0 0,0 -62.01,-544.27 -62.01,-544.27 0,0 0,0 0,0 -38.88,13.97 -75.66,38.24 -105.65,74.82 0,0 0,0 0,0 -96.8,117.36 -92.71,304.19 8.86,417.34zm927.61 -1397.42c0,0 -208.57,-122.9 -208.57,-122.9 0,0 0,0 0,0 0,0 -90.62,224.84 -90.62,224.84 0,0 0,0 0,0 -56.6,141.15 4.06,318.02 134.92,395.17 0,0 0,0 0,0 40.91,24.07 83.85,34.3 124.73,34.02 0,0 0,0 0,0 0,0 -127.47,-532.63 -127.47,-532.63 0,0 0,0 0,0 0,0 223.57,499.9 223.57,499.9 0,0 0,0 0,0 33.39,-25.06 60.66,-59.21 78.38,-103.23 0,0 0,0 0,0 56.57,-141.15 -3.41,-318.03 -134.95,-395.17zm-1.37 1679.36c0,0 32.73,240.18 32.73,240.18 0,0 0,0 0,0 0,0 232.4,-67.75 232.4,-67.75 0,0 0,0 0,0 145.85,-42.54 248.11,-199.14 227.66,-349.84 0,0 0,0 0,0 -6.15,-47.02 -24.55,-86.97 -50.45,-119.34 0,0 0,0 0,0 0,0 -340.09,429.44 -340.09,429.44 0,0 0,0 0,0 0,0 254.88,-484.86 254.88,-484.86 0,0 0,0 0,0 -39.52,-10.36 -83.82,-10.99 -129.48,2.24 0,0 0,0 0,0 -145.87,42.54 -247.42,199.17 -227.65,349.92zm-898.97 469.05c0,0 -213.34,113.88 -213.34,113.88 0,0 0,0 0,0 0,0 144.48,194.52 144.48,194.52 0,0 0,0 0,0 90.65,122.08 272.65,163.03 406.89,91.54 0,0 0,0 0,0 42.29,-22.29 72.93,-53.37 94.74,-88.75 0,0 0,0 0,0 0,0 -521.38,-169.15 -521.38,-169.15 0,0 0,0 0,0 0,0 543.2,70.13 543.2,70.13 0,0 0,0 0,0 -4.09,-41.18 -18.4,-82.54 -47.02,-120.56 0,0 0,0 0,0 -90.65,-122.08 -273.32,-163.1 -407.56,-91.61zm1348.79 1243.85c0,0 92.71,224.1 92.71,224.1 0,0 0,0 0,0 0,0 207.88,-124.67 207.88,-124.67 0,0 0,0 0,0 130.18,-78.25 188.79,-255.64 130.84,-396.26 0,0 0,0 0,0 -17.69,-43.89 -45.65,-77.75 -79.04,-102.59 0,0 0,0 0,0 0,0 -219.48,501.78 -219.48,501.78 0,0 0,0 0,0 0,0 123.37,-533.75 123.37,-533.75 0,0 0,0 0,0 -41.57,0.15 -83.81,10.72 -124.72,35.12 0,0 0,0 0,0 -130.19,78.25 -189.48,255.64 -131.56,396.26zm944.64 -655.4c0,0 180.63,-162.08 180.63,-162.08 0,0 0,0 0,0 0,0 -187.44,-153.9 -187.44,-153.9 0,0 0,0 0,0 -117.21,-96.59 -303.96,-92.4 -417.13,9.27 0,0 0,0 0,0 -35.42,31.77 -57.92,69.4 -70.19,108.9 0,0 0,0 0,0 0,0 546.63,38.6 546.63,38.6 0,0 0,0 0,0 0,0 -544.58,62.89 -544.58,62.89 0,0 0,0 0,0 14.33,38.93 38.14,75.54 74.95,105.65 0,0 0,0 0,0 117.23,96.57 304.65,92.43 417.11,-9.34zm390.55 -1949.53c0,0 -100.89,-220.55 -100.89,-220.55 0,0 0,0 0,0 0,0 -202.39,132.37 -202.39,132.37 0,0 0,0 0,0 -127.47,83 -179.95,262.44 -116.57,400.79 0,0 0,0 0,0 19.77,43.23 48.39,76.07 82.47,99.67 0,0 0,0 0,0 0,0 201.07,-509.68 201.07,-509.68 0,0 0,0 0,0 0,0 -103.59,537.97 -103.59,537.97 0,0 0,0 0,0 41.57,-1.66 83.81,-13.8 123.35,-39.77 0,0 0,0 0,0 127.47,-82.98 179.26,-262.45 116.55,-400.8zm5327.08 -2744.58c0,0 214.69,112.3 214.69,112.3 0,0 0,0 0,0 0,0 -143.11,195.54 -143.11,195.54 0,0 0,0 0,0 -89.98,122.77 -271.97,165.14 -406.23,94.68 0,0 0,0 0,0 -42.26,-22.01 -73.62,-52.83 -95.43,-88.05 0,0 0,0 0,0 0,0 520.04,-173.12 520.04,-173.12 0,0 0,0 0,0 0,0 -542.51,74.21 -542.51,74.21 0,0 0,0 0,0 3.4,-41.16 17.69,-82.59 45.65,-120.88 0,0 0,0 0,0 89.96,-122.77 271.94,-165.15 406.89,-94.69zm-1902.93 -575.9c0,0 -23.84,241.12 -23.84,241.12 0,0 0,0 0,0 0,0 -235.15,-59.77 -235.15,-59.77 0,0 0,0 0,0 -147.22,-37.56 -254.21,-190.57 -239.21,-341.94 0,0 0,0 0,0 4.77,-47.15 21.81,-87.71 46.33,-120.89 0,0 0,0 0,0 0,0 354.42,417.59 354.42,417.59 0,0 0,0 0,0 0,0 -271.26,-475.87 -271.26,-475.87 0,0 0,0 0,0 39.54,-11.73 83.15,-13.84 129.47,-2.18 0,0 0,0 0,0 147.22,37.56 254.24,190.62 239.24,341.94zm-1943.78 1447.41c0,0 226.94,-84.63 226.94,-84.63 0,0 0,0 0,0 0,0 49.77,237.16 49.77,237.16 0,0 0,0 0,0 31.33,148.87 -59.32,312.49 -201.76,365.59 0,0 0,0 0,0 -44.31,16.58 -87.93,19.22 -128.82,11.81 0,0 0,0 0,0 0,0 218.78,-502.24 218.78,-502.24 0,0 0,0 0,0 0,0 -308.08,453.24 -308.08,453.24 0,0 0,0 0,0 -27.93,-30.47 -49.05,-68.89 -58.58,-115.33 0,0 0,0 0,0 -31.36,-148.84 58.58,-312.49 201.74,-365.59zm869.66 690.7c0,0 210.59,-119.9 210.59,-119.9 0,0 0,0 0,0 0,0 86.56,226.14 86.56,226.14 0,0 0,0 0,0 54.54,141.98 -8.18,317.97 -140.38,393.21 0,0 0,0 0,0 -40.91,23.46 -83.84,33.06 -125.41,32.17 0,0 0,0 0,0 0,0 135.61,-530.73 135.61,-530.73 0,0 0,0 0,0 0,0 -231.04,496.66 -231.04,496.66 0,0 0,0 0,0 -32.7,-25.55 -59.29,-60.13 -76.32,-104.41 0,0 0,0 0,0 -55.23,-141.91 8.15,-317.95 140.39,-393.14zm1922.69 -697.93c0,0 65.41,233.38 65.41,233.38 0,0 0,0 0,0 0,0 -240.59,29.7 -240.59,29.7 0,0 0,0 0,0 -150.62,18.64 -306.71,-84.98 -347.58,-231.36 0,0 0,0 0,0 -12.95,-45.75 -11.58,-89.63 -0.69,-129.58 0,0 0,0 0,0 0,0 481.89,260.16 481.89,260.16 0,0 0,0 0,0 0,0 -426,-344.61 -426,-344.61 0,0 0,0 0,0 32.73,-25.34 72.93,-43.27 119.95,-49.08 0,0 0,0 0,0 151.33,-18.66 306.71,84.94 347.61,231.39zm582.73 -2174.92c0,0 188.78,-152.4 188.78,-152.4 0,0 0,0 0,0 0,0 122.7,209.05 122.7,209.05 0,0 0,0 0,0 77.01,131.12 42.94,315 -74.95,410.7 0,0 0,0 0,0 -36.82,29.79 -77.72,46.21 -118.61,52.16 0,0 0,0 0,0 0,0 47.71,-545.74 47.71,-545.74 0,0 0,0 0,0 0,0 -147.22,527.53 -147.22,527.53 0,0 0,0 0,0 -36.82,-19.9 -68.84,-49.61 -92.71,-90.57 0,0 0,0 0,0 -77,-131.15 -43.62,-315.03 74.3,-410.73zm-2323.44 -765.8c0,0 -112.46,214.76 -112.46,214.76 0,0 0,0 0,0 0,0 -195.61,-143.05 -195.61,-143.05 0,0 0,0 0,0 -122.67,-89.69 -164.91,-271.74 -94.74,-406.47 0,0 0,0 0,0 21.81,-42.12 53.17,-73.33 87.93,-95.01 0,0 0,0 0,0 0,0 173.12,519.68 173.12,519.68 0,0 0,0 0,0 0,0 -74.29,-542.8 -74.29,-542.8 0,0 0,0 0,0 41.57,3.97 83.15,18.33 121.32,46.26 0,0 0,0 0,0 122.69,89.84 164.94,271.82 94.74,406.62zm-598.43 1825.18c0,0 51.11,236.98 51.11,236.98 0,0 0,0 0,0 0,0 -241.93,14.97 -241.93,14.97 0,0 0,0 0,0 -151.99,9.43 -300.59,-103.54 -332.6,-252.18 0,0 0,0 0,0 -10.24,-46.33 -6.15,-90.09 6.8,-129.3 0,0 0,0 0,0 0,0 465.53,289.01 465.53,289.01 0,0 0,0 0,0 0,0 -404.18,-369.9 -404.18,-369.9 0,0 0,0 0,0 34.08,-23.31 75.66,-38.78 122.69,-41.72 0,0 0,0 0,0 151.97,-9.4 300.56,103.46 332.58,252.13zm797.44 608.2c0,0 193.56,-145.93 193.56,-145.93 0,0 0,0 0,0 0,0 115.88,213.14 115.88,213.14 0,0 0,0 0,0 72.25,133.71 32.71,316.37 -89.3,407.91 0,0 0,0 0,0 -37.48,28.57 -79.06,43.55 -119.97,48.06 0,0 0,0 0,0 0,0 66.12,-543.76 66.12,-543.76 0,0 0,0 0,0 0,0 -165.6,522.2 -165.6,522.2 0,0 0,0 0,0 -35.45,-21.17 -66.78,-52 -89.3,-93.72 0,0 0,0 0,0 -72.25,-133.71 -32.71,-316.38 88.61,-407.91zm543.21 -1976.93c0,0 17.71,-241.7 17.71,-241.7 0,0 0,0 0,0 0,0 236.5,53.98 236.5,53.98 0,0 0,0 0,0 147.91,33.95 258.99,184.29 247.42,335.96 0,0 0,0 0,0 -3.41,47.35 -19.07,88.26 -42.94,122.06 0,0 0,0 0,0 0,0 -364.65,-408.8 -364.65,-408.8 0,0 0,0 0,0 0,0 282.85,469.05 282.85,469.05 0,0 0,0 0,0 -39.53,12.75 -83.15,15.94 -129.5,5.39 0,0 0,0 0,0 -147.9,-33.95 -258.99,-184.37 -247.41,-335.94zm3062.93 2896.91c0,0 -241.27,-16.48 -241.27,-16.48 0,0 0,0 0,0 0,0 52.48,-236.64 52.48,-236.64 0,0 0,0 0,0 32.71,-148.44 181.96,-260.42 333.95,-250.09 0,0 0,0 0,0 47.05,3.28 88.62,18.97 122.01,42.49 0,0 0,0 0,0 0,0 -406.18,367.34 -406.18,367.34 0,0 0,0 0,0 0,0 467.53,-286.03 467.53,-286.03 0,0 0,0 0,0 12.95,39.26 16.34,83 6.14,129.37 0,0 0,0 0,0 -32.73,148.41 -182.66,260.41 -334.66,250.06zm-1031.19 65.77c0,0 136.98,199.65 136.98,199.65 0,0 0,0 0,0 0,0 -218.09,106.03 -218.09,106.03 0,0 0,0 0,0 -136.32,66.52 -316.93,18.86 -403.49,-106.34 0,0 0,0 0,0 -26.59,-39.13 -40.23,-80.97 -42.94,-122.26 0,0 0,0 0,0 0,0 540.48,89.83 540.48,89.83 0,0 0,0 0,0 0,0 -514.59,-187.97 -514.59,-187.97 0,0 0,0 0,0 23.19,-34.56 55.2,-64.55 97.46,-85.26 0,0 0,0 0,0 137.01,-66.58 317.62,-18.94 404.18,106.31zm1820.43 2614.14c0,0 -198.33,139.85 -198.33,139.85 0,0 0,0 0,0 0,0 -108.37,-216.54 -108.37,-216.54 0,0 0,0 0,0 -68.15,-135.84 -23.18,-317.19 100.89,-404.99 0,0 0,0 0,0 38.85,-27.4 80.44,-41.09 122,-44.38 0,0 0,0 0,0 0,0 -83.15,541.5 -83.15,541.5 0,0 0,0 0,0 0,0 181.3,-516.86 181.3,-516.86 0,0 0,0 0,0 34.76,22.26 65.43,53.98 86.55,96.36 0,0 0,0 0,0 68.16,135.89 23.16,317.19 -100.88,405.07zm-899.66 -2356.86c0,0 233.78,-62.77 233.78,-62.77 0,0 0,0 0,0 0,0 27.26,240.82 27.26,240.82 0,0 0,0 0,0 17.06,151.15 -87.9,305.54 -235.12,344.91 0,0 0,0 0,0 -45.67,12.3 -89.99,10.72 -129.5,-0.56 0,0 0,0 0,0 0,0 265.11,-479.19 265.11,-479.19 0,0 0,0 0,0 0,0 -348.95,422.09 -348.95,422.09 0,0 0,0 0,0 -25.21,-32.99 -42.26,-73.26 -47.71,-120.41 0,0 0,0 0,0 -17.03,-151.1 87.93,-305.49 235.13,-344.89zm-1446.96 626.97c0,0 202.45,-133.02 202.45,-133.02 0,0 0,0 0,0 0,0 101.54,220.15 101.54,220.15 0,0 0,0 0,0 63.38,138.12 12.27,317.82 -115.17,401.28 0,0 0,0 0,0 -39.54,26.05 -81.79,38.37 -123.38,40.15 0,0 0,0 0,0 0,0 101.57,-538.28 101.57,-538.28 0,0 0,0 0,0 0,0 -199.02,510.35 -199.02,510.35 0,0 0,0 0,0 -34.07,-23.46 -63.37,-56.24 -83.13,-99.31 0,0 0,0 0,0 -63.4,-138.15 -11.6,-317.8 115.15,-401.31zm-520.69 1127.74c0,0 -161.55,180.33 -161.55,180.33 0,0 0,0 0,0 0,0 -154.71,-187.04 -154.71,-187.04 0,0 0,0 0,0 -96.11,-117.36 -92.68,-304.24 8.86,-417.38 0,0 0,0 0,0 32.05,-35.33 69.53,-57.95 109.06,-70.22 0,0 0,0 0,0 0,0 39.53,546.4 39.53,546.4 0,0 0,0 0,0 0,0 62.04,-544.27 62.04,-544.27 0,0 0,0 0,0 38.85,13.97 75.63,38.24 105.62,74.82 0,0 0,0 0,0 96.77,117.36 92.71,304.19 -8.86,417.34zm-927.61 -1397.42c0,0 208.54,-122.9 208.54,-122.9 0,0 0,0 0,0 0,0 90.68,224.84 90.68,224.84 0,0 0,0 0,0 56.54,141.15 -4.12,318.02 -134.95,395.17 0,0 0,0 0,0 -40.91,24.07 -83.85,34.3 -124.73,34.02 0,0 0,0 0,0 0,0 127.44,-532.63 127.44,-532.63 0,0 0,0 0,0 0,0 -223.54,499.9 -223.54,499.9 0,0 0,0 0,0 -33.39,-25.06 -60.66,-59.21 -78.38,-103.23 0,0 0,0 0,0 -56.57,-141.15 3.43,-318.03 134.95,-395.17zm1.37 1679.36c0,0 -32.73,240.18 -32.73,240.18 0,0 0,0 0,0 0,0 -232.4,-67.75 -232.4,-67.75 0,0 0,0 0,0 -145.85,-42.54 -248.08,-199.14 -227.63,-349.84 0,0 0,0 0,0 6.12,-47.02 24.52,-86.97 50.42,-119.34 0,0 0,0 0,0 0,0 340.09,429.44 340.09,429.44 0,0 0,0 0,0 0,0 -254.9,-484.86 -254.9,-484.86 0,0 0,0 0,0 39.54,-10.36 83.84,-10.99 129.5,2.24 0,0 0,0 0,0 145.85,42.54 247.42,199.17 227.65,349.92zm898.97 469.05c0,0 213.34,113.88 213.34,113.88 0,0 0,0 0,0 0,0 -144.5,194.52 -144.5,194.52 0,0 0,0 0,0 -90.65,122.08 -272.61,163.03 -406.9,91.54 0,0 0,0 0,0 -42.26,-22.29 -72.9,-53.37 -94.71,-88.75 0,0 0,0 0,0 0,0 521.38,-169.15 521.38,-169.15 0,0 0,0 0,0 0,0 -543.2,70.13 -543.2,70.13 0,0 0,0 0,0 4.09,-41.18 18.38,-82.54 47.02,-120.56 0,0 0,0 0,0 90.65,-122.08 273.29,-163.1 407.56,-91.61zm-1348.82 1243.85c0,0 -92.68,224.1 -92.68,224.1 0,0 0,0 0,0 0,0 -207.88,-124.67 -207.88,-124.67 0,0 0,0 0,0 -130.16,-78.25 -188.79,-255.64 -130.84,-396.26 0,0 0,0 0,0 17.72,-43.89 45.65,-77.75 79.04,-102.59 0,0 0,0 0,0 0,0 219.46,501.78 219.46,501.78 0,0 0,0 0,0 0,0 -123.35,-533.75 -123.35,-533.75 0,0 0,0 0,0 41.57,0.15 83.84,10.72 124.72,35.12 0,0 0,0 0,0 130.19,78.25 189.48,255.64 131.53,396.26zm-944.63 -655.4c0,0 -180.61,-162.08 -180.61,-162.08 0,0 0,0 0,0 0,0 187.44,-153.9 187.44,-153.9 0,0 0,0 0,0 117.23,-96.59 303.96,-92.4 417.1,9.27 0,0 0,0 0,0 35.45,31.77 57.95,69.4 70.22,108.9 0,0 0,0 0,0 0,0 -546.6,38.6 -546.6,38.6 0,0 0,0 0,0 0,0 544.57,62.89 544.57,62.89 0,0 0,0 0,0 -14.32,38.93 -38.19,75.54 -74.97,105.65 0,0 0,0 0,0 -117.23,96.57 -304.68,92.43 -417.13,-9.34zm-390.53 -1949.53c0,0 100.86,-220.55 100.86,-220.55 0,0 0,0 0,0 0,0 202.45,132.37 202.45,132.37 0,0 0,0 0,0 127.44,83 179.92,262.44 116.52,400.79 0,0 0,0 0,0 -19.75,43.23 -48.37,76.07 -82.45,99.67 0,0 0,0 0,0 0,0 -201.07,-509.68 -201.07,-509.68 0,0 0,0 0,0 0,0 103.59,537.97 103.59,537.97 0,0 0,0 0,0 -41.57,-1.66 -83.81,-13.8 -123.35,-39.77 0,0 0,0 0,0 -127.44,-82.98 -179.24,-262.45 -116.55,-400.8zm3251.04 -3016.2c-24.52,-45.72 -45.65,-92.07 -71.55,-134.95 0,0 0,0 0,0 -50.43,-86.81 -104.97,-166.74 -160.18,-239.46 0,0 0,0 0,0 -28.64,-35.4 -56.57,-69.83 -83.15,-103.15 0,0 0,0 0,0 -10.21,-11.02 -19.75,-21.2 -29.99,-31.97 0,0 0,0 0,0 74.29,28.21 147.22,59.04 219.46,91.87 0,0 0,0 0,0 0,0.81 0.69,1.58 0.69,2.41 0,0 0,0 0,0 30.67,78.79 61.35,160.84 87.24,246.23 0,0 0,0 0,0 21.81,68.79 40.2,139.8 57.24,211.28 0,0 0,0 0,0 -6.13,-14.1 -12.93,-28.41 -19.76,-42.26zm7.5 1071.83c-14.98,187.16 -47.02,359.75 -83.16,504.83 0,0 0,0 0,0 -101.54,415.64 -310.76,836.55 -606.57,1147.69 0,0 0,0 0,0 -2063.76,-121.24 -2996.13,-1381.92 -3155.62,-1622.13 0,0 0,0 0,0 0.67,-64.47 1.38,-128.58 3.41,-194.57 0,0 0,0 0,0 4.75,-160.98 10.89,-314.54 18.4,-461.89 0,0 0,0 0,0 483.89,-1044.43 1812.95,-1310.99 2924.59,-1109.24 0,0 0,0 0,0 149.25,27.06 294.41,65.99 436.19,114.16 0,0 0,0 0,0 4.78,5.94 9.55,11.32 14.33,17.59 0,0 0,0 0,0 23.15,30.87 47.02,63.05 71.55,96.31 0,0 0,0 0,0 22.5,34.84 46.34,70.74 70.19,107.68 0,0 0,0 0,0 44.99,75.23 88.62,156.85 127.47,243.79 0,0 0,0 0,0 20.46,43.01 35.45,89.1 53.83,134.14 0,0 0,0 0,0 17.03,45.92 30.69,93.39 46.36,140.53 0,0 0,0 0,0 25.21,96.04 48.39,194.04 62,293.76 0,0 0,0 0,0 15.69,99.1 21.81,199.7 25.24,298.09 0,0 0,0 0,0 1.35,98.7 0,195.69 -8.2,289.26zm-1161.38 2026.2c-450.53,260.8 -1001.87,359.14 -1645.29,296.3 0,0 0,0 0,0 -155.4,-501.1 -405.52,-972.87 -622.93,-1327.82 0,0 0,0 0,0 95.4,78.58 201.05,158.19 317.6,236.57 0,0 0,0 0,0 450.52,304.19 1122.53,627.04 2036.49,741.86 0,0 0,0 0,0 -27.93,18.08 -56.55,35.93 -85.87,53.09zm-1915.2 1655.27c-40.2,128.08 -102.92,246.43 -180.58,359.6 0,0 0,0 0,0 -83.85,-220.1 -154.72,-421.17 -185.42,-571.24 0,0 0,0 0,0 -16.32,-77.13 -34.07,-161.8 -54.51,-254.06 0,0 0,0 0,0 -40.91,-191.08 -90.65,-419.8 -138.35,-683.01 0,0 0,0 0,0 188.81,48.27 372.81,85.8 550.71,112.66 0,0 0,0 0,0 87.24,357.54 108.34,716.73 8.15,1036.05zm-3.4 2711.37c-29.97,135.56 -77.7,266.68 -136.3,395.93 0,0 0,0 0,0 21.81,-745.98 -242.62,-1251.29 -572.53,-1654.27 0,0 0,0 0,0 84.53,-88.42 171.09,-174.01 257.64,-259.27 0,0 0,0 0,0 51.8,-51.06 102.92,-101.7 153.37,-152.4 0,0 0,0 0,0 31.33,85.39 62.69,172.15 92.68,259.54 0,0 0,0 0,0 0.69,2.9 1.37,5.57 2.03,8.92 0,0 0,0 0,0 6.15,22.62 16.38,54.31 30.7,93.24 0,0 0,0 0,0 2.03,5.1 4.06,11.45 6.12,16.83 0,0 0,0 0,0 32.73,100.2 62.72,200.64 89.3,300.43 0,0 0,0 0,0 2.01,10.29 6.79,30.67 14.98,59.93 0,0 0,0 0,0 83.84,335.04 122.69,659.59 62.01,931.12zm-631.11 1245.42c-113.14,180.13 -223.54,364.91 -314.9,557.04 0,0 0,0 0,0 -91.33,-192.13 -201.73,-376.91 -314.19,-557.04 0,0 0,0 0,0 -316.22,-1105.29 -75.64,-1738.11 314.19,-2232.51 0,0 0,0 0,0 389.86,494.4 630.45,1127.23 314.9,2232.51zm-1260.88 -1245.42c-60,-271.54 -21.15,-596.09 62,-931.12 0,0 0,0 0,0 8.21,-29.26 12.96,-49.64 14.98,-59.93 0,0 0,0 0,0 26.58,-99.79 56.57,-200.23 89.3,-300.43 0,0 0,0 0,0 2.06,-5.39 4.78,-11.74 6.81,-16.83 0,0 0,0 0,0 13.64,-38.93 23.86,-70.62 30.01,-93.24 0,0 0,0 0,0 1.35,-3.35 2.03,-6.02 2.72,-8.92 0,0 0,0 0,0 29.99,-87.39 60.66,-174.15 91.99,-259.54 0,0 0,0 0,0 50.45,50.7 101.57,101.34 153.37,152.4 0,0 0,0 0,0 86.56,85.26 173.8,170.85 257.64,259.27 0,0 0,0 0,0 -329.88,402.98 -594.33,908.29 -572.53,1654.27 0,0 0,0 0,0 -58.6,-129.25 -106.33,-260.36 -136.29,-395.93zm-3.41 -2711.37c-100.2,-319.32 -78.38,-678.51 8.18,-1036.05 0,0 0,0 0,0 178.55,-26.86 361.88,-64.39 551.37,-112.66 0,0 0,0 0,0 -48.39,263.21 -97.48,491.93 -139.04,683.01 0,0 0,0 0,0 -19.75,92.27 -38.16,176.93 -53.85,254.06 0,0 0,0 0,0 -30.67,150.07 -102.23,351.14 -185.39,571.24 0,0 0,0 0,0 -77.66,-113.17 -141.07,-231.52 -181.27,-359.6zm-1914.53 -1655.27c-29.99,-17.16 -58.61,-35.01 -86.54,-53.09 0,0 0,0 0,0 913.97,-114.82 1586.69,-437.67 2037.18,-741.86 0,0 0,0 0,0 115.86,-78.38 221.51,-157.99 317.62,-236.57 0,0 0,0 0,0 -218.12,354.95 -467.56,826.72 -623.64,1327.82 0,0 0,0 0,0 -643.39,62.84 -1194.11,-35.5 -1644.62,-296.3zm-472.31 -373.68c-295.12,-311.14 -505.03,-732.05 -606.57,-1147.69 0,0 0,0 0,0 -35.47,-145.08 -68.18,-317.67 -82.49,-504.83 0,0 0,0 0,0 -8.87,-93.57 -10.21,-190.57 -8.87,-289.26 0,0 0,0 0,0 4.12,-98.39 9.55,-198.99 25.93,-298.09 0,0 0,0 0,0 12.92,-99.72 36.1,-197.72 62,-293.76 0,0 0,0 0,0 14.98,-47.14 29.3,-94.61 45.68,-140.53 0,0 0,0 0,0 18.38,-45.04 34.07,-91.14 53.83,-134.14 0,0 0,0 0,0 38.85,-86.94 82.46,-168.55 128.12,-243.79 0,0 0,0 0,0 23.87,-36.95 47.02,-72.85 69.53,-107.68 0,0 0,0 0,0 24.53,-33.26 49.08,-65.44 71.56,-96.31 0,0 0,0 0,0 4.77,-6.28 9.55,-11.66 14.32,-17.59 0,0 0,0 0,0 141.79,-48.17 287.61,-87.1 436.88,-114.16 0,0 0,0 0,0 1111.64,-201.74 2440.67,64.82 2923.9,1109.24 0,0 0,0 0,0 7.52,147.35 13.67,300.92 18.41,461.89 0,0 0,0 0,0 2.03,66 2.74,130.11 4.08,194.57 0,0 0,0 0,0 -159.48,240.21 -1092.54,1500.89 -3156.3,1622.13zm-644.76 -2893.37c25.92,-85.39 56.57,-167.43 87.24,-246.23 0,0 0,0 0,0 0.69,-0.83 0.69,-1.6 1.38,-2.41 0,0 0,0 0,0 71.55,-32.83 144.47,-63.66 218.77,-91.87 0,0 0,0 0,0 -9.55,10.77 -19.09,20.95 -29.3,31.97 0,0 0,0 0,0 -27.27,33.32 -55.2,67.75 -83.84,103.15 0,0 0,0 0,0 -55.2,72.72 -109.74,152.65 -160.17,239.46 0,0 0,0 0,0 -25.9,42.89 -47.02,89.23 -71.56,134.95 0,0 0,0 0,0 -6.83,13.85 -12.95,28.16 -19.75,42.26 0,0 0,0 0,0 17.03,-71.48 35.42,-142.49 57.23,-211.28zm463.47 -930.47c215.37,-291.61 492.76,-545.18 789.23,-746.84 0,0 0,0 0,0 366.69,-249.32 817.2,-427.13 1264.32,-318.35 0,0 0,0 0,0 779.01,189.47 1082.3,785.96 1207.03,1900.96 0,0 0,0 0,0 -705.43,-751.57 -1904.96,-935.6 -2932.76,-749.13 0,0 0,0 0,0 -160.18,28.97 -315.57,69.88 -466.19,120.23 0,0 0,0 0,0 42.26,-70.8 88.62,-139.86 138.36,-206.87zm3192.43 4318.88c-171.74,48.57 -339.4,88.64 -500.94,118.93 0,0 0,0 0,0 169.68,-470.78 421.19,-911.6 621.58,-1223.56 0,0 0,0 0,0 -26.59,410.86 -70.21,779.24 -120.64,1104.63zm530.25 -1104.63c200.39,311.95 451.87,752.77 621.58,1223.56 0,0 0,0 0,0 -162.22,-30.29 -329.2,-70.36 -501.63,-118.93 0,0 0,0 0,0 -49.74,-325.39 -93.37,-693.76 -119.95,-1104.63zm29.99 2498.13c45.67,220.48 151.31,496.25 274,814.93 0,0 0,0 0,0 -83.84,88.9 -173.14,176.88 -263.79,266.28 0,0 0,0 0,0 -80.39,79.5 -163.54,161.14 -245.36,246.61 0,0 0,0 0,0 -81.78,-85.47 -164.94,-167.1 -245.36,-246.61 0,0 0,0 0,0 -90.62,-89.4 -179.93,-177.38 -263.08,-266.28 0,0 0,0 0,0 122.69,-318.68 228.32,-594.46 273.32,-814.93 0,0 0,0 0,0 15.66,-75.99 33.39,-159.34 53.14,-250.21 0,0 0,0 0,0 53.85,-248.72 120.63,-558.59 181.98,-926.77 0,0 0,0 0,0 61.35,368.18 128.15,678.05 182.01,926.77 0,0 0,0 0,0 19.75,90.87 37.48,174.21 53.14,250.21zm1229.52 -6777.57c446.44,-108.77 896.96,69.04 1263.63,318.35 0,0 0,0 0,0 296.47,201.66 573.87,455.23 789.24,746.84 0,0 0,0 0,0 49.74,67.01 96.11,136.07 139.04,206.87 0,0 0,0 0,0 -151.31,-50.35 -306.71,-91.26 -466.19,-120.23 0,0 0,0 0,0 -1028.47,-186.48 -2228.01,-2.44 -2933.44,749.13 0,0 0,0 0,0 124.72,-1114.99 428.01,-1711.49 1207.71,-1900.96zm5088.53 4639.47c-4.06,-105.45 -17.71,-212.41 -26.58,-320.14 0,0 0,0 0,0 -9.52,-53.22 -19.06,-106.46 -28.62,-159.48 0,0 0,0 0,-0.01 -10.21,-52.96 -17.03,-106.74 -32.73,-157.93 0,0 0,0 0,0 -27.93,-103.26 -52.45,-206.38 -90.62,-301.93 0,0 0,0 0,0 -17.72,-47.91 -32.04,-96.85 -53.17,-141.76 0,0 0,0 0,0 -19.75,-45.32 -39.53,-89.69 -59.29,-132.9 0,0 0,0 0,0 -17.74,-44.03 -42.28,-83.2 -62.71,-123.17 0,0 0,0 0,0 -21.13,-39.26 -40.2,-78.38 -63.38,-113.19 0,0 0,-0.01 0,-0.01 -175.84,-283.26 -410.99,-530.6 -650.22,-757.42 0,0 -0.01,0 -0.01,0 -425.28,-402.37 -903.72,-757.29 -1437.4,-1003.06 0,0 0,0 0,0 -27.93,-80.97 -57.26,-156.89 -86.56,-225.77 0,0 0,-0.01 0,-0.01 -55.88,-132.37 -110.4,-260.36 -193.55,-378.68 0,0 0,0 0,0 -78.38,-111.49 -171.75,-215.65 -263.77,-312.56 0,0 0,-0.01 0,-0.01 -193.55,-203.63 -412.33,-383.79 -648.85,-535.09 0,0 0,-0.01 0,-0.01 -436.17,-278.7 -958.92,-446.68 -1475.57,-321.35 0,0 0,0 0,0 -824,200.39 -1200.22,780.06 -1380.17,1593.44 0,0 0,0 0,-0.01 -179.93,-813.38 -556.15,-1393.04 -1380.15,-1593.43 0,0 0,0 0,0 -516.63,-125.33 -1039.4,42.67 -1475.57,321.36 0,0 0,0 0,0 -236.52,151.31 -454.61,331.46 -648.19,535.1 0,0 0,0 0,0 -92.68,96.92 -186.05,201.07 -264.42,312.56 0,0 -0.01,0 -0.01,0 -82.46,118.32 -137.66,246.32 -193.55,378.69 0,0 0,0 0,0 -29.3,68.89 -58.63,144.8 -86.58,225.77 0,0 -0.01,0 -0.01,0 -532.96,245.77 -1012.1,600.69 -1437.37,1003.06 0,0 0,0 0,0.01 -239.24,226.81 -473.68,474.15 -650.22,757.42 0,0 0,0 -0.01,0 -23.18,34.81 -41.56,73.93 -63.37,113.19 0,0 0,0 0,0 -19.75,39.97 -44.99,79.14 -62.72,123.17 0,0 0,0 0,0 -19.09,43.23 -38.85,87.58 -59.29,132.9 0,0 0,0 0,0 -21.12,44.91 -34.76,93.85 -53.17,141.76 0,0 0,0 0,0 -37.48,95.55 -62.69,198.66 -90.65,301.93 0,0 0,0 0,0 -15.66,51.18 -22.49,104.96 -32.7,157.94 0,0 0,0 0,0 -9.55,53.01 -19.09,106.25 -28.64,159.48 0,0 0,0 0,0 -8.84,107.74 -22.5,214.69 -26.56,320.14 0,0 0,0 0,0 0.69,105.75 -2.72,209.35 2.03,309.14 0,0 0,0 0,0 8.87,99.36 17.03,195.49 25.24,286.59 0,0 0,0 0,0 11.56,90.37 29.3,174.9 42.25,253 0,0 0,0 0,0 6.81,38.98 13.64,76.32 19.76,111.84 0,0 0,0 0,0 6.14,35.5 17.71,68.23 25.21,99.44 0,0 0,0 0,0 16.35,62.03 30.67,116.06 42.94,160.66 0,0 0,0 0,0 23.87,88.74 36.82,139.44 36.82,139.44 0,0 0,0 0,0 0,0 -7.49,-51.95 -21.81,-142.77 0,0 0,0 0,0 -7.49,-45.27 -15.66,-100.28 -25.92,-163.31 0,0 0,0 0,0 -4.07,-31.64 -11.56,-64.68 -14.3,-100.41 0,0 0,0 0,0 -2.03,-35.62 -4.78,-73.13 -7.52,-112.25 0,0 0,0 0,0 -4.75,-78.18 -13.62,-162.4 -15.66,-251.62 0,0 0,0 0,0 1.37,-89.08 3.4,-183.08 5.46,-280.24 0,0 0,0 0,0 5.46,-96.72 19.75,-196.02 29.3,-296.5 0,0 0,0 0,0 15,-100.05 38.85,-200.11 57.26,-300.23 0,0 0,0 0,0 14.3,-49 28.61,-97.94 42.94,-146.66 0,0 0,0 0,0 15,-48.47 25.9,-97.61 45.67,-143.61 0,0 0,0 0,0 36.11,-93.11 68.84,-185.23 113.14,-269 0,0 0,0 0.01,0 21.09,-42.08 38.14,-85.14 62,-123.86 0,0 0,0 0,0 22.5,-39.06 44.97,-77.29 66.12,-114.49 0,0 0,0 0,0 20.44,-37.91 46.34,-70.69 68.16,-104.4 0,0 0,0 0,0 23.15,-33.06 43.62,-66.2 67.46,-94.77 0,0 0.01,0 0.01,0 89.98,-115.93 181.98,-231.16 284.2,-336.69 0,0 0,0 0,0 108.36,-111.64 231.06,-209.79 345.57,-315.41 0,0 0,0 0,0 102.92,-97.94 208.54,-192.54 317.59,-283.34 0,0 0,0 0.01,0 239.23,-198.61 493.45,-379.06 765.39,-530.37 0,0 0,0 0,0 -4.09,18.73 -8.18,37.02 -11.58,55.93 0,0 0,0 0,0 -17.75,93.32 -30.01,189.1 -40.22,284.64 0,0 0,0 0,0 -8.18,95.83 -13.64,191.72 -13.64,286.05 0,0 0,0 0,0 -0.69,94.26 3.4,186.89 11.58,275.88 0,0 0,0 0,0 0.68,7.24 1.37,14.08 2.06,21.28 0,0 0,0 0,0 -6.84,39.05 -12.96,78.1 -18.41,117.03 0,0 0,0 0,0 -12.95,105.62 -22.47,210.47 -23.84,312 0,0 0,0 0,0 -6.15,203.39 8.86,393.27 31.33,554.85 0,0 0,0 0,0.01 25.9,195.94 62.04,414.81 143.82,595.27 0,0 0,0 0,0 80.41,177.69 179.95,348.22 297.18,504.02 0,0 0,0 0,0 -17.74,-23.99 -102.94,-12.19 -128.15,-11.94 0,0 0,0 0,0 -62.7,0.77 -124.75,0.89 -186.76,-0.48 0,0 0,0 0,0 -323.74,-7.14 -669.29,-15.51 -954.19,-185.03 0,0 0,0 0,0 -22.49,-13.49 -42.94,-28.69 -64.75,-42.89 0,0 0,0 0,0 -44.3,-27.32 -81.78,-61.6 -121.32,-92.68 0,0 0,0 0,0 -36.82,-33.14 -72.24,-66.32 -104.28,-100.05 0,0 0,0 0,0 -30.67,-33.95 -60.66,-66.6 -85.18,-99.05 0,0 0,0 0,0 -51.14,-63.58 -87.25,-121.65 -111.77,-163.03 0,0 0,0 0,0 -24.53,-41.5 -35.45,-66.79 -35.45,-66.79 0,0 0,0 0,0 0,0 6.15,27.07 21.81,73.01 0,0 0,0 0,0 15.68,46 40.22,111.49 79.04,186.48 0,0 0,0 0,0 17.74,38.21 40.91,77.56 66.12,119.41 0,0 0,0 0,0 25.92,41.5 55.88,83.64 87.93,126.78 0,0 0,0.01 0,0.01 34.08,41.08 68.15,86.4 109.05,125.66 0,0 0,0 0,0 20.44,20.16 40.23,41.49 61.35,61.35 0,0 0,0 0,0 0,0 67.47,56.49 67.47,56.49 0,0 0,0 0,0 43.62,40.1 94.73,69.25 142.44,103.12 0,0 0,0 0,0 49.08,32.99 101.57,56.04 151.31,83.43 0,0 0,0.01 0,0.01 340.09,188.02 761.97,183.12 1140.93,183.12 0,0 0,0 0,0 62.01,0 122.7,-1.78 183.36,-3.61 0,0 0,0 0,0 123.35,113.35 265.11,221.44 429.36,316.86 0,0 0,0 0,0 419.16,244.22 907.84,366.4 1462.64,366.4 0,0 0,0 0,0 88.59,0 179.24,-4.09 271.23,-10.36 0,0 0,0 0,0 -75.63,374.47 -83.81,753.18 25.22,1101.56 0,0 0,0 0,0 77.03,245.84 209.93,451.86 370.78,643.39 0,0 0,0 0,0 -106.33,278.5 -214.02,577.06 -293.06,876.2 0,0 0,0 0,0 -17.72,36.54 -36.82,74.01 -58.63,111.24 0,0 0,0 0,0 -16.35,28.89 -34.77,57.99 -54.52,86.96 0,0 0,0 0,0 0,0 -15.66,21.81 -15.66,21.81 0,0 0,0 0,0 0,0 -0.71,1.35 -1.37,2.06 0,0 0,0 0,0 1.37,-1.04 -2.06,3.12 2.03,-2.06 0,0 0,0 0,0 0,0 -2.03,2.85 -2.03,2.85 0,0 0,0 0,0 0,0 -4.78,5.81 -4.78,5.81 0,0 0,0 0,0 0,0 -8.86,11.58 -8.86,11.58 0,0 0,0 0,0.01 -11.58,15.53 -23.84,31.15 -36.11,46.94 0,0 0,0 0,0 -44.3,52.96 -94.76,111.31 -153.36,162.08 0,0 0,0 0,0 -27.96,27.27 -59.98,50.04 -90.65,75.33 0,0 0,0 0,0 -31.36,23.38 -64.07,46.33 -98.17,68.08 0,0 0,0 0,0 -68.13,41.85 -139.01,80.97 -212.63,111.72 0,0 0,0 0,0 -36.79,15.79 -73.61,31.53 -111.11,43.32 0,0 0,0 0,0 -37.48,12.98 -74.26,26.13 -111.74,35.12 0,0 0,0 -0.01,0 -74.29,22.01 -147.9,35.32 -218.8,48.67 0,0 0,0 0,0 -70.87,9.27 -137.67,20.11 -201.04,22.95 0,0 0,0 0,0 -31.36,2.24 -61.35,4.37 -89.99,6.35 0,0 0,0 0,0 -28.62,0.48 -55.89,0.89 -81.76,1.3 0,0 0,0 0,0 -51.8,1.42 -96.79,1.14 -133.6,-1.1 0,0 0,0 0,0 -74.29,-2.94 -116.55,-4.62 -116.55,-4.62 0,0 0,0 0,0 0,0 42.26,7.21 115.2,19.8 0,0 0,0 0,0 36.79,7.09 81.78,13.31 132.89,18.61 0,0 0,0 0,0 25.9,3.02 53.86,6.15 82.47,9.55 0,0 0,0 0,0 29.3,1.78 59.98,3.61 92,5.59 0,0 0,0 0,0 64.09,5.46 134.29,3.56 208.56,3.56 0,0 0,0 0,0 74.29,-4.17 152.68,-7.93 233.78,-20.67 0,0 0,0 0,0 40.91,-4.37 81.1,-12.93 122.67,-21.58 0,0 0,0 0,0 42.28,-7.37 83.15,-18.89 125.41,-30.75 0,0 0,0 0,0 83.86,-22.77 166.99,-55 248.79,-91.74 0,0 0,0 0,0 8.18,-3.81 16.35,-8.33 23.86,-12.27 0,0 0,0 0,0.01 -390.55,409.53 -1137.53,799.06 -2540.2,563.5 0,0 -0.01,0 -0.01,0 -1286.75,-216.41 -1637.07,-773.98 -1731.84,-1087.08 0,0 0,0 0,0 -105.62,-351.69 14.33,-665.35 179.95,-820.26 0,0 0,0 0.01,0 140.38,-131.41 327.14,-117.97 494.79,-52.28 0,0 0,0 0,0 27.96,15.69 61.35,29.66 91.34,53.04 0,0 0,0 0,0 33.39,19.88 62.03,48.32 94.74,76.86 0,0 0,0 0,0 16.37,14.4 28.64,32.6 44.3,49.15 0,0 0,0 0,0 14.32,17.08 30.67,33.72 42.28,54.16 0,0 0,0 0,0 25.87,39.21 54.51,78.81 73.61,124.47 0,0 0,0 0,0 0,0 32.71,66.78 32.71,66.78 0,0 0,0 0,0 8.18,23.74 17.03,47.33 25.21,70.69 0,0 0,0 0,0 8.18,23.72 16.35,47.18 24.53,70.42 0,0 0,0 0,0 5.46,24.12 10.92,47.96 16.35,71.43 0,0 0,0 0,0 9.55,47.38 24.55,92.88 27.26,137.74 0,0 0,0 0,0 6.13,44.84 10.9,87.22 16.38,126.35 0,0 0,0 0,0 6.12,39.34 4.75,75.67 6.78,107.96 0,0 0,0.01 0,0.01 1.37,32.37 2.06,60.58 2.74,83.81 0,0 0,0 0,0 2.03,46.84 2.75,73.56 2.75,73.56 0,0 0,0 0,0 0,0 4.77,-26.3 12.92,-72.26 0,0 0,0 0,0 3.41,-23.16 8.87,-51.24 14.33,-83.41 0,0 0,0 0,0 4.78,-32.38 13.64,-68.77 15.66,-109.18 0,0 0,0 0,0 3.41,-40.56 6.83,-84.45 10.92,-130.93 0,0 0,0 0,0 6.13,-46.76 1.38,-96.23 1.38,-148.03 0,0 0,0 0,0 0,-25.97 -0.69,-52.35 -1.38,-79.14 0,0 0,0 0,0 -3.4,-26.71 -6.8,-53.78 -10.23,-81.05 0,0 0,0 0,0 -3.41,-27.52 -7.5,-55.32 -10.9,-83.2 0,0 0,0 0,0 0,0 -21.15,-83 -21.15,-83 0,0 0,0 0,-0.01 -10.89,-56.57 -33.36,-110.47 -55.17,-164.58 0,0 0,0 0,0 -9.55,-27.7 -24.55,-52.76 -38.19,-78.25 0,0 0,0 0,0 -14.33,-25.01 -26.59,-51.47 -42.94,-74.7 0,0 0,0 0,0 -33.4,-46.41 -65.44,-92.55 -104.28,-130.18 0,0 0,0 0,0 -35.43,-40.84 -76.32,-71.79 -113.14,-102.56 0,0 0,0 -0.01,0 -87.21,-73.62 -207.87,-132.25 -320.99,-149.41 0,0 0,0 0,0 -68.16,-10.31 -137.01,-9.34 -205.14,2.8 0,0 0,0 0,0 -139.72,25.01 -267.19,97.12 -370.1,193.55 0,0 0,0 0,0 -295.1,276.16 -406.89,751.29 -276.72,1182.1 0,0 0,0 0,0 117.92,391.97 536.4,1086.62 2012.65,1334.78 0,0 0,0 0.01,0 315.56,53.06 601.82,76.39 860.81,76.39 0,0 0.01,0 0.01,0 982.11,0 1573.02,-336.16 1913.82,-657.03 0,0 0,0 0,0 44.99,-42.66 85.87,-86.02 124.72,-129.42 0,0 0,0 0,0 5.44,75.79 14.98,150.29 31.36,222.3 0,0 0,0 0,0 98.83,445.57 348.27,838.07 588.85,1217.62 0,0 0,0 0,0 22.5,34.76 44.31,69.19 65.44,103.51 0,0 0,0.01 0,0.01 95.42,323.68 233.09,681.02 421.88,1077.63 0,0 0,0 0,0 -25.21,181.22 -15.66,346.28 27.3,497.46 0,0 0,0 0,0 -1.38,3.66 -3.43,7.5 -4.78,11.18 0,0 0,0 0,0 -154.05,312.84 -447.8,430.07 -749.74,299.01 0,0 0,0 0,0 -88.61,-38.6 -222.19,-106.74 -276.03,-192.95 0,0 0,0 0,0 -16.35,-26.12 -32.04,-56.24 -44.99,-89.48 0,0 0,0 0,0 -26.58,-66.35 -43.62,-145.34 -45.65,-224.86 0,0 0,0 0,0 -2.74,-79.34 10.24,-160.22 42.94,-224.23 0,0 0,0 0,0 15.67,-32.57 37.48,-59.36 62.72,-79.72 0,0 0,0 0,0 11.56,-11.48 26.56,-17.87 40.2,-26.33 0,0 0,0 0,0 14.33,-4.7 28.64,-12.75 43.63,-14.53 0,0 0,0 0,0 14.97,-3.58 29.3,-6.05 44.3,-5.99 0,0 0,0 0,0 14.33,-1.43 27.93,-0.89 40.91,0.76 0,0 0,0 0,0 26.56,0.94 49.05,7.97 68.84,11.5 0,0 0,0 0,0 36.79,11.08 58.58,18.74 58.58,18.74 0,0 0,0 0,0 0,0 -18.38,-12.45 -53.14,-32.91 0,0 0,0 0,0 -18.41,-8.31 -39.54,-21.25 -67.5,-29.38 0,0 0,0 0,0 -13.61,-5.18 -27.93,-9.62 -44.28,-12.06 0,0 0,0 0,0 -16.34,-4.09 -34.1,-5.72 -52.48,-5.87 0,0 0,0 0,0 -19.09,-2.11 -38.85,2.46 -59.29,4.45 0,0 0,0 0,0 -19.75,5.63 -42.28,10.16 -62.03,20.71 0,0 0,0 0,0 -40.88,18.61 -80.41,48.45 -112.46,85.67 0,0 0,0 0,0 -64.75,74.14 -104.93,170.86 -127.44,269.56 0,0 0,0 0,0 -21.81,99.1 -26.58,202.06 -14.32,299.62 0,0 0,0 0,0 6.12,48.8 16.34,96.28 29.98,141.2 0,0 0,0 0,0 13.64,45.06 32.05,87.24 52.49,125.76 0,0 0,0 0,0 72.93,132.5 196.95,226.62 333.97,285.96 0,0 0,0 0,0 127.45,55.58 256.93,82.29 382.35,82.29 0,0 0,0 0,0 270.59,0 522.75,-124.73 701.99,-351.98 0,0 0,0.01 0,0.01 179.26,227.25 431.42,351.97 702.02,351.97 0,0 0,0 0,0 125.41,0 254.9,-26.71 383.05,-82.29 0,0 0,0 0,0 136.3,-59.34 261.02,-153.47 333.29,-285.96 0,0 0,0 0,0 20.44,-38.52 38.83,-80.69 52.46,-125.76 0,0 0,0 0,0 13.61,-44.92 23.87,-92.4 29.99,-141.2 0,0 0,0 0,0 12.27,-97.56 8.18,-200.52 -14.33,-299.62 0,0 0,0 0,0 -21.81,-98.7 -62.01,-195.41 -127.44,-269.56 0,0 0,0 0,0 -31.36,-37.22 -70.9,-67.06 -112.46,-85.67 0,0 0,0 0,0 -19.77,-10.56 -41.57,-15.08 -61.34,-20.71 0,0 0,0 0,0 -21.13,-1.99 -40.89,-6.56 -59.29,-4.45 0,0 0,0 0,0 -19.07,0.15 -36.82,1.78 -52.49,5.87 0,0 0,0 0,0 -16.34,2.44 -31.35,6.88 -44.96,12.06 0,0 0,0 0,0 -27.95,8.13 -49.08,21.07 -67.49,29.38 0,0 0,0 0,0 -34.08,20.46 -53.17,32.91 -53.17,32.91 0,0 0,0 0,0 0,0 21.81,-7.67 59.32,-18.74 0,0 0,0 0,0 19.06,-3.53 41.56,-10.56 68.15,-11.5 0,0 0,0 0,0 12.95,-1.65 27.27,-2.19 41.57,-0.76 0,0 0,0 0,0 14.32,-0.06 28.64,2.41 43.63,5.99 0,0 0,0 0,0 14.97,1.78 29.3,9.83 44.3,14.53 0,0 0,0 0,0 13.64,8.46 27.95,14.85 40.22,26.33 0,0 0,0 0,0 25.21,20.36 47.02,47.15 62.69,79.72 0,0 0.01,0 0.01,0.01 32.7,64.01 44.96,144.88 42.94,224.22 0,0 0,0 0,0 -2.72,79.53 -19.75,158.52 -46.34,224.86 0,0 0,0 0,0 -12.98,33.24 -27.95,63.36 -44.3,89.48 0,0 0,0 0,0 -53.83,86.21 -188.1,154.36 -276.72,192.95 0,0 0,0 0,0 -301.93,131.07 -595.68,13.84 -749.74,-299.01 0,0 0,0 0,0 -1.34,-3.68 -2.71,-7.52 -4.77,-11.18 0,0 0,0 0,0 42.96,-151.18 52.51,-316.24 27.29,-497.46 0,0 0,-0.01 0,-0.01 188.77,-396.61 326.46,-753.94 421.86,-1077.63 0,0 0,0 0,0 21.81,-34.33 43.65,-68.76 65.46,-103.51 0,0 0,0 0,0 241.25,-379.55 490.02,-772.05 589.54,-1217.62 0,0 0,0 0,0 15.68,-72.02 25.23,-146.51 30.67,-222.3 0,0 0,0 0,0 38.85,43.4 79.73,86.76 125.41,129.42 0,0 0,0 0,0.01 340.12,320.86 931,657.02 1913.83,657.02 0,0 0,0 0,0 258.99,0 544.57,-23.33 860.82,-76.39 0,0 0,-0.01 0.01,-0.01 1476.24,-248.15 1894.72,-942.8 2012.64,-1334.77 0,0 0,0 0,0 129.5,-430.82 18.4,-905.94 -277.41,-1182.1 0,0 0,0 0,0 -102.91,-96.44 -230.37,-168.54 -370.1,-193.55 0,0 0,0 0,0 -67.47,-12.14 -136.98,-13.11 -205.14,-2.8 0,0 0,0 0,0 -113.11,17.16 -233.77,75.79 -320.99,149.41 0,0 0,0 0,0 -36.14,30.77 -77.72,61.72 -113.14,102.56 0,0 0,0 0,0 -38.2,37.63 -70.22,83.76 -103.62,130.18 0,0 0,0 0,0 -16.32,23.23 -28.62,49.69 -43.6,74.7 0,0 0,0 0,0 -13.64,25.49 -28.64,50.55 -38.2,78.25 0,0 0,0 0,0 -21.09,54.11 -43.62,108.01 -55.17,164.59 0,0 0,0 0,0 0,0 -21.15,83 -21.15,83 0,0 0,0 0,0 -3.4,27.88 -6.8,55.68 -10.89,83.2 0,0 0,0 0,0 -3.43,27.27 -6.84,54.34 -10.24,81.05 0,0 0,0 0,0 0,26.79 -0.69,53.17 -1.35,79.14 0,0 0,0 0,0 0,51.8 -4.77,101.27 1.35,148.03 0,0 0,0 0,0 4.09,46.47 7.49,90.37 10.92,130.93 0,0 0,0 0,0 2.03,40.42 10.9,76.8 15.66,109.18 0,0 0,0 0,0 6.15,32.17 10.93,60.25 14.98,83.41 0,0 0,0 0,0 8.2,45.95 12.27,72.26 12.27,72.26 0,0 0,0 0,0 0,0 1.37,-26.71 2.74,-73.56 0,0 0,0 0,0 0.69,-23.23 2.03,-51.44 2.74,-83.82 0,0 0,0 0,0 2.04,-32.29 0.66,-68.63 7.5,-107.96 0,0 0,0 0,0 4.77,-39.13 10.21,-81.5 15.66,-126.35 0,0 0,0 0,0 3.4,-44.86 17.72,-90.36 27.27,-137.74 0,0 0,0 0,0 5.43,-23.46 10.92,-47.3 17.03,-71.43 0,0 0,0 0,0 8.18,-23.23 16.35,-46.69 24.53,-70.42 0,0 0,0 0,0 8.18,-23.35 16.35,-46.94 24.52,-70.69 0,0 0,0 0,0 0,0 32.74,-66.78 32.74,-66.78 0,0 0,0 0,0 19.75,-45.65 47.7,-85.26 73.58,-124.47 0,0 0,0 0,0 11.61,-20.44 27.96,-37.08 42.97,-54.16 0,0 0,0 0,0 14.98,-16.55 27.93,-34.76 43.63,-49.15 0,0 0,0 0,0 32.7,-28.54 62.01,-56.98 94.74,-76.86 0,0 0,0 0,0 29.98,-23.38 63.37,-37.35 91.33,-53.04 0,0 0,0 0,0 167.66,-65.69 354.41,-79.12 494.8,52.28 0,0 0,0 0,0 166.31,154.91 285.57,468.57 179.95,820.26 0,0 0,0.01 0,0.01 -94.08,313.09 -444.4,870.66 -1731.84,1087.07 0,0 -0.01,0.01 -0.01,0.01 -1402.66,235.55 -2149.65,-153.98 -2540.2,-563.52 0,0 0,0 0,0 8.2,3.94 15.69,8.46 23.87,12.27 0,0 0,0 0,0 81.78,36.74 164.93,68.97 248.79,91.74 0,0 0,0 0,0 42.25,11.86 83.81,23.38 125.41,30.75 0,0 0,0 0,0 41.57,8.66 82.44,17.21 123.35,21.58 0,0 0,0 0,0 80.41,12.75 159.49,16.5 233.09,20.67 0,0 0,0 0,0 74.27,0 144.5,1.9 208.57,-3.56 0,0 0,0 0,0 32.02,-1.98 62.69,-3.81 91.99,-5.59 0,0 0,0 0,0 29.3,-3.4 56.57,-6.53 82.47,-9.55 0,0 0,0 0,0 51.8,-5.31 96.11,-11.53 132.89,-18.61 0,0 0,0 0,0 73.62,-12.6 115.2,-19.8 115.2,-19.8 0,0 0,0 0,0 0,0 -42.25,1.68 -116.54,4.62 0,0 0,0 0,0 -36.82,2.24 -81.81,2.52 -133.61,1.1 0,0 0,0 0,0 -25.18,-0.41 -52.45,-0.82 -81.76,-1.3 0,0 0,0 0,0 -28.64,-1.98 -58.62,-4.11 -89.98,-6.35 0,0 0,0 0,0 -62.7,-2.84 -130.19,-13.69 -201.05,-22.95 0,0 0,0 0,0 -70.21,-13.36 -144.5,-26.66 -218.78,-48.67 0,0 0,0 0,0 -37.5,-8.99 -74.29,-22.14 -111.77,-35.12 0,0 0,0 0,0 -37.5,-11.79 -74.31,-27.52 -111.11,-43.32 0,0 0,0 0,0 -73.61,-30.75 -144.5,-69.88 -212.63,-111.72 0,0 0,0 0,0 -33.41,-21.74 -66.12,-44.69 -98.16,-68.08 0,0 0,0 0,0 -30.68,-25.29 -62.7,-48.06 -90.65,-75.33 0,0 0,0 0,0 -58.61,-50.76 -109.05,-109.11 -153.34,-162.08 0,0 0,0 0,0 -12.3,-15.79 -24.55,-31.41 -36.14,-46.95 0,0 0,0 0,0 0,0 -8.86,-11.58 -8.86,-11.58 0,0 0,0 0,0 0,0 -4.78,-5.81 -4.78,-5.81 0,0 0,0 0,0 0,0 -2.03,-2.85 -2.03,-2.85 0,0 0,0 0,0 4.78,5.18 1.37,1.02 2.03,2.06 0,0 0,0 0,0 -0.66,-0.71 -1.37,-2.06 -1.37,-2.06 0,0 0,0 0,0 0,0 -14.97,-21.81 -14.97,-21.81 0,0 0,0 0,0 -20.44,-28.97 -38.17,-58.07 -55.2,-86.96 0,0 0,0 0,0 -21.81,-37.23 -40.91,-74.7 -58.63,-111.24 0,0 0,0 0,0 -79.04,-299.14 -186.73,-597.72 -292.38,-876.2 0,0 0,0 0,0 160.17,-191.54 293.06,-397.56 370.07,-643.39 0,0 0,0 0,-0.01 109.74,-348.36 100.89,-727.07 25.24,-1101.55 0,0 0,0 0,0 91.99,6.27 182.64,10.36 271.23,10.36 0,0 0,0 0.01,0 554.79,0 1043.48,-122.18 1463.32,-366.4 0,0 0,0 0,0 163.57,-95.42 306.02,-203.51 429.39,-316.86 0,0 0,0 0,0 59.95,1.83 120.63,3.61 183.33,3.61 0,0 0,0 0,0 378.28,0 800.84,4.9 1140.24,-183.13 0,0 0.01,0 0.01,0 49.73,-27.39 102.91,-50.45 151.3,-83.43 0,0 0,0 0,0 47.71,-33.87 99.52,-63.02 143.13,-103.12 0,0 0,0 0,0 0,0 66.79,-56.49 66.79,-56.49 0,0 0,0 0,0 21.14,-19.86 40.9,-41.19 61.34,-61.35 0,0 0,0 0,0 41.57,-39.26 74.98,-84.58 109.05,-125.67 0,0 0,0 0,0 32.05,-43.14 62.04,-85.28 87.93,-126.78 0,0 0.01,0 0.01,0 25.21,-41.85 48.36,-81.2 66.78,-119.41 0,0 0,0 0,0 38.16,-74.98 62.69,-140.47 78.38,-186.48 0,0 0,0 0,0 16.34,-45.93 21.81,-73.01 21.81,-73.01 0,0 0,0 0,0 0,0 -10.93,25.29 -35.45,66.79 0,0 0,0 0,0 -24.53,41.39 -60.64,99.46 -111.77,163.03 0,0 0,0 0,0 -24.53,32.45 -53.83,65.1 -85.19,99.05 0,0 0,0 0,0 -31.36,33.73 -67.49,66.91 -104.28,100.05 0,0 0,0 0,0 -38.85,31.08 -77.01,65.36 -121.32,92.68 0,0 0,0 0,0 -21.12,14.2 -42.26,29.4 -64.06,42.89 0,0 -0.01,0 -0.01,0 -285.57,169.51 -631.13,177.89 -954.18,185.03 0,0 0,0 0,0 -62.72,1.37 -124.75,1.25 -187.44,0.48 0,0 0,0 0,0 -25.22,-0.25 -109.72,-12.06 -128.16,11.94 0,0 0,0 0,0 117.92,-155.8 216.77,-326.33 297.87,-504.02 0,0 0,0 0,0 81.78,-180.46 117.23,-399.32 143.79,-595.28 0,0 0,0 0,0 21.81,-161.59 36.82,-351.46 31.36,-554.85 0,0 0,0 0,0 -2.06,-101.54 -11.58,-206.38 -24.53,-312 0,0 0,0 0,0 -5.46,-38.93 -11.6,-77.98 -18.4,-117.03 0,0 0,0 0,0 0.68,-7.21 2.06,-14.05 2.06,-21.28 0,0 0,0 0,0 8.86,-88.99 12.26,-181.62 12.26,-275.88 0,0 0,0 0,0 0,-94.33 -5.46,-190.23 -14.32,-286.05 0,0 0,0 0,0 -10.21,-95.55 -21.81,-191.33 -40.23,-284.64 0,0 0,0 0,0 -3.4,-18.91 -7.49,-37.2 -11.55,-55.93 0,0 0,0 0,0 271.92,151.31 526.82,331.76 765.37,530.37 0,0 0,0 0,0 109.05,90.8 215.37,185.41 317.59,283.34 0,0 0,0 0,0 114.52,105.62 237.21,203.77 345.58,315.41 0,0 0,0 0,0 102.91,105.52 194.24,220.76 284.88,336.69 0,0 0,0 0,0 23.85,28.57 43.63,61.71 66.79,94.77 0,0 0,0 0,0 21.81,33.72 47.7,66.5 68.15,104.4 0,0 0,0 0,0 21.81,37.2 43.63,75.43 66.12,114.49 0,0 0,0 0,0 23.87,38.72 40.91,81.78 62.03,123.86 0,0 0,0 0,0 44.28,83.77 77.01,175.89 113.12,269 0,0 0,0 0,0 19.78,46 31.36,95.14 45.68,143.61 0,0 0,0 0,0 14.32,48.72 28.64,97.66 42.94,146.66 0,0 0,0 0,0 19.06,100.12 42.25,200.18 57.25,300.23 0,0 0,0 0,0 9.55,100.48 23.84,199.78 29.99,296.5 0,0 0,0 0,0 1.35,97.17 3.41,191.17 4.78,280.24 0,0 0,0 0,0 -2.06,89.22 -10.93,173.44 -15.69,251.62 0,0 0,0 0,0 -2.72,39.13 -4.75,76.63 -7.49,112.25 0,0 0,0 0,0 -2.75,35.73 -10.24,68.77 -14.3,100.41 0,0 0,0 0,0 -9.55,63.04 -18.43,118.04 -25.24,163.31 0,0 0,0 0,0 -14.33,90.82 -22.5,142.77 -22.5,142.77 0,0 0,0 0,0 0,0 13.64,-50.7 37.48,-139.44 0,0 0,0 0,0 11.61,-44.59 25.93,-98.63 42.97,-160.66 0,0 0,0 0,0 7.49,-31.21 18.38,-63.94 24.53,-99.44 0,0 0,0 0,0 6.12,-35.52 12.95,-72.87 19.75,-111.84 0,0 0,0 0,0 12.95,-78.1 31.36,-162.63 42.94,-253 0,0 0,0 0,0 7.52,-91.1 16.37,-187.24 25.24,-286.59 0,0 0,0 0,0 4.06,-99.79 0.66,-203.38 1.34,-309.14z"/>
 </g>
</svg>
