<?xml version="1.0" encoding="UTF-8"?>
<!DOCTYPE svg PUBLIC "-//W3C//DTD SVG 1.1//EN" "http://www.w3.org/Graphics/SVG/1.1/DTD/svg11.dtd">
<!-- Creator: CorelDRAW 2020 (64-Bit) -->
<svg xmlns="http://www.w3.org/2000/svg" xml:space="preserve" width="191.131mm" height="205.497mm" version="1.1" style="shape-rendering:geometricPrecision; text-rendering:geometricPrecision; image-rendering:optimizeQuality; fill-rule:evenodd; clip-rule:evenodd"
viewBox="0 0 19113.12 20549.72"
 xmlns:xlink="http://www.w3.org/1999/xlink"
 xmlns:xodm="http://www.corel.com/coreldraw/odm/2003">
 <defs>
  <style type="text/css">
   <![CDATA[
    .str0 {stroke:#333333;stroke-width:7.62;stroke-linejoin:bevel;stroke-miterlimit:22.9256}
    .fil0 {fill:#373435}
   ]]>
  </style>
 </defs>
 <g id="Layer_x0020_1">
  <metadata id="CorelCorpID_0Corel-Layer"/>
  <path class="fil0 str0" d="M9557.26 15366.63c-99.62,191.77 -289.56,328.98 -372.62,530.66 0,0 0,0 0,0 -74.62,181.15 -113.13,440.21 -197.79,640.92 0,0 0,0 0,0 -80.34,190.58 -207.64,322.93 -257.25,496.67 0,0 0,0 0,0 -34.7,121.41 -80.24,659.66 -15.67,1056.67 0,0 0,0 0,0 17.42,106.85 59.33,381.71 167.64,645.84 0,0 0,0 0,0 43.76,106.89 135.02,173 183.23,285.93 0,0 0,0 0,0 51.01,119.68 65.76,239.62 124.64,353.11 0,0 0,0 0,0 272.92,525.86 134.39,590.32 391.03,1037.97 0,0 0,0 0,0 0,0 -40.23,39.27 -40.23,39.27 0,0 0,0 0,0 -188.24,-278.38 -312.55,-564.97 -516.71,-825.83 0,0 0,0 0,0 -65.51,-83.8 -233.55,-117.93 -291.85,-209.6 0,0 0,0 0,0 -64.87,-102.24 -37.44,-302.85 -104.9,-402.62 0,0 0,0 0,0 -67.67,-100.17 -170.41,-165.3 -238.1,-265.48 0,0 0,0 0,0 0,0 -289.89,-41.17 -289.89,-41.17 0,0 0,0 0,0 -34.03,-273.81 151.99,-516.43 55.22,-774.8 0,0 0,0 0,0 -87.2,-233.02 -294.64,-571.4 -273.1,-975.57 0,0 0,0 0,0 -126.47,65.1 -352.2,-85.54 -478.64,-20.49 0,0 0,0 0,0 -158.62,81.63 -308.2,182.72 -454.18,291.59 0,0 0,0 0,0 -163.57,121.92 -550.16,26.11 -712.31,151.08 0,0 0,0 0,0 -174.86,134.82 -370.74,191.77 -317.27,587.75 0,0 0,0 0,0 0,0 -261.68,-15.03 -261.68,-15.03 0,0 0,0 0,0 -26.11,-16.77 -232.99,-529.34 20.83,-756.14 0,0 0,0 0,0 105.29,-93.95 189.36,-284.98 374.17,-375.89 0,0 0,0 0,0 177.62,-87.38 407.52,-150.52 604.62,-237.16 0,0 0,0 0,0 349.63,-153.54 734.82,-231.75 914.38,-392.18 0,0 0,0 0,0 99.49,-76.96 197.1,-191.18 288.44,-256.41 0,0 0,0 0,0 147.7,-105.54 278.71,-158.34 373.68,-282.35 0,0 0,0 0,0 66.53,-86.69 86.36,-220.19 120.43,-322.25 0,0 0,0 0,0 45.72,-136.9 93.87,-245.26 92.4,-375.51 0,0 0,0 0,0 -85.57,59.26 -171.53,116.28 -257.78,170.77 0,0 0,0 0,0 -132.59,83.79 -347.73,-7.35 -482.12,64.13 0,0 0,0 0,0 -164.26,87.45 -281.97,299.29 -449.28,396.42 0,0 0,0 0,0 -84.96,49.25 -417.8,251.1 -896.62,321.59 0,0 0,0 0,0 -264.64,39.04 -594.18,-87.68 -903.17,-5.26 0,0 0,0 0,0 -314.33,83.9 -686.87,434.24 -1000.96,536.14 0,0 0,0 0,0 -179.05,58.14 -387.48,-3.68 -551.62,37.72 0,0 0,0 0,0 -232.43,58.63 -389.66,226.32 -569.44,276 0,0 0,0 0,0 -334.34,92.48 -617.57,49.33 -698.65,57.35 0,0 0,0 0,0 0,0 -1.68,-331.85 -1.68,-331.85 0,0 0,0 0,0 331.19,-134.9 709.02,-199.77 1040.24,-334.59 0,0 0,0 0,0 213.48,-86.95 497,-278.9 710.51,-365.84 0,0 0,0 0,0 -387.4,67.84 -732.51,-17.86 -1105.21,-152.73 0,0 0,0 0,0 -391.94,-141.83 -869.13,-34.39 -1244.7,-401.55 0,0 0,0 0,0 152.76,-72.24 104.8,-348.23 100.51,-353.52 0,0 0,0 0,0 -73.15,-90.75 316.23,120.5 649.33,208.31 0,0 0,0 0,0 321.87,84.78 719.6,102.82 1118.18,103.71 0,0 0,0 0,0 168.28,0.4 356.41,-151.84 525.27,-163.32 0,0 0,0 0,0 166.63,-11.26 278.54,105.05 437.01,92.81 0,0 0,0 0,0 305.13,-23.65 526.26,-260.53 770.08,-307.14 0,0 0,0 0,0 377.8,-72.34 712.14,42.14 739.52,27.28 0,0 0,0 0,0 103.15,-56.06 150.09,-185.65 245.74,-248.39 0,0 0,0 0,0 119.33,-78.36 274.4,-73.38 383.24,-159.84 0,0 0,0 0,0 135.96,-108.03 152.02,-323.52 269.97,-447.09 0,0 0,0 0,0 126.12,-132.23 368.74,-245.82 481.36,-387.63 0,0 0,0 0,0 183.69,-231.29 60.83,-502.39 176.83,-765.17 0,0 0,0 0.01,0 182.57,-413.69 560.32,-840.92 630.07,-1321.46 0,0 0,0 0,0 -18.27,-131.78 -81.21,-262.36 -91.6,-390 0,0 0,0 0,0 -13.2,-161.64 -102.31,-236.9 -131.82,-384.98 0,0 0,0 0,0 -30.25,-151.85 19.23,-368.33 -14.48,-509.65 0,0 0,0 0,-0.01 -45.11,-188.46 -287.3,-549.42 -128.52,-663.87 0,0 0,0 0,0 187.55,-135.18 -205.57,-789.06 134.49,-861.6 0,0 0,0 0,0 782.07,-166.98 343.1,-1513.02 116.76,-1967.23 0,0 0,0 0,0 -124.89,-250.82 -308.2,-349.96 -433.09,-600.71 0,0 0,0 0,0 -67.11,-376.17 1.32,-669.74 30.66,-975.43 0,0 0,0 0,0 21.26,-221.34 35.48,-456.67 29.43,-687.96 0,0 0,0 0,-0.01 -29.43,-1123.18 682.83,-2293.38 1298.02,-3192.75 0,0 0,0 0,0 -115.47,-181.43 -204.39,-315.01 -243.51,-381.96 0,0 0,0 0,0 0,0 140.26,-240.29 140.26,-240.29 0,0 0,0 0,0 80.85,118.62 171.27,247.5 267.33,384.84 0,0 0,0 0.01,0 120.34,-172.75 233.5,-333 332.43,-478.16 0,0 0,0 0,0 0,0 140.26,240.29 140.26,240.29 0,0 0,0 0,0 -45.87,78.36 -159.77,247.98 -304.93,479.14 0,0 0,0 0,0.01 628.04,910.38 1389.79,2121.43 1359.41,3282.23 0,0 0,0 0,0 -6.02,231.27 8.23,466.57 29.46,688.01 0,0 0,0 0,0 29.34,305.59 97.77,599.19 30.66,975.34 0,0 0,0 0,0 -124.99,250.8 -308.23,349.88 -433.2,600.73 0,0 0,0 0,0 -226.23,454.21 -665.2,1800.25 116.9,1967.21 0,0 0,0 0,0 340.02,72.67 -53.09,726.46 134.36,861.59 0,0 0,0 0,0 158.85,114.48 -83.39,475.44 -128.45,663.88 0,0 0,0 0,0 -33.78,141.35 15.8,357.81 -14.45,509.68 0,0 0,0 0,0 -29.59,148.08 -118.72,223.34 -131.83,384.98 0,0 0,0 0,0 -10.41,127.64 -73.32,258.22 -91.69,389.97 0,0 0,0 0,0 69.85,480.57 447.52,907.8 630.15,1321.51 0,0 0,0 0,0 115.98,262.74 -6.83,533.93 176.83,765.13 0,0 0,0 0,0 112.65,141.83 355.17,255.42 481.41,387.65 0,0 0,0 0,0 117.83,123.57 133.96,339.06 269.85,447.09 0,0 0,0 0,0 108.94,86.44 263.91,81.48 383.36,159.84 0,0 0,0 0,0 95.63,62.74 142.57,192.33 245.67,248.36 0,0 0,0 0,0 27.43,14.96 361.77,-99.56 739.57,-27.25 0,0 0,0 0,0 243.84,46.69 464.95,283.52 770.11,307.11 0,0 0,0 0,0 158.36,12.27 270.35,-104.01 436.98,-92.78 0,0 0,0 0,0 168.78,11.48 356.99,163.75 525.19,163.32 0,0 0,0 0,0 398.66,-0.92 796.39,-18.93 1118.24,-103.74 0,0 0,0 0,0 333.02,-87.78 722.5,-299.03 649.27,-208.28 0,0 0,0 0,0 -4.21,5.29 -52.25,281.28 100.59,353.52 0,0 0,0 0,0 -375.57,367.13 -852.78,259.69 -1244.78,401.52 0,0 0,0 0,0 -372.62,134.88 -717.7,220.63 -1105.21,152.73 0,0 0,0 0,0 213.59,87 497.11,278.92 710.62,365.87 0,0 0,0 0,0 331.17,134.79 708.99,199.69 1040.21,334.56 0,0 0,0 0,0 0,0.01 -1.68,331.88 -1.68,331.88 0,0 0,0 0,0 -81.08,-8.03 -364.41,35.13 -698.68,-57.35 0,0 0,0 0,0 -179.75,-49.68 -336.95,-217.4 -569.49,-276 0,0 0,0 0,0 -164.14,-41.43 -372.52,20.4 -551.54,-37.67 0,0 0,0 0,0 -314.17,-101.93 -686.71,-452.32 -1001.04,-536.22 0,0 0,0 0,0 -308.89,-82.39 -638.45,44.33 -903.17,5.31 0,0 0,0 0,0 -478.74,-70.51 -811.58,-272.34 -896.57,-321.61 0,0 0,0 0,0 -167.31,-97.06 -284.99,-308.97 -449.25,-396.34 0,0 0,0 0,0 -134.36,-71.58 -349.5,19.61 -482.19,-64.24 0,0 0,0 0,0 -86.21,-54.46 -172.16,-111.48 -257.69,-170.74 0,0 0,0 0,0 -1.52,130.25 46.56,238.71 92.38,375.51 0,0 0,0 0,0 34.07,102.06 53.9,235.56 120.35,322.25 0,0 0,0 0,0 95.05,123.98 226.06,176.86 373.76,282.35 0,0 0,0 0,0 91.26,65.23 188.95,179.45 288.37,256.46 0,0 0,0 0,0 179.63,160.35 564.82,238.59 914.35,392.16 0,0 0,0 0,0 197.15,86.63 427,149.75 604.67,237.1 0,0 0,0 0,0 184.78,90.94 268.93,281.94 374.22,375.92 0,0 0,0 0,0 253.82,226.85 46.94,739.35 20.8,756.16 0,0 0,0 0,0 0,0 -261.67,15.09 -261.67,15.09 0,0 0,0 0,0 53.49,-396.06 -142.42,-452.98 -317.3,-587.83 0,0 0,0 0,0 -162.08,-124.97 -548.69,-29.16 -712.27,-151.08 0,0 0,0 0,0 -146.02,-108.89 -295.63,-209.93 -454.17,-291.59 0,0 0,0 0,0 -126.55,-65.08 -352.2,85.59 -478.74,20.47 0,0 0,0 0,0 21.64,404.16 -185.78,742.59 -273.1,975.56 0,0 0,0 0,0 -96.67,258.47 89.35,500.99 55.29,774.83 0,0 0,0 0,0 0,0 -289.86,41.17 -289.86,41.17 0,0 0,0 0,0 -67.69,100.18 -170.44,165.28 -238.13,265.48 0,0 0,0 0,0 -67.43,99.77 -40,300.38 -104.95,402.59 0,0 0,0 0,0 -58.19,91.77 -226.24,125.83 -291.87,209.63 0,0 0,0 0,0 -204.17,260.86 -328.37,547.42 -516.59,825.83 0,0 0,0 0,0 0,0 -40.33,-39.27 -40.33,-39.27 0,0 0,0 0,0 256.64,-447.65 118.11,-512.14 391.06,-1038 0,0 0,0 0,0 58.9,-113.48 73.71,-233.4 124.71,-353.03 0,0 0,0 0,0 48.19,-112.98 139.42,-179.07 183.24,-285.98 0,0 0,0 0,0 108.28,-264.06 150.19,-538.99 167.54,-645.84 0,0 0,0 0,-0.01 64.64,-397 18.99,-935.25 -15.63,-1056.69 0,0 0,0 0,0 -49.65,-173.73 -176.91,-306.04 -257.32,-496.64 0,0 0,0 0,0 -84.61,-200.69 -123.07,-459.74 -197.69,-640.92 0,0 0,0 0,0 -90.1,-218.59 -305.56,-361.44 -395.68,-580.06 0,0 0,0 0,0 0,0 -0.23,0.08 -0.23,0.08 0,0 0,0 0,0 0,0 0,-44 0,-44zm-16.64 -13828.44c0,0 0,0 0,0 0,0 0,0 0,0 -486.41,810.92 -1136.65,2082.42 -967.03,3032.12 0,0 0,0 0,0 251.26,1406.45 909.83,1139.65 997.23,3475.08 0,0 0,0 0,0 101.15,-2235.48 745.52,-1994.23 993.32,-3381.68 0,0 0,0 0,0 176.4,-987.07 -532.94,-2321.59 -1023.52,-3125.52zm-418.46 5321.91c-495.68,-510.62 -826.42,-704.01 -1515.39,-904.42 0,0 0,0 0,0 -983.21,-285.8 -3849.09,-494.77 -4710.28,-46.18 0,0 0,0 0,0 -208.46,108.61 -812.34,584.03 -952.04,789.77 0,0 0,0 0,0 -61.55,90.6 -421.69,911.27 -447.96,1057.47 0,0 0,0 0,0 -43.84,243.51 -32.94,744.17 56.44,970.38 0,0 0,0 0,0 108.59,-275 61.9,-616.68 153.9,-921.94 0,0 0,0 0,0 25.53,-84.61 402.69,-777.29 438.99,-839.29 0,0 0,0 0,0 127.46,-217.96 633.3,-530.45 840.59,-655.09 0,0 0,0 0,0 536.09,-322.35 2592.98,-111.61 3253.3,-23.75 0,0 0,0 0,0 880.8,117.22 1736.35,313.28 2349.91,993.85 0,0 0,0 0,0 116.1,147.04 329.54,172.08 476.56,55.88 0,0 0,0 0,0 147.14,-116.21 172.18,-329.51 55.98,-476.68zm-595.46 -1656.74c-544.37,-887.63 -657.42,-984 -1620.95,-1381.58 0,0 0,0 0,0 -1144.93,-472.37 -2956.84,-86.77 -3671.36,984.83 0,0 0,0 0,0 -162.21,243.18 -287.81,581.33 -254.69,878 0,0 0,0 0,0 0,0 89.76,312.65 89.76,312.65 0,0 0,0 0,0 24.82,-192.99 40.03,-394.41 102.75,-578.74 0,0 0,0 0,0 412.65,-1213.46 2444.85,-1637.16 3503.95,-1134.36 0,0 0,0 0,0 845.03,401.24 870.92,414.35 1318.92,1223.69 0,0 0,0 0,0 84.15,146.74 271.25,197.56 418.06,113.49 0,0 0,0 0,0 146.79,-84.05 197.61,-271.17 113.56,-417.98zm-2330.8 538.27c-207.87,-90.09 -719.07,-620.31 -806.53,-812.74 0,0 0,-0.01 0,-0.01 -308.3,-678.78 -278.97,-1558.13 451.87,-1942.54 0,0 0,0 0,0 673.45,-354.3 1688.16,-218.56 2302.86,207.04 0,0 0,0 0,0 0,0 214.23,173.15 214.23,173.15 0,0 0,0 0,0 -22.4,40.77 -112.24,194.06 -75.21,159.61 0,0 0,0 0,0 0,0 1.09,-2.08 1.09,-2.08 0,0 0,0 0,0 0.05,-1.75 228.7,-110.31 152.73,-211.33 0,0 0,0 0,0 -747.7,-995.12 -2797.22,-1192.88 -3473.75,49.58 0,0 0,0 0,0 -269.52,495.2 -195.81,1415.65 73.63,1881 0,0 0,0 0,0 205.26,354.33 706.48,936.37 1135.86,1010.62 0,0 0,0 0,0 141.74,0 256.65,-114.89 256.65,-256.67 0,0 0,0 0,0 0,-133.99 -102.57,-243.89 -233.43,-255.63zm2166.97 -2383.71c0,0 0,0 0,0 0,0 0,0 0,0 0.11,-0.3 0.26,-0.63 0.36,-1.09 0,0 0,0 0,0 0.05,0.18 -0.1,0.51 -0.36,1.09zm-755.21 947.73c20.82,-768.79 253.82,-1594.64 945.74,-2029.03 0,0 0,0 0,0 686.28,-430.79 1421.84,-86.69 1901.75,481.15 0,0 0,0 0,0 223.9,265 13.38,60.68 313.92,322.93 0,0 0,0 0,0 0,0 -98.71,-225.8 -98.71,-225.8 0,0 0,0 0,0 -479.4,-1006.02 -1598.22,-1450.37 -2538.65,-748.13 0,0 0,0 0,0 -716.05,534.72 -972.54,1346.48 -1037.41,2198.88 0,0 0,0 0,0 0,141.78 114.88,256.74 256.64,256.74 0,0 0,0 0,0 141.73,0 256.72,-114.96 256.72,-256.74zm1519.35 5101.08c-237.11,-422.05 -479.38,-577.6 -904.47,-807.57 0,0 0,0 0,0 -781.25,-422.45 -2133.83,-900.58 -3032.61,-863.4 0,0 0,0 0,0 -969.97,40.26 -1908.68,259.95 -2738.14,776.71 0,0 0,0 0,0 -794.79,495.3 -1611.68,773.89 -1711.53,1856.1 0,0 0,0 0,0 -65.3,707.85 343.51,875.9 486.76,1410.09 0,0 0,0 0,0 149.36,556.69 206.13,584.37 -70.76,1089.88 0,0 0,0 0,0 0,0 171.5,-150.16 171.5,-150.16 0,0 0,0 0,0 240.03,-286.41 142.19,-622.96 80.42,-953.11 0,0 0,0 0,0 -104.47,-558.42 -481.46,-782.14 -397.01,-1365.3 0,0 0,0 0,0 136.76,-943.31 928.91,-1156.23 1645.44,-1566.88 0,0 0,0 0,0 775.82,-444.67 1663.93,-553.31 2551.91,-563.72 0,0 0.01,0 0.01,0 774.64,-9.07 2713.48,998.09 3043.7,1767.25 0,0 0,0 0,0 56.34,149.79 555.88,-200.35 705.72,-256.72 0,0 0,0 0,0 149.73,-56.36 225.45,-223.41 169.06,-373.17zm-3646.98 -1642.19c-908.23,-167.82 -1154.26,-159.64 -1814.45,-881.46 0,0 0,0 0,0 -336.15,-367.56 -455.98,-789.66 -446.41,-1291.56 0,0 0,0 0,0 7.37,-386.92 82.73,-504.95 223.65,-836.73 0,0 0,0 0,0 -299.26,194.24 -398.3,465.56 -450.14,818.54 0,0 0,0 0,0 -84,571.4 34.95,1097.11 389.08,1549.12 0,0 0,0 0,0 665.86,850.19 1004.82,904.52 1990.32,1143.94 0,0 0,0 0,0 138.63,29.85 275.08,-58.34 304.92,-196.92 0,0 0,0 0,0 29.85,-138.56 -58.37,-275.11 -196.97,-304.93zm2084.73 7213.4c22.09,81.74 -503.76,696.11 -612.14,876.12 0,0 0,0 0,0 -668.86,1110.31 -429.31,2349.47 859.79,2833.12 0,0 0,0 0,0 561.23,210.59 1734,326.72 2105.38,-270.64 0,0 0,0 0,0 248.31,-399.47 505.43,-1553.9 -10.75,-1805.26 0,0 0,0 0,0 -52.98,-25.8 -47.04,-19.35 -106.2,-21.25 0,0 0,0 0,0 0,0 38.44,37.84 38.44,37.84 0,0 0,0 0,0 416.25,377.32 152.32,1261.49 -127.39,1651.48 0,0 0,0 0,0 -412.7,575.36 -2674.95,264.24 -2683.15,-1106.01 0,0 0,0 0,0 -7.62,-1281.41 1107.41,-1552.71 1041.63,-2284.28 0,0 0,0 0,0 -24.46,-139.67 -157.61,-232.91 -297.23,-208.35 0,0 0,0 0,0 -139.63,24.46 -232.92,157.6 -208.38,297.23zm-3063.96 1201.52c624.49,597.53 507.85,589 821.44,1337.54 0,0 0,0 0,0 287.4,685.9 1031.52,1094.61 1680.57,638.27 0,0 0,0 0,0 473.53,-332.84 553.94,-429.15 834.79,-943.12 0,0 0,0 0,0 139.22,-254.74 118.21,-226.93 201.7,-482.09 0,0 0,0 0,0 0,0 -167.13,170.15 -167.13,170.15 0,0 0,0 0,0 -500.48,579.6 -337.18,603.83 -1040.38,1011.73 0,0 0,0 0,0 -464.59,269.52 -945.49,-55.22 -1109.25,-524.3 0,0 0,0 0,0 -296.34,-848.85 -203.32,-877.32 -864.56,-1576.96 0,0 0,0 0,0 -101.83,-98.63 -264.34,-95.99 -362.94,5.84 0,0 0,0 0,0 -98.6,101.78 -96.06,264.29 5.76,362.94zm-1714.5 -1101.19c-208.61,-26.98 -742.74,-142.17 -769.51,-393.27 0,0 0,0 0,0 -24.13,-226.09 225.42,-615.8 -8.92,-778.13 0,0 0,0 0,0 -26.69,67.18 -34.57,119.69 -62.91,181.86 0,0 0,0 0,0 -228.63,500.89 -490.3,798.28 127.05,1209.48 0,0 0,0 0,0 267.13,177.95 521.86,285.98 840.66,276.88 0,0 0,0 0,0 135.33,-42.14 210.79,-186.13 168.53,-321.44 0,0 0,0 0,0 -39.5,-126.44 -167.77,-200.68 -294.9,-175.38zm271.53 1220.09c-318.06,66.27 -678.36,202.56 -759.28,566.09 0,0 0,0 0,0 -28.09,126.29 14.73,325.98 155.17,361.72 0,0 0,0 0,0 0,0 102.49,-6.15 102.49,-6.15 0,0 0,0 0,0 0,0 -15.24,-91.34 -15.24,-91.34 0,0 0,0 0,0 -55.12,-268.3 319.88,-328.52 516.86,-316.96 0,0 0,0 0,0 141.76,0 256.74,-114.91 256.74,-256.65 0,0 0,0 0,0 0,-141.75 -114.98,-256.71 -256.74,-256.71zm883.34 -356.87c-157.79,432.33 -129.14,734.82 180.62,1098.52 0,0 0,0 0,0 350.01,411.05 956.23,585.04 1461.66,398.1 0,0 0,0 0,0 203.81,-75.49 173.05,-79.71 309.3,-241.41 0,0 0,0 0,0 -269.16,45.22 -426.11,89.21 -704.21,40.44 0,0 0,0 0,0 -480.24,-84.25 -1052.66,-538.25 -797.39,-1048.49 0,0 0,0 0,0 68.18,-124.3 22.79,-280.36 -101.42,-348.56 0,0 0,0 0,0 -124.33,-68.25 -280.36,-22.81 -348.56,101.4zm17.24 178.33c-105.36,123.57 -341.25,-109.04 -395.75,-204.67 0,0 0,0 0,0 -299.44,-525.45 -20.48,-746.53 -645.37,-1173.05 0,0 0,0 0,0 -506.65,-345.82 -317.01,-60.76 -559.41,-590.22 0,0 0,0 0,0 -148.26,462.28 90.5,523.98 390.76,805.71 0,0 0,0 0,0 390.6,366.73 209.24,399.14 336.88,878.89 0,0 0,0 0,0 154.81,582.04 704.41,1086.41 1241.65,640.46 0,0 0,0 0,0 98.6,-101.82 96.06,-264.31 -5.82,-362.94 0,0 0,0 0,0 -101.82,-98.57 -264.31,-96.06 -362.94,5.82zm2505.87 -7468.16c-126.6,-82.83 -395.56,-93.17 -423.96,-9.24 0,0 0,0 0,0 -89.05,504.67 -632.68,295.25 -826.92,677.34 0,0 0,0 0,0 0.08,-579.48 182.25,-961.44 854.23,-812.27 0,0 0,0 0,0 226.97,4.42 360.88,51.59 396.65,144.17zm735 338.3c-126.73,-82.83 -395.61,-93.06 -423.96,-9.24 0,0 0,0 0,0 -89.1,504.67 -632.74,295.25 -826.94,677.37 0,0 0,0 0,0 0.05,-579.51 182.24,-961.47 854.25,-812.19 0,0 0,0 0,0 226.95,4.31 360.86,51.58 396.65,144.06zm-6285.36 1462.18c-147.86,32.41 -343.51,217.22 -303.53,296.22 0,0 0,0 0,0 297.99,417.01 -232.16,658.44 -95.28,1064.71 0,0 0,0 0,0 -413.69,-405.79 -558.92,-803.32 18.19,-1178.66 0,0 0,0 0,0 161.92,-158.98 289.43,-221.51 380.62,-182.27zm326.67 1049.99c-147.88,32.38 -343.54,217.19 -303.51,296.13 0,0 0,0 0,0 297.97,417 -232.2,658.52 -95.32,1064.77 0,0 0,0 0,0 -413.69,-405.84 -558.9,-803.35 18.18,-1178.68 0,0 0,0 0,0 161.93,-159.03 289.46,-221.52 380.65,-182.22zm8.99 -1847.37c-127.31,-81.92 -396.34,-90.07 -424,-6.1 0,0 0,0 0,0 -85.32,505.41 -630.51,300.03 -821.77,683.72 0,0 0,0 0,0 -4.39,-579.5 174.88,-962.84 848.03,-818.69 0,0 0,0 0,0 226.98,2.54 361.26,48.76 397.74,141.07zm535.94 -645.8c-100.36,-113.31 -356.97,-194.13 -406.5,-120.72 0,0 0,0 0,0 -219.1,463.27 -688.22,117.75 -976.33,435.15 0,0 0,0 0,0 152.91,-558.93 429.41,-879.37 1038.25,-558.06 0,0 0,0 0,0 217.78,64.06 334.52,144.98 344.58,243.63zm-750.7 1987.86c149.63,-22.71 398.6,79.53 389.56,167.64 0,0 0,0 0,0 -128.52,496.11 453.06,531.29 470.99,959.53 0,0 0,0 0,0 240.59,-527.15 233.51,-950.24 -439.8,-1093.62 0,0 0,0 0,0 -208.3,-90.22 -349.73,-102.89 -420.75,-33.55zm-23.29 -979.93c149.58,-22.74 398.55,79.6 389.53,167.64 0,0 0,0 0,0 -128.49,496.06 452.96,531.29 470.97,959.61 0,0 0,0 0,0 240.64,-527.26 233.53,-950.37 -439.88,-1093.62 0,0 0,0 0,0 -208.2,-90.35 -349.68,-102.98 -420.62,-33.63zm491.97 -679.94c151.26,-1.9 383.67,133.81 362.61,219.79 0,0 0,0 0,0 -195.88,473.71 375.24,588.82 333.81,1015.49 0,0 0,0 0,0 311.12,-488.9 362.64,-908.96 -284.48,-1143.86 0,0 0,0 0,0 -193.75,-118.16 -332.08,-150.24 -411.94,-91.42zm749.1 -469.72c150.04,20.09 360.27,188.06 326.9,270.05 0,0 0,0 0,0 -262.43,440.21 285.9,636.99 183.08,1053.16 0,0 0,0 0,0 378.72,-438.65 490.55,-846.78 -115.65,-1173.09 0,0 0,0 0,0 -174.54,-145.06 -306.8,-196.83 -394.33,-150.12zm-933.42 3266.62c150.19,19.1 361.54,185.62 328.8,267.87 0,0 0,0 0,0 -259.54,441.98 290.12,635.02 190.09,1051.89 0,0 0,0 0,0 375.79,-441.15 484.86,-850.04 -123.47,-1172.31 0,0 0,0 0,0 -175.59,-143.79 -308.15,-194.75 -395.42,-147.45zm6166.3 -5633.72c-39.01,146.25 -232.48,333.27 -309.52,289.79 0,0 0,0 0,0 -403.13,-316.46 -668.25,202.28 -1067.89,47.14 0,0 0,0 0,0 386.66,431.62 777.16,594.61 1178.25,35.05 0,0 0,0 0,0 166.12,-154.58 234.32,-279.14 199.16,-371.98zm-1390.8 -387.71c-18.8,150.17 -184.91,361.95 -267.18,329.26 0,0 0,0 0,0 -442.5,-258.52 -634.44,291.57 -1051.51,192.43 0,0 0,0 0,0 441.96,374.86 851.08,483.06 1172.03,-126.03 0,0 0,0 0,0 143.49,-175.79 194.08,-308.53 146.66,-395.66zm2352.85 882.68c-126.64,-82.83 -395.6,-93.17 -423.95,-9.25 0,0 0,0 0,0 -89.1,504.68 -632.71,295.23 -826.97,677.37 0,0 0,0 0,0 0.07,-579.5 182.27,-961.47 854.25,-812.29 0,0 0,0 0,0 226.95,4.39 360.86,51.59 396.67,144.17zm-606.63 -2123.16c-126.69,-82.93 -395.55,-93.17 -424,-9.37 0,0 0,0 0,0 -89,504.72 -632.66,295.27 -826.87,677.36 0,0 0,0 0,0 0.08,-579.5 182.14,-961.41 854.23,-812.14 0,0 0,0 0,0 226.97,4.27 360.88,51.57 396.64,144.15zm-746.6 -420.07c-126.72,-82.8 -395.61,-93.06 -424.03,-9.27 0,0 0,0 0,0 -89.1,504.73 -632.64,295.25 -826.85,677.37 0,0 0,0 0,0 0.03,-579.48 182.15,-961.44 854.23,-812.17 0,0 0,0 0,0 226.98,4.3 360.86,51.59 396.65,144.07zm-2099.95 186.69c-126.64,-82.88 -395.58,-93.11 -423.92,-9.32 0,0 0,0 0,0 -89.13,504.78 -632.74,295.25 -826.9,677.47 0,0 0,0 0,0 0,-579.53 182.17,-961.54 854.25,-812.27 0,0 0,0 0,0 226.87,4.3 360.86,51.59 396.57,144.12zm245.42 541.02c-64.16,95.53 -249.38,182.5 -294.11,132.24 0,0 0,0 0,0 -211.99,-326.98 -530.55,-19.18 -779.75,-229.21 0,0 0,0 0,0 171.83,405.76 412.59,619.25 838.86,315.51 0,0 0,0 0,0 157.63,-70.35 237.38,-143.07 235,-218.54zm-1832 1768.88c-126.62,-82.9 -395.58,-93.14 -423.9,-9.32 0,0 0,0 0,0 -89.13,504.68 -632.74,295.23 -827,677.45 0,0 0,0 0,0 0.1,-579.53 182.27,-961.55 854.28,-812.27 0,0 0,0 0,0 226.94,4.32 360.85,51.59 396.62,144.14zm443.3 583.29c-126.62,-82.91 -395.58,-93.14 -423.95,-9.32 0,0 0,0 0,0 -89.08,504.75 -632.74,295.22 -826.84,677.44 0,0 0,0 0,0 0,-579.5 182.14,-961.54 854.22,-812.26 0,0 0,0 0,0 226.9,4.31 360.89,51.61 396.57,144.14zm-2263.19 279.96c-126.62,-82.81 -395.58,-93.14 -423.92,-9.35 0,0 0,0 0,0 -89.11,504.78 -632.72,295.25 -826.98,677.47 0,0 0,0 0,0 0.08,-579.5 182.27,-961.54 854.23,-812.27 0,0 0,0 0,0 226.97,4.3 360.88,51.59 396.67,144.15zm1143.03 -1698.47c-110.52,-103.41 -373.59,-159.95 -416,-82.22 0,0 0,0 0,0 -174.81,481.68 -674.12,181.56 -931.35,524.51 0,0 0,0 0,0 100,-570.82 345.37,-915.65 981.54,-652.66 0,0 0,0 0,0 222.83,43.41 346.58,113.11 365.81,210.37zm-784.13 659.02c-63.06,137.62 -285.16,289.54 -353.84,233.63 0,0 0,0 0,0 -344.17,-379.7 -692.71,87.15 -1060.63,-132.89 0,0 0,0 0,0 308.61,490.4 666.27,716.71 1155.6,232.51 0,0 0,0 0,0 189.76,-124.48 277.95,-235.81 258.87,-333.25zm1306.61 -1843.22c-63.07,137.61 -285.17,289.53 -353.85,233.68 0,0 0,0 0,0 -344.2,-379.76 -692.74,87.04 -1060.63,-133 0,0 0,0 0,0 308.64,490.48 666.29,716.79 1155.62,232.51 0,0 0,0 0,0 189.77,-124.48 277.96,-235.83 258.86,-333.19zm375.1 -556.36c-82.42,126.95 -324.36,244.9 -384.12,179.7 0,0 0,0 0,0 -285.22,-425.83 -698.1,-14.81 -1029.95,-286.08 0,0 0,0 0,0 233.89,530.23 554.79,806.12 1109.4,398.4 0,0 0,0 0,0 205.87,-95.53 309.3,-192.81 304.67,-292.02zm585.19 -365c-117.22,95.81 -383.54,134.41 -420.57,54.05 0,0 0,0 0,0 -141.91,-492.53 -660.43,-226.8 -893.83,-586.36 0,0 0,0 0,0 61.27,576.28 282.68,936.9 935.26,717.55 0,0 0,0 0,0 225.14,-28.27 353.34,-89.33 379.14,-185.24zm513.01 -204.35c-135.11,68.05 -403.48,47.86 -422.28,-38.65 0,0 0,0 0,0 -31.39,-511.56 -595.2,-364.93 -744.93,-766.55 0,0 0,0 0,0 -65.48,575.79 72.29,975.92 756.84,903.58 0,0 0,0 0,0 225.99,21.44 364.44,-10.41 410.37,-98.38zm3336.24 1644.63c-64.06,95.53 -249.38,182.4 -294.09,132.16 0,0 0,0 0,0 -212.01,-326.98 -530.47,-19.18 -779.75,-229.21 0,0 0,0 0,0 171.83,405.76 412.6,619.25 838.91,315.49 0,0 0,0 0,0 157.58,-70.26 237.29,-143.08 234.93,-218.44zm-524.97 -2426.59c-64.11,95.53 -249.35,182.5 -294.06,132.23 0,0 0,0 0,0 -212.01,-327.07 -530.58,-19.17 -779.75,-229.18 0,0 0,0 0,0 171.73,405.74 412.57,619.15 838.86,315.47 0,0 0,0 0,0 157.61,-70.34 237.39,-143.06 234.95,-218.52zm-2217.12 381.61c64.16,-95.55 249.38,-182.5 294.11,-132.16 0,0 0,0 0,0 211.99,326.98 530.53,19.08 779.81,229.09 0,0 0,0 0,0 -171.84,-405.72 -412.58,-619.15 -838.94,-315.4 0,0 0,0 0,0 -157.61,70.29 -237.36,143.08 -234.98,218.47zm2840.99 5287.11c35.26,-147.19 -45.74,-403.86 -134.29,-402.26 0,0 0,0 0,0 -505.18,86.44 -491.38,-496.03 -916.63,-549.91 0,0 0,0 0,0 545.51,-195.5 966.57,-152.83 1052.78,530.13 0,0 0,0 0,0 72.54,215.08 73.23,357.09 -1.86,422.04zm-1283.26 -396.64c35.29,-147.22 -45.82,-403.86 -134.26,-402.32 0,0 0,0 0,0 -505.15,86.47 -491.39,-495.98 -916.71,-549.88 0,0 0,0 0,0 545.51,-195.4 966.65,-152.83 1052.85,530.15 0,0 0,0 0,0 72.5,215.09 73.16,357.12 -1.88,422.05zm-1008.81 -456.67c-98.85,6.7 -255.67,-73.64 -245.01,-130.61 0,0 0,0 0,0 110.95,-316.66 -266.47,-371.3 -254.78,-651.74 0,0 0,0 0,0 -185.78,330.81 -204.27,607.27 227.17,737.44 0,0 0,0 0,0 130.94,70.26 222.53,86.23 272.62,44.91zm-679.19 -113.41c-97.77,-16.03 -232.08,-130.02 -208.69,-183.09 0,0 0,0 0,0 180.26,-282.93 -174.73,-422.3 -99.34,-692.65 0,0 0,0 0,0 -256.41,279.65 -337.49,544.55 52.88,769.85 0,0 0,0 0,0 111.43,98.27 196.88,134.72 255.15,105.89zm-668.25 -125.73c-91.44,-38.1 -195.91,-179.94 -160.94,-226.14 0,0 0,0 0,0 240.52,-233.91 -72.82,-451.2 62.67,-696.95 0,0 0,0 0,0 -313.74,213.16 -453.7,452.27 -125.66,761.32 0,0 0,0 0,0 85.83,121.36 160.61,176.47 223.93,161.77zm-1718.08 765.81c-79.17,59.59 -254.33,78.03 -276.56,24.48 0,0 0,0 0,0 -80.08,-325.83 -426.11,-165.35 -569.59,-406.5 0,0 0,0 0,0 25.24,378.46 160.86,620.04 593.29,493.35 0,0 0,0 0,0 148.06,-12.65 233.5,-49.33 252.86,-111.33zm2655.03 -151.77c-20.47,96.95 -140.48,225.88 -192.38,200.1 0,0 0,0 0,0 -274.44,-193.06 -429.89,155.22 -696.57,67.64 0,0 0,0 0,0 267.75,268.79 528.68,361.95 771.53,-17.7 0,0 0,0 0,0 103.3,-106.78 143.59,-190.63 117.42,-250.04zm-1067.56 7.42c19.36,97.15 -40.16,262.94 -98.02,259.74 0,0 0,0 0,0 -328.22,-69.34 -334.01,311.94 -613.53,336.4 0,0 0,0 0,0 351.84,141.75 628.42,124.58 702.13,-320.07 0,0 0,0 0,0 52.83,-138.83 56.97,-231.72 9.42,-276.07zm659 -4593.79c-135.28,-67.69 -279.67,-294.75 -221.58,-361.52 0,0 0,0 0,0 391.1,-331.22 -63.63,-695.3 168.6,-1055.6 0,0 0,0 0,0 -500.53,292.02 -738.78,641.83 -271.25,1147.11 0,0 0,0 0,0 118.04,193.91 226.29,285.83 324.23,270.01zm630.03 -676.61c-135.41,-67.72 -279.73,-294.82 -221.64,-361.54 0,0 0,0 0,0 391.16,-331.17 -63.68,-695.28 168.65,-1055.58 0,0 0,0 0,0 -500.58,291.93 -738.86,641.74 -271.37,1147.07 0,0 0,0 0,0 118.11,193.93 226.39,285.77 324.36,270.05zm618.33 -314.98c-135.38,-67.7 -279.78,-294.75 -221.69,-361.57 0,0 0,0 0,0 391.11,-331.17 -63.62,-695.3 168.61,-1055.58 0,0 0,0 0,0 -500.56,292.03 -738.76,641.81 -271.25,1147.09 0,0 0,0 0,0 118.04,193.91 226.29,285.83 324.33,270.06zm1668.23 -221.67c-135.41,-67.64 -279.81,-294.79 -221.59,-361.57 0,0 0,0 0,0 391.1,-331.22 -63.73,-695.27 168.52,-1055.5 0,0 0,0 0,0 -500.55,291.93 -738.78,641.73 -271.29,1147.09 0,0 0,0 0,0 118.03,193.83 226.34,285.75 324.36,269.98zm815.34 -416.36c82.62,-126.82 92.43,-395.68 8.63,-423.92 0,0 0,0 0,0 -504.85,-88.39 -296.14,-632.31 -678.59,-825.99 0,0 0,0 0,0 579.51,-0.76 961.8,180.83 813.41,853.09 0,0 0,0 0,0 -3.98,226.97 -51.02,360.93 -143.45,396.82zm-1644.96 618.37c82.68,-126.8 92.58,-395.79 8.69,-424.03 0,0 0,0 0,0 -504.88,-88.37 -296.17,-632.23 -678.61,-825.91 0,0 0,0 0,0 579.5,-0.81 961.77,180.75 813.48,853.09 0,0 0,0 0,0 -4.04,226.87 -51.08,360.85 -143.56,396.85zm2252.85 -1193.65c-135.4,-67.59 -279.7,-294.74 -221.59,-361.52 0,0 0,0 0,0 391.11,-331.22 -63.72,-695.3 168.61,-1055.6 0,0 0,0 0,0 -500.53,292.03 -738.86,641.78 -271.37,1147.17 0,0 0,0 0,0 118.13,193.85 226.39,285.75 324.35,269.95zm-6085.23 5116.68c62.99,-76.46 229.11,-135.21 263.17,-88.35 0,0 0,0 0,0 153.9,298.15 452.88,61.32 648.69,262.34 0,0 0,0 0,0 -112.82,-362.18 -301.14,-565.46 -692.1,-341.28 0,0 0,0 0,0 -141.02,46.86 -215.46,102.49 -219.76,167.29zm-123.42 -691.57c14.66,-98.02 126.72,-233.98 180.04,-211.33 0,0 0,0 0,0 285.55,176.2 419.89,-180.69 691.24,-109.29 0,0 0,0 0,0 -283.34,-252.25 -549.41,-329.57 -769.02,63.98 0,0 0,0 0,0 -96.69,112.75 -131.92,198.8 -102.26,256.64zm6089.3 477.42c-81.92,-197.82 -47.12,-1042.26 4.95,-1067.74 0,0 0,0 0,0 320.22,-100.33 138.46,-435.59 370.16,-593.88 0,0 0,0 0,0 -376.2,48.85 -608.84,199.19 -455.38,622.99 0,0 0,0 0,0 21.92,146.96 -70.33,961.92 80.27,1038.63zm-57.76 -542.72c12.9,-114.33 137.08,-276.91 200.02,-252.83 0,0 0,0 0,0 338.89,192.4 479.63,-227.61 797.61,-156.24 0,0 0,0 0,0 -339.54,-280.8 -651.58,-359.23 -889.86,106.88 0,0 0,0 0,0 -107.47,135.05 -144.68,236.4 -107.77,302.19zm777.59 1173.2c495.69,-510.64 826.39,-704.04 1515.42,-904.29 0,0 0,0 0,0 983.11,-285.85 3849.06,-494.87 4710.2,-46.31 0,0 0,0 0,0 208.46,108.61 812.29,584.05 952.09,789.76 0,0 0,0 0,0 61.5,90.58 421.62,911.28 447.91,1057.51 0,0 0,0 0,0 43.79,243.51 32.97,744.12 -56.44,970.35 0,0 0,0 0,0 -108.64,-274.98 -61.93,-616.68 -153.9,-921.91 0,0 0,0 0,0 -25.45,-84.59 -402.72,-777.29 -438.91,-839.3 0,0 0,0 0,0 -127.46,-217.95 -633.32,-530.5 -840.72,-655.14 0,0 0,0 0,0 -536.06,-322.35 -2592.93,-111.48 -3253.28,-23.72 0,0 0,0 0,0 -880.69,117.22 -1736.34,313.28 -2349.8,993.87 0,0 0,0 0,0 -116.21,147.02 -329.62,172.06 -476.69,55.86 0,0 0,0 0,0 -147.04,-116.13 -172.05,-329.54 -55.88,-476.68zm595.46 -1656.72c544.29,-887.63 657.37,-984.04 1620.85,-1381.53 0,0 0,0 0,0 1145.05,-472.41 2956.84,-86.87 3671.41,984.76 0,0 0,0 0,0 162.16,243.28 287.81,581.35 254.64,877.98 0,0 0,0 0,0 0,0 -89.74,312.69 -89.74,312.69 0,0 0,0 0,0 -24.81,-193.01 -40,-394.43 -102.69,-578.78 0,0 0,-0.01 0,-0.01 -412.6,-1213.43 -2444.93,-1637.1 -3503.98,-1134.23 0,0 0,0 0,0 -845.01,401.11 -870.94,414.25 -1318.92,1223.62 0,0 0,0 0,0 -84.05,146.78 -271.27,197.61 -418.01,113.54 0,0 0,0 0,0 -146.79,-84.1 -197.61,-271.25 -113.56,-418.04zm2330.7 538.23c207.9,-90.1 719.18,-620.32 806.58,-812.73 0,0 0,0 0,0 308.28,-678.76 278.94,-1558.16 -451.82,-1942.56 0,0 0,0 0,0 -673.55,-354.26 -1688.23,-218.57 -2302.91,207.06 0,0 0,0 0,0 0,0 -214.28,173.13 -214.28,173.13 0,0 0,0 0,0 22.4,40.76 112.27,194.08 75.34,159.61 0,0 0,0 0,0 0,0 -1.17,-2.06 -1.17,-2.06 0,0 0,0 0,0 -0.1,-1.73 -228.73,-110.34 -152.78,-211.35 0,0 0,0 0,0 747.72,-995.07 2797.3,-1192.89 3473.78,49.6 0,0 0,0 0,0 269.52,495.18 195.86,1415.62 -73.66,1881 0,0 0,0 0,0 -205.23,354.33 -706.45,936.4 -1135.74,1010.59 0,0 0,0 0,0 -141.88,0 -256.74,-114.86 -256.74,-256.62 0,0 0,0 0,0 0,-133.98 102.57,-243.94 233.4,-255.67zm-2166.87 -2383.61c0,0 0,0 0,0 0,0 0,0 0,0 -0.18,-0.41 -0.26,-0.74 -0.41,-1.15 0,0 0,0 0,0 0,0.16 0.08,0.51 0.41,1.15zm755.22 947.67c-20.91,-768.78 -253.93,-1594.69 -945.85,-2029.03 0,0 0,0 0,0 -686.26,-430.81 -1421.82,-86.64 -1901.7,481.13 0,0 0,0 0,0 -223.92,264.97 -13.38,60.68 -313.92,323.01 0,0 0,0 0,0 0,0 98.68,-225.91 98.68,-225.91 0,0 0,0 0,0 479.38,-1005.94 1598.22,-1450.34 2538.76,-748.08 0,0 0,0 0,0 715.95,534.7 972.41,1346.53 1037.38,2198.88 0,0 0,0 0,0 0,141.73 -114.98,256.69 -256.71,256.69 0,0 0,0 0,0 -141.79,0 -256.64,-114.96 -256.64,-256.69zm-1519.46 5101.06c237.16,-422.07 479.4,-577.6 904.47,-807.49 0,0 0,0 0,0 781.3,-422.53 2133.85,-900.69 3032.66,-863.48 0,0 0,0 0,0 969.95,40.26 1908.73,259.95 2738.12,776.79 0,0 0,0 0,0 794.82,495.19 1611.78,773.83 1711.53,1856.02 0,0 0,0 0,0 65.27,707.88 -343.44,875.9 -486.74,1410.11 0,0 0,0 0,0 -149.36,556.67 -206.15,584.38 70.74,1089.86 0,0 0,0 0,0 0,0 -171.53,-150.16 -171.53,-150.16 0,0 0,0 0,0 -239.95,-286.39 -142.04,-622.99 -80.32,-953.11 0,0 0,0 0,0 104.4,-558.39 481.46,-782.17 396.91,-1365.28 0,0 0,0 0,0 -136.63,-943.35 -928.91,-1156.28 -1645.32,-1566.9 0,0 0,0 0,0 -775.89,-444.7 -1664.05,-553.31 -2552.01,-563.72 0,0 0,0 0,0 -774.62,-9.07 -2713.48,998.06 -3043.68,1767.25 0,0 0,0 0,0 -56.36,149.79 -555.96,-200.35 -705.69,-256.72 0,0 0,0 0,0 -149.81,-56.36 -225.5,-223.41 -169.14,-373.17zm3646.98 -1642.21c908.31,-167.8 1154.38,-159.54 1814.53,-881.46 0,0 0,0 0,0 336.09,-367.46 456.03,-789.66 446.35,-1291.57 0,0 0,0 0,0 -7.34,-386.89 -82.72,-504.92 -223.64,-836.7 0,0 0,0 0,0 299.39,194.34 398.29,465.61 450.21,818.54 0,0 0,0 0,0 83.87,571.43 -35.05,1097.08 -389.15,1549.12 0,0 0,0 0,0 -665.89,850.22 -1004.77,904.5 -1990.35,1143.94 0,0 0,0 0,0 -138.5,29.85 -275.08,-58.34 -304.9,-196.95 0,0 0,0 0,0 -29.74,-138.53 58.45,-275.08 196.95,-304.92zm-2084.7 7213.39c-22.07,81.76 503.78,696.14 612.24,876.15 0,0 0,0 0,0 668.73,1110.31 429.29,2349.5 -859.89,2833.19 0,0 0,0 0,0 -561.14,210.52 -1734.01,326.62 -2105.3,-270.74 0,0 0,0 0,0 -248.37,-399.44 -505.54,-1553.87 10.74,-1805.23 0,0 0,0 0,0 52.88,-25.8 46.94,-19.35 106.15,-21.28 0,0 0,0 0,0 0,0 -38.36,37.9 -38.36,37.9 0,0 0,0 0,0 -416.33,377.31 -152.4,1261.46 127.28,1651.45 0,0 0,0 0,0 412.7,575.36 2674.98,264.24 2683.13,-1106.04 0,0 0,0 0,0 7.62,-1281.3 -1107.39,-1552.57 -1041.6,-2284.25 0,0 0,0 0,0 24.56,-139.6 157.63,-232.92 297.23,-208.35 0,0 0,0 0,0 139.6,24.53 232.89,157.6 208.38,297.2zm3063.93 1201.57c-624.46,597.49 -507.75,589.06 -821.44,1337.62 0,0 0,0 0,0 -287.38,685.77 -1031.52,1094.51 -1680.54,638.25 0,0 0,0 0,0 -473.46,-332.94 -553.95,-429.23 -834.82,-943.15 0,0 0,0 0,0 -139.17,-254.71 -118.09,-227 -201.58,-482.17 0,0 0,0 0,0 0,0 167.13,170.2 167.13,170.2 0,0 0,0 0.01,0 500.45,579.56 337.05,603.89 1040.28,1011.79 0,0 0,0 0,0 464.61,269.44 945.59,-55.22 1109.32,-524.36 0,0 0,0 0,0 296.21,-848.87 203.25,-877.32 864.49,-1576.91 0,0 0,0 0,0 101.82,-98.68 264.33,-96.06 362.94,5.79 0,0 0,0 0,0 98.6,101.83 96.03,264.34 -5.79,362.94zm1714.52 -1101.14c208.61,-26.95 742.82,-142.24 769.62,-393.37 0,0 0,0 0,0 24.13,-225.95 -225.5,-615.77 8.81,-778.1 0,0 0,0 0,0 26.78,67.21 34.57,119.69 62.92,181.84 0,0 0,0 0,0 228.68,500.89 490.32,798.27 -126.95,1209.5 0,0 0,0 0,0 -267.21,178.05 -521.99,286 -840.69,276.98 0,0 0,0 0,0 -135.38,-42.24 -210.84,-186.23 -168.63,-321.54 0,0 0,0 0,0 39.5,-126.46 167.77,-200.68 294.92,-175.31zm-271.53 1220.02c318.14,66.27 678.34,202.59 759.26,566.09 0,0 0,0 0,0 28.12,126.29 -14.68,325.98 -155.12,361.77 0,0 0,0 0,0 0,0 -102.49,-6.2 -102.49,-6.2 0,0 0,0 0,0 0,0 15.17,-91.34 15.17,-91.34 0,0 0,0 0,0 55.17,-268.27 -319.84,-328.55 -516.82,-316.96 0,0 0,0 0,0 -141.75,0 -256.61,-114.89 -256.61,-256.67 0,0 0,0 0,0 0,-141.76 114.86,-256.69 256.61,-256.69zm-883.25 -356.82c157.81,432.25 129.03,734.79 -180.68,1098.45 0,0 0,0 0,0 -349.96,411.04 -956.15,585.06 -1461.66,398.09 0,0 0,0 0,0 -203.84,-75.46 -173.1,-79.6 -309.22,-241.38 0,0 0,0 0,0 269.03,45.22 425.98,89.21 704.14,40.44 0,0 0,0 0,0 480.23,-84.25 1052.7,-538.25 797.45,-1048.49 0,0 0,0 0,0 -68.27,-124.23 -22.91,-280.29 101.45,-348.53 0,0 0,0 0,0 124.18,-68.31 280.24,-22.84 348.52,101.42zm-17.28 178.28c105.31,123.55 341.2,-109.07 395.76,-204.65 0,0 0,0 0,0 299.47,-525.45 20.42,-746.55 645.29,-1173.07 0,0 0,0 0,0 506.68,-345.82 317.07,-60.73 559.48,-590.25 0,0 0,0 0,0 148.29,462.28 -90.6,523.98 -390.67,805.74 0,0 0,0 0,0 -390.76,366.73 -209.4,399.14 -336.99,878.87 0,0 0,0 0,0 -154.86,582.04 -704.31,1086.43 -1241.65,640.51 0,0 0,0 0,0 -98.6,-101.85 -96.06,-264.36 5.77,-362.94 0,0 0,0 0,0 101.9,-98.63 264.41,-96.04 363.01,5.79zm-2505.94 -7468.16c126.73,-82.83 395.61,-93.06 424.03,-9.24 0,0 0,0 0,0 89.03,504.67 632.64,295.22 826.9,677.36 0,0 0,0 0,0 -0.1,-579.52 -182.2,-961.49 -854.25,-812.16 0,0 0,0 0,0 -226.95,4.29 -360.89,51.53 -396.68,144.04zm-734.87 338.38c126.62,-82.91 395.51,-93.14 423.93,-9.32 0,0 0,0 0,0 89.1,504.67 632.71,295.22 826.89,677.37 0,0 0,0 0,0 0,-579.53 -182.19,-961.5 -854.25,-812.2 0,0 0,0 0,0 -226.97,4.3 -360.86,51.62 -396.57,144.15zm6285.33 1462.07c147.81,32.49 343.44,217.25 303.43,296.27 0,0 0,0 0,0 -297.97,417.02 232.18,658.42 95.33,1064.67 0,0 0,0 0,0 413.76,-405.74 558.9,-803.33 -18.19,-1178.56 0,0 0,0 0,0 -161.92,-159.03 -289.46,-221.62 -380.57,-182.38zm-326.64 1049.99c147.78,32.38 343.46,217.22 303.43,296.16 0,0 0,0 0,0 -297.97,417.07 232.15,658.5 95.3,1064.75 0,0 0,0 0,0 413.74,-405.82 559,-803.33 -18.21,-1178.67 0,0 0,0 0,0 -161.9,-159.02 -289.46,-221.51 -380.52,-182.24zm-8.99 -1847.32c127.28,-81.94 396.21,-90.09 424,-6.04 0,0 0,0 0,0 85.22,505.36 630.4,300.02 821.69,683.61 0,0 0,0 0,0 4.37,-579.5 -174.9,-962.83 -848.06,-818.66 0,0 0,0 0,0 -226.97,2.56 -361.21,48.84 -397.63,141.09zm-535.94 -645.79c100.23,-113.34 356.97,-194.16 406.4,-120.78 0,0 0,0 0,0 219.1,463.27 688.16,117.78 976.37,435.2 0,0 0,0 0,0 -152.96,-558.92 -429.43,-879.37 -1038.27,-558.08 0,0 0,0 0,0 -217.73,64.05 -334.52,144.95 -344.5,243.66zm750.57 1987.85c-149.58,-22.76 -398.55,79.51 -389.54,167.62 0,0 0,0 0,0 128.5,496.11 -452.95,531.31 -470.99,959.64 0,0 0,0 0,-0.01 -240.61,-527.27 -233.5,-950.36 439.9,-1093.67 0,0 0,0 0,0 208.18,-90.3 349.61,-102.94 420.63,-33.58zm23.31 -979.88c-149.6,-22.81 -398.47,79.53 -389.55,167.57 0,0 0,0 0,0 128.62,496.16 -452.96,531.29 -470.97,959.58 0,0 0,0 0,0 -240.54,-527.25 -233.43,-950.36 439.9,-1093.59 0,0 0,0 0,0 208.2,-90.35 349.73,-103 420.62,-33.56zm-491.87 -680.01c-151.35,-1.8 -383.79,133.91 -362.71,219.87 0,0 0,0 0,0 195.89,473.6 -375.16,588.77 -333.86,1015.41 0,0 0,0 0,0 -311.09,-488.9 -362.5,-908.94 284.54,-1143.84 0,0 0,0 0,0 193.8,-118.21 332.1,-150.29 412.03,-91.44zm-749.19 -469.72c-150.02,20.09 -360.23,188.04 -326.9,270.03 0,0 0,0 0,0 262.4,440.21 -285.93,637.03 -183.09,1053.18 0,0 0,0 0,0 -378.74,-438.65 -490.55,-846.78 115.63,-1173.1 0,0 0,0 0,0 174.57,-145.08 306.85,-196.82 394.36,-150.11zm933.42 3266.62c-150.11,19.1 -361.54,185.65 -328.73,267.87 0,0 0,0 0,0 259.52,441.96 -290.12,635.05 -190.12,1051.86 0,0 0,0 0,0 -375.81,-441.12 -484.93,-850.01 123.52,-1172.21 0,0 0,0 0,0 175.47,-143.89 308.06,-194.79 395.33,-147.52zm-6166.33 -5633.67c39.11,146.2 232.51,333.25 309.55,289.76 0,0 0,0 0,0 403.17,-316.48 668.37,202.26 1067.99,47.12 0,0 0,0 0,0 -386.74,431.62 -777.32,594.61 -1178.25,35.03 0,0 0,0 0,0 -166.22,-154.54 -234.42,-279.12 -199.29,-371.91zm1390.85 -387.76c18.75,150.17 184.89,361.93 267.21,329.36 0,0 0,0 0,0 442.47,-258.62 634.39,291.44 1051.48,192.33 0,0 0,0 0,0 -441.96,374.86 -851.13,483.06 -1171.98,-125.95 0,0 0,0 0,0 -143.59,-175.9 -194.16,-308.54 -146.71,-395.74zm-2352.85 882.65c126.69,-82.8 395.55,-93.04 424,-9.24 0,0 0,0 0,0 89.03,504.7 632.66,295.22 826.9,677.36 0,0 0,0 0,0 -0.1,-579.5 -182.17,-961.46 -854.26,-812.16 0,0 0,0 0,0 -226.97,4.29 -360.85,51.56 -396.64,144.04zm606.68 -2123.13c126.64,-82.91 395.5,-93.17 423.92,-9.32 0,0 0,0 0,0 89.13,504.64 632.74,295.19 826.9,677.39 0,0 0,0 0,0 0,-579.48 -182.17,-961.52 -854.25,-812.24 0,0 0,0 0,0 -226.9,4.32 -360.89,51.58 -396.57,144.17zm746.6 -419.99c126.65,-82.88 395.61,-93.17 423.96,-9.32 0,0 0,0 0,0 89.1,504.7 632.71,295.22 826.89,677.42 0,0 0,0 0,-0.01 0,-579.57 -182.19,-961.51 -854.25,-812.26 0,0 0,0 0,0 -226.9,4.32 -360.86,51.59 -396.6,144.17zm2099.85 186.64c126.64,-82.93 395.63,-93.17 423.95,-9.35 0,0 0,0 0,0 89.1,504.75 632.74,295.25 826.97,677.44 0,0 0,0 0,0 -0.07,-579.5 -182.24,-961.51 -854.22,-812.26 0,0 0,0 0,0 -226.98,4.32 -360.89,51.61 -396.7,144.17zm-245.39 540.97c64.13,95.55 249.35,182.52 294.11,132.26 0,0 0,0 0,0 212.01,-327 530.58,-19.18 779.85,-229.21 0,0 0,0 0,0 -171.86,405.76 -412.65,619.27 -838.99,315.49 0,0 0,0 0,0 -157.58,-70.33 -237.36,-143.08 -234.97,-218.54zm1831.95 1768.93c126.74,-82.93 395.63,-93.17 424.05,-9.37 0,0 0,0 0,0 89.03,504.8 632.64,295.27 826.9,677.44 0,0 0,0 0,0 -0.1,-579.5 -182.22,-961.49 -854.25,-812.24 0,0 0,0 0,0 -226.98,4.29 -360.89,51.56 -396.7,144.17zm-443.26 583.29c126.65,-82.89 395.61,-93.17 423.95,-9.35 0,0 0,0 0,0 89.11,504.8 632.69,295.25 826.98,677.44 0,0 0,0 0,0 -0.1,-579.5 -182.27,-961.52 -854.33,-812.27 0,0 0,0 0,0 -226.9,4.32 -360.78,51.59 -396.6,144.18zm2263.19 279.95c126.7,-82.85 395.58,-93.16 424.01,-9.27 0,0 0,0 0,0 89.02,504.7 632.66,295.25 826.89,677.37 0,0 0,0 0,0 -0.07,-579.5 -182.14,-961.54 -854.25,-812.27 0,0 0,0 0,0 -226.97,4.37 -360.86,51.59 -396.65,144.17zm-1143.07 -1698.49c110.51,-103.43 373.63,-159.92 416.02,-82.25 0,0 0,0 0,0 174.83,481.79 674.22,181.61 931.45,524.54 0,0 0,0 0,0 -100.1,-570.74 -345.39,-915.65 -981.61,-652.66 0,0 0,0 0,0 -222.76,43.44 -346.56,113.08 -365.86,210.37zm784.2 659.1c63.04,137.52 285.14,289.43 353.82,233.58 0,0 0,0 0,0 344.17,-379.73 692.76,87.1 1060.65,-132.92 0,0 0,0 0,0 -308.66,490.47 -666.19,716.79 -1155.62,232.51 0,0 0,0 0,0 -189.79,-124.48 -277.88,-235.81 -258.85,-333.17zm-1306.63 -1843.28c63.04,137.59 285.24,289.51 353.87,233.66 0,0 0,0 0,0 344.22,-379.71 692.81,87.04 1060.68,-133 0,0 0,0 0,0 -308.71,490.48 -666.27,716.77 -1155.6,232.59 0,0 0,0 0,0 -189.76,-124.59 -277.95,-235.91 -258.95,-333.25zm-375.11 -556.36c82.43,126.95 324.36,244.91 384.18,179.68 0,0 0,0 0,0 285.19,-425.86 698.04,-14.78 1029.99,-286.08 0,0 0,0 0,0 -234.01,530.25 -554.78,806.25 -1109.42,398.4 0,0 0,0 0,0 -205.89,-95.53 -309.37,-192.84 -304.75,-292zm-585.16 -364.92c117.17,95.71 383.49,134.29 420.6,53.95 0,0 0,0 0,0 141.83,-492.53 660.35,-226.8 893.75,-586.33 0,0 0,0 0,0 -61.14,576.27 -282.66,936.87 -935.16,717.49 0,0 0,0 0,0 -225.22,-28.24 -353.44,-89.33 -379.19,-185.11zm-513.08 -204.34c135.23,67.92 403.55,47.8 422.3,-38.76 0,0 0,0 0,0 31.39,-511.56 595.27,-364.93 744.98,-766.58 0,0 0,0 0,0 65.48,575.82 -72.26,975.95 -756.87,903.61 0,0 0,0 0,0 -226.01,21.44 -364.44,-10.39 -410.41,-98.27zm-3336.19 1644.49c64.16,95.56 249.35,182.43 294.08,132.16 0,0 0,0 0,0 212.01,-326.97 530.56,-19.18 779.78,-229.16 0,0 0,0 0,0 -171.78,405.74 -412.62,619.25 -838.89,315.47 0,0 0,0 0,0 -157.6,-70.26 -237.38,-143.08 -234.97,-218.47zm524.94 -2426.56c64.14,95.55 249.35,182.5 294.08,132.23 0,0 0,0 0,0 212.04,-326.97 530.56,-19.17 779.88,-229.18 0,0 0,0 0,0 -171.88,405.71 -412.64,619.22 -838.96,315.49 0,0 0,0 0,0 -157.66,-70.36 -237.39,-143.1 -235,-218.54zm2217.14 381.61c-64.13,-95.56 -249.38,-182.5 -294.1,-132.16 0,0 0,0 0,0 -211.99,326.98 -530.56,19.18 -779.84,229.14 0,0 0,0 0,0 171.84,-405.69 412.63,-619.2 838.97,-315.42 0,0 0,0 0,0 157.6,70.23 237.38,143.05 234.97,218.44zm-2840.94 5287.11c-35.28,-147.19 45.8,-403.86 134.22,-402.28 0,0 0,0 0,0 505.23,86.43 491.38,-495.99 916.68,-549.91 0,0 0,0 0,0 -545.54,-195.41 -966.59,-152.84 -1052.8,530.17 0,0 0,0 0,0 -72.49,215.06 -73.23,357.15 1.9,422.02zm1283.24 -396.65c-35.31,-147.24 45.77,-403.86 134.29,-402.28 0,0 0,0 0,0 505.18,86.44 491.38,-496.01 916.63,-549.83 0,0 0,0 0,0 -545.49,-195.48 -966.55,-152.91 -1052.78,530.07 0,0 0,0 0,0 -72.54,215.16 -73.2,357.15 1.86,422.04zm1008.81 -456.66c98.83,6.68 255.62,-73.66 244.98,-130.61 0,0 0,0 0,0 -110.95,-316.66 266.55,-371.27 254.92,-651.74 0,0 0,0 0,0 185.69,330.89 204.13,607.27 -227.33,737.44 0,0 0,0 0,0 -130.84,70.36 -222.51,86.31 -272.57,44.91zm679.24 -113.44c97.77,-16 232.08,-129.97 208.69,-182.95 0,0 0,0 0,0 -180.34,-283.04 174.68,-422.41 99.37,-692.76 0,0 0,0 0,0 256.33,279.7 337.41,544.62 -52.91,769.84 0,0 0,0 0,0 -111.41,98.28 -196.98,134.75 -255.15,105.87zm668.18 -125.7c91.49,-38.1 195.98,-179.94 161.01,-226.16 0,0 0,0 0,0 -240.62,-233.81 72.82,-451.21 -62.74,-696.93 0,0 0,0 0,0 313.87,213.16 453.72,452.3 125.65,761.37 0,0 0,0 0,0 -85.8,121.31 -160.6,176.45 -223.92,161.72zm1718.18 765.81c79.07,59.61 254.3,78.03 276.45,24.46 0,0 0,0 0,0 80.17,-325.73 426.09,-165.31 569.57,-406.5 0,0 0,0 0,0 -25.19,378.56 -160.83,620.19 -593.29,493.37 0,0 0,0 0,0 -148.03,-12.63 -233.5,-49.36 -252.73,-111.33zm-2655.09 -151.74c20.5,96.95 140.54,225.88 192.38,200.07 0,0 0,0 0,0 274.4,-192.99 429.87,155.25 696.52,67.62 0,0 0,0 0,0 -267.64,268.81 -528.57,361.95 -771.5,-17.68 0,0 0,0 0,0 -103.25,-106.78 -143.58,-190.58 -117.4,-250.01zm1067.51 7.44c-19.35,97.1 40.16,262.92 98.02,259.69 0,0 0,0 0,0 328.32,-69.37 334.01,311.94 613.64,336.4 0,0 0,0 0,0 -351.94,141.78 -628.45,124.56 -702.13,-320.07 0,0 0,0 0,0 -52.91,-138.83 -56.97,-231.75 -9.53,-276.02zm-659.02 -4593.82c135.4,-67.61 279.73,-294.77 221.61,-361.54 0,0 0,0 0,0 -391.13,-331.19 63.7,-695.3 -168.63,-1055.58 0,0 0,0 0,0 500.56,292.03 738.76,641.81 271.27,1147.17 0,0 0,0 0,0 -118.01,193.8 -226.31,285.72 -324.25,269.95zm-630 -676.63c135.41,-67.69 279.81,-294.74 221.59,-361.52 0,0 0,0 0,0 -391.11,-331.21 63.75,-695.3 -168.53,-1055.6 0,0 0,0 0,0 500.58,292.03 738.78,641.71 271.3,1147.09 0,0 0,0 0,0 -118.04,193.93 -226.32,285.83 -324.36,270.03zm-618.26 -315.01c135.38,-67.59 279.7,-294.74 221.61,-361.49 0,0 0,0 0,0 -391.16,-331.24 63.66,-695.3 -168.63,-1055.63 0,0 0,0 0,0 500.56,292.03 738.76,641.81 271.3,1147.19 0,0 0,0 0,0 -118.03,193.83 -226.34,285.73 -324.28,269.93zm-1668.2 -221.56c135.28,-67.72 279.68,-294.82 221.57,-361.65 0,0 0,0 0,0 -391.09,-331.16 63.65,-695.2 -168.61,-1055.5 0,0 0,0 0,0 500.56,291.95 738.79,641.73 271.27,1147.09 0,0 0,0 0,0 -118.03,193.8 -226.29,285.73 -324.23,270.06zm-815.31 -416.44c-82.76,-126.82 -92.61,-395.68 -8.79,-423.95 0,0 0,0 0,0 504.85,-88.34 296.24,-632.31 678.71,-825.96 0,0 0,0 0,0 -579.52,-0.73 -961.79,180.88 -813.51,853.09 0,0 0,0 0,0 3.96,226.97 50.98,360.96 143.59,396.82zm1644.9 618.34c-82.73,-126.8 -92.58,-395.73 -8.74,-424.03 0,0 0,0 0,0 504.85,-88.34 296.14,-632.2 678.67,-825.88 0,0 0,0 0,0 -579.58,-0.81 -961.77,180.77 -813.51,853.09 0,0 0,0 0,0 3.96,226.89 51,360.85 143.58,396.82zm-2252.93 -1193.52c135.38,-67.72 279.78,-294.84 221.59,-361.62 0,0 0,0 0,0 -391.11,-331.19 63.73,-695.3 -168.53,-1055.5 0,0 0,0 0,0 500.59,291.95 738.79,641.73 271.27,1147.09 0,0 0,0 0,0 -118.05,193.8 -226.28,285.7 -324.33,270.03zm6085.23 5116.65c-62.99,-76.45 -229.03,-135.3 -263.09,-88.42 0,0 0,0 0,0 -153.98,298.12 -452.93,61.32 -648.74,262.36 0,0 0,0 0,0 112.9,-362.2 301.09,-565.43 692.05,-341.3 0,0 0,0 0,0 141.02,46.86 215.49,102.49 219.78,167.36zm123.42 -691.64c-14.63,-98.04 -126.72,-233.91 -180.03,-211.35 0,0 0,0 0,0 -285.5,176.2 -419.82,-180.7 -691.19,-109.25 0,0 0,0 0,0 283.29,-252.3 549.35,-329.56 768.96,63.96 0,0 0,0 0,0 96.72,112.83 131.93,198.88 102.26,256.64zm-5226.68 -1864.03c-66.32,-203.61 -641.79,-822.76 -697.79,-808.23 0,0 0,0 0,0 -308.56,131.85 -388.39,-241.12 -667.36,-210.74 0,0 0,0 0,0 317.62,-207.37 592.22,-244.35 750.97,177.47 0,0 0,0 0,0 78.87,125.86 678.72,685.26 614.18,841.5zm-308.89 -449.99c-84.08,-78.58 -284.2,-121.33 -316.36,-62.23 0,0 0,0 0,0 -132.49,366.58 -512.42,138.87 -707.67,399.8 0,0 0,0 0,0 75.44,-434.09 261.7,-696.54 745.72,-497.18 0,0 0,0 0,0 169.42,32.74 263.57,85.57 278.31,159.61z"/>
 </g>
</svg>
